%
M48
M72
T01C0.0236
T02C0.0276
T03C0.0315
T04C0.0400
T05C0.1102
%
T01
X8870Y10710
X8310Y11430
X7830Y10950
T02
X8390Y9350
X6310Y9270
X4950Y10950
X4950Y11510
X3350Y4550
X18790Y14390
X18790Y14950
X18790Y15510
X20780Y14559
T03
X1430Y5461
X1430Y4279
T04
X3445Y20319
X4445Y20319
X5445Y20319
X6445Y20319
X7445Y20319
X8445Y20319
X9445Y20319
X10445Y20319
X11445Y20319
X12445Y20319
X13445Y20319
X14445Y20319
X15445Y20319
X16445Y20319
X17445Y20319
X18445Y20319
X19445Y20319
X20445Y20319
X21445Y20319
X22445Y20319
X22445Y21319
X21445Y21319
X20445Y21319
X19445Y21319
X18445Y21319
X17445Y21319
X16445Y21319
X15445Y21319
X14445Y21319
X13445Y21319
X12445Y21319
X11445Y21319
X10445Y21319
X9445Y21319
X8445Y21319
X7445Y21319
X6445Y21319
X5445Y21319
X4445Y21319
X3445Y21319
X23569Y11855
X24569Y11855
T05
X1528Y1528
X1528Y20819
X24363Y20819
X24363Y1528
M30
