G75*
%MOIN*%
%OFA0B0*%
%FSLAX24Y24*%
%IPPOS*%
%LPD*%
%AMOC8*
5,1,8,0,0,1.08239X$1,22.5*
%
%ADD10R,0.0600X0.0600*%
%ADD11OC8,0.0600*%
%ADD12R,0.2100X0.0760*%
%ADD13C,0.0100*%
%ADD14C,0.0120*%
%ADD15R,0.0413X0.0413*%
%ADD16C,0.0160*%
%ADD17C,0.0080*%
%ADD18R,0.0356X0.0356*%
D10*
X003445Y020319D03*
D11*
X004445Y020319D03*
X005445Y020319D03*
X006445Y020319D03*
X007445Y020319D03*
X008445Y020319D03*
X009445Y020319D03*
X010445Y020319D03*
X011445Y020319D03*
X012445Y020319D03*
X013445Y020319D03*
X014445Y020319D03*
X015445Y020319D03*
X016445Y020319D03*
X017445Y020319D03*
X018445Y020319D03*
X019445Y020319D03*
X020445Y020319D03*
X021445Y020319D03*
X022445Y020319D03*
X022445Y021319D03*
X021445Y021319D03*
X020445Y021319D03*
X019445Y021319D03*
X018445Y021319D03*
X017445Y021319D03*
X016445Y021319D03*
X015445Y021319D03*
X014445Y021319D03*
X013445Y021319D03*
X012445Y021319D03*
X011445Y021319D03*
X010445Y021319D03*
X009445Y021319D03*
X008445Y021319D03*
X007445Y021319D03*
X006445Y021319D03*
X005445Y021319D03*
X004445Y021319D03*
X003445Y021319D03*
X023569Y011855D03*
X024569Y011855D03*
D12*
X009250Y008470D03*
X005450Y008470D03*
D13*
X002163Y000428D02*
X001812Y000300D01*
X024078Y000300D01*
X023727Y000428D01*
X023389Y000711D01*
X023169Y001093D01*
X023092Y001528D01*
X023169Y001962D01*
X023389Y002345D01*
X023727Y002628D01*
X024142Y002779D01*
X024583Y002779D01*
X024998Y002628D01*
X025336Y002345D01*
X025556Y001962D01*
X025591Y001769D01*
X025591Y020578D01*
X025556Y020385D01*
X025336Y020003D01*
X024998Y019719D01*
X024583Y019568D01*
X024142Y019568D01*
X023727Y019719D01*
X023389Y020003D01*
X023169Y020385D01*
X023092Y020819D01*
X023169Y021254D01*
X023389Y021636D01*
X023727Y021920D01*
X024078Y022047D01*
X001812Y022047D01*
X002163Y021920D01*
X002501Y021636D01*
X002722Y021254D01*
X002798Y020819D01*
X002722Y020385D01*
X002501Y020003D01*
X002163Y019719D01*
X001749Y019568D01*
X001307Y019568D01*
X000893Y019719D01*
X000555Y020003D01*
X000334Y020385D01*
X000300Y020578D01*
X000300Y014914D01*
X000305Y014866D01*
X000341Y014778D01*
X000408Y014711D01*
X000496Y014675D01*
X000544Y014670D01*
X001833Y014670D01*
X002033Y014587D01*
X002033Y014587D01*
X002186Y014434D01*
X002186Y014434D01*
X002269Y014235D01*
X002269Y008113D01*
X002186Y007913D01*
X002186Y007913D01*
X002033Y007760D01*
X002033Y007760D01*
X001833Y007677D01*
X000544Y007677D01*
X000496Y007672D01*
X000408Y007636D01*
X002990Y007636D01*
X002990Y007538D02*
X000328Y007538D01*
X000341Y007569D02*
X000408Y007636D01*
X000341Y007569D02*
X000305Y007481D01*
X000300Y007433D01*
X000300Y001769D01*
X000334Y001962D01*
X000555Y002345D01*
X000893Y002628D01*
X001307Y002779D01*
X001749Y002779D01*
X002163Y002628D01*
X002501Y002345D01*
X002722Y001962D01*
X002798Y001528D01*
X002722Y001093D01*
X002501Y000711D01*
X002163Y000428D01*
X002184Y000446D02*
X023706Y000446D01*
X023589Y000544D02*
X002302Y000544D01*
X002419Y000643D02*
X023471Y000643D01*
X023372Y000741D02*
X002518Y000741D01*
X002575Y000840D02*
X023315Y000840D01*
X023258Y000938D02*
X002632Y000938D01*
X002689Y001037D02*
X023202Y001037D01*
X023161Y001135D02*
X002729Y001135D01*
X002747Y001234D02*
X017632Y001234D01*
X017559Y001264D02*
X017758Y001181D01*
X017929Y001181D01*
X017975Y001181D01*
X018175Y001264D01*
X018327Y001417D01*
X018410Y001617D01*
X018410Y007738D01*
X018327Y007938D01*
X018175Y008091D01*
X018175Y008091D01*
X017975Y008174D01*
X017758Y008174D01*
X017559Y008091D01*
X017559Y008091D01*
X017406Y007938D01*
X017323Y007738D01*
X017323Y001617D01*
X017406Y001417D01*
X017559Y001264D01*
X017559Y001264D01*
X017490Y001332D02*
X002764Y001332D01*
X002781Y001431D02*
X017400Y001431D01*
X017406Y001417D02*
X017406Y001417D01*
X017359Y001529D02*
X002798Y001529D01*
X002781Y001628D02*
X017323Y001628D01*
X017323Y001726D02*
X002764Y001726D01*
X002746Y001825D02*
X017323Y001825D01*
X017323Y001923D02*
X002729Y001923D01*
X002688Y002022D02*
X017323Y002022D01*
X017323Y002120D02*
X002631Y002120D01*
X002574Y002219D02*
X017323Y002219D01*
X017323Y002317D02*
X002517Y002317D01*
X002417Y002416D02*
X017323Y002416D01*
X017323Y002514D02*
X002299Y002514D01*
X002182Y002613D02*
X017323Y002613D01*
X017323Y002711D02*
X001936Y002711D01*
X001120Y002711D02*
X000300Y002711D01*
X000300Y002613D02*
X000874Y002613D01*
X000757Y002514D02*
X000300Y002514D01*
X000300Y002416D02*
X000639Y002416D01*
X000539Y002317D02*
X000300Y002317D01*
X000300Y002219D02*
X000482Y002219D01*
X000425Y002120D02*
X000300Y002120D01*
X000300Y002022D02*
X000368Y002022D01*
X000327Y001923D02*
X000300Y001923D01*
X000300Y001825D02*
X000310Y001825D01*
X000300Y002810D02*
X017323Y002810D01*
X017323Y002908D02*
X000300Y002908D01*
X000300Y003007D02*
X017323Y003007D01*
X017323Y003105D02*
X000300Y003105D01*
X000300Y003204D02*
X017323Y003204D01*
X017323Y003302D02*
X000300Y003302D01*
X000300Y003401D02*
X017323Y003401D01*
X017323Y003499D02*
X000300Y003499D01*
X000300Y003598D02*
X017323Y003598D01*
X017323Y003696D02*
X000300Y003696D01*
X000300Y003795D02*
X017323Y003795D01*
X017323Y003893D02*
X000300Y003893D01*
X000300Y003992D02*
X001322Y003992D01*
X001369Y003972D02*
X001491Y003972D01*
X001604Y004019D01*
X001691Y004105D01*
X001737Y004218D01*
X001737Y004341D01*
X001691Y004454D01*
X001604Y004540D01*
X001491Y004587D01*
X001369Y004587D01*
X001256Y004540D01*
X001169Y004454D01*
X001123Y004341D01*
X001123Y004218D01*
X001169Y004105D01*
X001256Y004019D01*
X001369Y003972D01*
X001538Y003992D02*
X017323Y003992D01*
X017323Y004090D02*
X001675Y004090D01*
X001725Y004189D02*
X017323Y004189D01*
X017323Y004287D02*
X003707Y004287D01*
X003707Y004281D02*
X003707Y004819D01*
X003619Y004907D01*
X003550Y004907D01*
X003550Y005233D01*
X003390Y005393D01*
X003390Y010017D01*
X003673Y010300D01*
X005493Y010300D01*
X005610Y010417D01*
X005610Y010417D01*
X005693Y010500D01*
X007397Y010500D01*
X007497Y010400D01*
X008463Y010400D01*
X008542Y010479D01*
X008542Y010470D01*
X008630Y010382D01*
X009110Y010382D01*
X009198Y010470D01*
X009198Y010950D01*
X009110Y011038D01*
X008630Y011038D01*
X008542Y010950D01*
X008542Y010910D01*
X008407Y010910D01*
X008297Y010800D01*
X008158Y010800D01*
X008158Y011102D01*
X008550Y011102D01*
X008638Y011190D01*
X008638Y011670D01*
X008550Y011758D01*
X008070Y011758D01*
X007982Y011670D01*
X007982Y011620D01*
X005429Y011620D01*
X005349Y011700D01*
X005307Y011700D01*
X005307Y011779D01*
X005219Y011867D01*
X004681Y011867D01*
X004593Y011779D01*
X004593Y011241D01*
X004604Y011230D01*
X004593Y011219D01*
X004593Y010700D01*
X003507Y010700D01*
X003390Y010583D01*
X002990Y010183D01*
X002990Y005227D01*
X003150Y005067D01*
X003150Y004907D01*
X003081Y004907D01*
X002993Y004819D01*
X002993Y004281D01*
X003081Y004193D01*
X003619Y004193D01*
X003707Y004281D01*
X003707Y004386D02*
X017323Y004386D01*
X017323Y004484D02*
X003707Y004484D01*
X003707Y004583D02*
X017323Y004583D01*
X017323Y004681D02*
X003707Y004681D01*
X003707Y004780D02*
X017323Y004780D01*
X017323Y004878D02*
X003648Y004878D01*
X003550Y004977D02*
X017323Y004977D01*
X017323Y005075D02*
X003550Y005075D01*
X003550Y005174D02*
X017323Y005174D01*
X017323Y005272D02*
X003511Y005272D01*
X003412Y005371D02*
X017323Y005371D01*
X017323Y005469D02*
X003390Y005469D01*
X003390Y005568D02*
X017323Y005568D01*
X017323Y005666D02*
X003390Y005666D01*
X003390Y005765D02*
X017323Y005765D01*
X017323Y005863D02*
X003390Y005863D01*
X003390Y005962D02*
X017323Y005962D01*
X017323Y006060D02*
X003390Y006060D01*
X003390Y006159D02*
X017323Y006159D01*
X017323Y006257D02*
X003390Y006257D01*
X003390Y006356D02*
X017323Y006356D01*
X017323Y006454D02*
X003390Y006454D01*
X003390Y006553D02*
X017323Y006553D01*
X017323Y006651D02*
X003390Y006651D01*
X003390Y006750D02*
X017323Y006750D01*
X017323Y006848D02*
X003390Y006848D01*
X003390Y006947D02*
X017323Y006947D01*
X017323Y007045D02*
X003390Y007045D01*
X003390Y007144D02*
X017323Y007144D01*
X017323Y007242D02*
X003390Y007242D01*
X003390Y007341D02*
X017323Y007341D01*
X017323Y007439D02*
X003390Y007439D01*
X003390Y007538D02*
X017323Y007538D01*
X017323Y007636D02*
X003390Y007636D01*
X003390Y007735D02*
X017323Y007735D01*
X017362Y007833D02*
X003390Y007833D01*
X003390Y007932D02*
X017403Y007932D01*
X017406Y007938D02*
X017406Y007938D01*
X017497Y008030D02*
X010450Y008030D01*
X010450Y008028D02*
X010362Y007940D01*
X008138Y007940D01*
X008050Y008028D01*
X008050Y008912D01*
X008131Y008993D01*
X008121Y008993D01*
X008033Y009081D01*
X008033Y009619D01*
X008121Y009707D01*
X008659Y009707D01*
X008747Y009619D01*
X008747Y009560D01*
X009197Y009560D01*
X009320Y009437D01*
X009460Y009297D01*
X009460Y009000D01*
X010362Y009000D01*
X010450Y008912D01*
X010450Y008028D01*
X010450Y008129D02*
X017649Y008129D01*
X018085Y008129D02*
X025591Y008129D01*
X025591Y008227D02*
X010450Y008227D01*
X010450Y008326D02*
X025591Y008326D01*
X025591Y008424D02*
X010450Y008424D01*
X010450Y008523D02*
X025591Y008523D01*
X025591Y008621D02*
X010450Y008621D01*
X010450Y008720D02*
X025591Y008720D01*
X025591Y008818D02*
X010450Y008818D01*
X010446Y008917D02*
X025591Y008917D01*
X025591Y009015D02*
X009460Y009015D01*
X009460Y009114D02*
X025591Y009114D01*
X025591Y009212D02*
X009460Y009212D01*
X009446Y009311D02*
X025591Y009311D01*
X025591Y009409D02*
X009348Y009409D01*
X009249Y009508D02*
X025591Y009508D01*
X025591Y009606D02*
X008747Y009606D01*
X008661Y009705D02*
X025591Y009705D01*
X025591Y009803D02*
X003390Y009803D01*
X003390Y009705D02*
X008119Y009705D01*
X008033Y009606D02*
X006599Y009606D01*
X006579Y009627D02*
X006667Y009539D01*
X006667Y009001D01*
X006614Y008948D01*
X006650Y008912D01*
X006650Y008028D01*
X006562Y007940D01*
X004338Y007940D01*
X004250Y008028D01*
X004250Y008912D01*
X004338Y009000D01*
X005240Y009000D01*
X005240Y009297D01*
X005423Y009480D01*
X005597Y009480D01*
X005617Y009460D01*
X005953Y009460D01*
X005953Y009539D01*
X006041Y009627D01*
X006579Y009627D01*
X006667Y009508D02*
X008033Y009508D01*
X008033Y009409D02*
X006667Y009409D01*
X006667Y009311D02*
X008033Y009311D01*
X008033Y009212D02*
X006667Y009212D01*
X006667Y009114D02*
X008033Y009114D01*
X008099Y009015D02*
X006667Y009015D01*
X006646Y008917D02*
X008054Y008917D01*
X008050Y008818D02*
X006650Y008818D01*
X006650Y008720D02*
X008050Y008720D01*
X008050Y008621D02*
X006650Y008621D01*
X006650Y008523D02*
X008050Y008523D01*
X008050Y008424D02*
X006650Y008424D01*
X006650Y008326D02*
X008050Y008326D01*
X008050Y008227D02*
X006650Y008227D01*
X006650Y008129D02*
X008050Y008129D01*
X008050Y008030D02*
X006650Y008030D01*
X005240Y009015D02*
X003390Y009015D01*
X003390Y008917D02*
X004254Y008917D01*
X004250Y008818D02*
X003390Y008818D01*
X003390Y008720D02*
X004250Y008720D01*
X004250Y008621D02*
X003390Y008621D01*
X003390Y008523D02*
X004250Y008523D01*
X004250Y008424D02*
X003390Y008424D01*
X003390Y008326D02*
X004250Y008326D01*
X004250Y008227D02*
X003390Y008227D01*
X003390Y008129D02*
X004250Y008129D01*
X004250Y008030D02*
X003390Y008030D01*
X002990Y008030D02*
X002234Y008030D01*
X002269Y008129D02*
X002990Y008129D01*
X002990Y008227D02*
X002269Y008227D01*
X002269Y008326D02*
X002990Y008326D01*
X002990Y008424D02*
X002269Y008424D01*
X002269Y008523D02*
X002990Y008523D01*
X002990Y008621D02*
X002269Y008621D01*
X002269Y008720D02*
X002990Y008720D01*
X002990Y008818D02*
X002269Y008818D01*
X002269Y008917D02*
X002990Y008917D01*
X002990Y009015D02*
X002269Y009015D01*
X002269Y009114D02*
X002990Y009114D01*
X002990Y009212D02*
X002269Y009212D01*
X002269Y009311D02*
X002990Y009311D01*
X002990Y009409D02*
X002269Y009409D01*
X002269Y009508D02*
X002990Y009508D01*
X002990Y009606D02*
X002269Y009606D01*
X002269Y009705D02*
X002990Y009705D01*
X002990Y009803D02*
X002269Y009803D01*
X002269Y009902D02*
X002990Y009902D01*
X002990Y010000D02*
X002269Y010000D01*
X002269Y010099D02*
X002990Y010099D01*
X003004Y010197D02*
X002269Y010197D01*
X002269Y010296D02*
X003103Y010296D01*
X003201Y010394D02*
X002269Y010394D01*
X002269Y010493D02*
X003300Y010493D01*
X003398Y010591D02*
X002269Y010591D01*
X002269Y010690D02*
X003497Y010690D01*
X003590Y010500D02*
X005410Y010500D01*
X005610Y010700D01*
X007480Y010700D01*
X007580Y010600D01*
X008380Y010600D01*
X008490Y010710D01*
X008870Y010710D01*
X009198Y010690D02*
X025591Y010690D01*
X025591Y010788D02*
X009198Y010788D01*
X009198Y010887D02*
X025591Y010887D01*
X025591Y010985D02*
X009163Y010985D01*
X009198Y010591D02*
X025591Y010591D01*
X025591Y010493D02*
X009198Y010493D01*
X009122Y010394D02*
X025591Y010394D01*
X025591Y010296D02*
X003668Y010296D01*
X003570Y010197D02*
X025591Y010197D01*
X025591Y010099D02*
X003471Y010099D01*
X003390Y010000D02*
X025591Y010000D01*
X025591Y009902D02*
X003390Y009902D01*
X003190Y010100D02*
X003190Y005310D01*
X003350Y005150D01*
X003350Y004550D01*
X002993Y004583D02*
X001502Y004583D01*
X001358Y004583D02*
X000300Y004583D01*
X000300Y004681D02*
X002993Y004681D01*
X002993Y004780D02*
X000300Y004780D01*
X000300Y004878D02*
X003052Y004878D01*
X003150Y004977D02*
X000300Y004977D01*
X000300Y005075D02*
X003142Y005075D01*
X003044Y005174D02*
X001541Y005174D01*
X001491Y005153D02*
X001604Y005200D01*
X001691Y005286D01*
X001737Y005399D01*
X001737Y005522D01*
X001691Y005635D01*
X001604Y005721D01*
X001491Y005768D01*
X001369Y005768D01*
X001256Y005721D01*
X001169Y005635D01*
X001123Y005522D01*
X001123Y005399D01*
X001169Y005286D01*
X001256Y005200D01*
X001369Y005153D01*
X001491Y005153D01*
X001319Y005174D02*
X000300Y005174D01*
X000300Y005272D02*
X001184Y005272D01*
X001134Y005371D02*
X000300Y005371D01*
X000300Y005469D02*
X001123Y005469D01*
X001141Y005568D02*
X000300Y005568D01*
X000300Y005666D02*
X001201Y005666D01*
X001360Y005765D02*
X000300Y005765D01*
X000300Y005863D02*
X002990Y005863D01*
X002990Y005765D02*
X001500Y005765D01*
X001659Y005666D02*
X002990Y005666D01*
X002990Y005568D02*
X001719Y005568D01*
X001737Y005469D02*
X002990Y005469D01*
X002990Y005371D02*
X001726Y005371D01*
X001676Y005272D02*
X002990Y005272D01*
X002990Y005962D02*
X000300Y005962D01*
X000300Y006060D02*
X002990Y006060D01*
X002990Y006159D02*
X000300Y006159D01*
X000300Y006257D02*
X002990Y006257D01*
X002990Y006356D02*
X000300Y006356D01*
X000300Y006454D02*
X002990Y006454D01*
X002990Y006553D02*
X000300Y006553D01*
X000300Y006651D02*
X002990Y006651D01*
X002990Y006750D02*
X000300Y006750D01*
X000300Y006848D02*
X002990Y006848D01*
X002990Y006947D02*
X000300Y006947D01*
X000300Y007045D02*
X002990Y007045D01*
X002990Y007144D02*
X000300Y007144D01*
X000300Y007242D02*
X002990Y007242D01*
X002990Y007341D02*
X000300Y007341D01*
X000301Y007439D02*
X002990Y007439D01*
X002990Y007735D02*
X001971Y007735D01*
X002106Y007833D02*
X002990Y007833D01*
X002990Y007932D02*
X002193Y007932D01*
X003390Y009114D02*
X005240Y009114D01*
X005240Y009212D02*
X003390Y009212D01*
X003390Y009311D02*
X005254Y009311D01*
X005352Y009409D02*
X003390Y009409D01*
X003390Y009508D02*
X005953Y009508D01*
X006021Y009606D02*
X003390Y009606D01*
X003190Y010100D02*
X003590Y010500D01*
X004593Y010788D02*
X002269Y010788D01*
X002269Y010887D02*
X004593Y010887D01*
X004593Y010985D02*
X002269Y010985D01*
X002269Y011084D02*
X004593Y011084D01*
X004593Y011182D02*
X002269Y011182D01*
X002269Y011281D02*
X004593Y011281D01*
X004593Y011379D02*
X002269Y011379D01*
X002269Y011478D02*
X004593Y011478D01*
X004593Y011576D02*
X002269Y011576D01*
X002269Y011675D02*
X004593Y011675D01*
X004593Y011773D02*
X002269Y011773D01*
X002269Y011872D02*
X021098Y011872D01*
X021170Y011799D02*
X021288Y011682D01*
X023119Y011682D01*
X023119Y011668D01*
X023383Y011405D01*
X023756Y011405D01*
X024019Y011668D01*
X024019Y012041D01*
X023756Y012305D01*
X023383Y012305D01*
X023160Y012082D01*
X021453Y012082D01*
X020980Y012556D01*
X020980Y014203D01*
X021049Y014203D01*
X021137Y014291D01*
X021137Y014828D01*
X021049Y014916D01*
X020511Y014916D01*
X020423Y014828D01*
X020423Y014291D01*
X020511Y014203D01*
X020580Y014203D01*
X020580Y012390D01*
X021170Y011799D01*
X021197Y011773D02*
X005307Y011773D01*
X005374Y011675D02*
X007986Y011675D01*
X008158Y011084D02*
X025591Y011084D01*
X025591Y011182D02*
X008630Y011182D01*
X008638Y011281D02*
X025591Y011281D01*
X025591Y011379D02*
X008638Y011379D01*
X008638Y011478D02*
X023310Y011478D01*
X023212Y011576D02*
X008638Y011576D01*
X008634Y011675D02*
X023119Y011675D01*
X023542Y011882D02*
X023569Y011855D01*
X023542Y011882D02*
X021370Y011882D01*
X020780Y012473D01*
X020780Y014559D01*
X021137Y014531D02*
X025591Y014531D01*
X025591Y014433D02*
X021137Y014433D01*
X021137Y014334D02*
X025591Y014334D01*
X025591Y014236D02*
X021082Y014236D01*
X020980Y014137D02*
X025591Y014137D01*
X025591Y014039D02*
X020980Y014039D01*
X020980Y013940D02*
X025591Y013940D01*
X025591Y013842D02*
X020980Y013842D01*
X020980Y013743D02*
X025591Y013743D01*
X025591Y013645D02*
X020980Y013645D01*
X020980Y013546D02*
X025591Y013546D01*
X025591Y013448D02*
X020980Y013448D01*
X020980Y013349D02*
X025591Y013349D01*
X025591Y013251D02*
X020980Y013251D01*
X020980Y013152D02*
X025591Y013152D01*
X025591Y013054D02*
X020980Y013054D01*
X020980Y012955D02*
X025591Y012955D01*
X025591Y012857D02*
X020980Y012857D01*
X020980Y012758D02*
X025591Y012758D01*
X025591Y012660D02*
X020980Y012660D01*
X020980Y012561D02*
X025591Y012561D01*
X025591Y012463D02*
X021073Y012463D01*
X021172Y012364D02*
X025591Y012364D01*
X025591Y012266D02*
X024795Y012266D01*
X024756Y012305D02*
X024619Y012305D01*
X024619Y011905D01*
X024519Y011905D01*
X024519Y011805D01*
X024119Y011805D01*
X024119Y011668D01*
X024383Y011405D01*
X024519Y011405D01*
X024519Y011805D01*
X024619Y011805D01*
X024619Y011405D01*
X024756Y011405D01*
X025019Y011668D01*
X025019Y011805D01*
X024619Y011805D01*
X024619Y011905D01*
X025019Y011905D01*
X025019Y012041D01*
X024756Y012305D01*
X024619Y012266D02*
X024519Y012266D01*
X024519Y012305D02*
X024383Y012305D01*
X024119Y012041D01*
X024119Y011905D01*
X024519Y011905D01*
X024519Y012305D01*
X024519Y012167D02*
X024619Y012167D01*
X024619Y012069D02*
X024519Y012069D01*
X024519Y011970D02*
X024619Y011970D01*
X024619Y011872D02*
X025591Y011872D01*
X025591Y011970D02*
X025019Y011970D01*
X024992Y012069D02*
X025591Y012069D01*
X025591Y012167D02*
X024893Y012167D01*
X024519Y011872D02*
X024019Y011872D01*
X024019Y011970D02*
X024119Y011970D01*
X024147Y012069D02*
X023992Y012069D01*
X023893Y012167D02*
X024245Y012167D01*
X024344Y012266D02*
X023795Y012266D01*
X023344Y012266D02*
X021270Y012266D01*
X021369Y012167D02*
X023245Y012167D01*
X024019Y011773D02*
X024119Y011773D01*
X024119Y011675D02*
X024019Y011675D01*
X023927Y011576D02*
X024212Y011576D01*
X024310Y011478D02*
X023828Y011478D01*
X024519Y011478D02*
X024619Y011478D01*
X024619Y011576D02*
X024519Y011576D01*
X024519Y011675D02*
X024619Y011675D01*
X024619Y011773D02*
X024519Y011773D01*
X024828Y011478D02*
X025591Y011478D01*
X025591Y011576D02*
X024927Y011576D01*
X025019Y011675D02*
X025591Y011675D01*
X025591Y011773D02*
X025019Y011773D01*
X025591Y014630D02*
X021137Y014630D01*
X021137Y014728D02*
X025591Y014728D01*
X025591Y014827D02*
X021137Y014827D01*
X020423Y014827D02*
X019147Y014827D01*
X019147Y014925D02*
X025591Y014925D01*
X025591Y015024D02*
X019147Y015024D01*
X019147Y015122D02*
X025591Y015122D01*
X025591Y015221D02*
X019145Y015221D01*
X019147Y015219D02*
X019136Y015230D01*
X019147Y015241D01*
X019147Y015779D01*
X019059Y015867D01*
X018521Y015867D01*
X018433Y015779D01*
X018433Y015764D01*
X017774Y016423D01*
X016674Y016423D01*
X016660Y016437D01*
X016660Y019898D01*
X016895Y020133D01*
X016895Y020506D01*
X016632Y020769D01*
X016259Y020769D01*
X016160Y020670D01*
X016160Y020963D01*
X016163Y020966D01*
X016259Y020869D01*
X016632Y020869D01*
X016895Y021133D01*
X016895Y021506D01*
X016632Y021769D01*
X016259Y021769D01*
X015995Y021506D01*
X015995Y021392D01*
X015895Y021292D01*
X015895Y021506D01*
X015632Y021769D01*
X015259Y021769D01*
X014995Y021506D01*
X014995Y021133D01*
X015259Y020869D01*
X015632Y020869D01*
X015740Y020978D01*
X015740Y020661D01*
X015632Y020769D01*
X015495Y020769D01*
X015495Y020369D01*
X015395Y020369D01*
X015395Y020269D01*
X015495Y020269D01*
X015495Y019869D01*
X015632Y019869D01*
X015740Y019978D01*
X015740Y019640D01*
X011659Y019640D01*
X011659Y019897D01*
X011895Y020133D01*
X011895Y020506D01*
X011632Y020769D01*
X011259Y020769D01*
X010995Y020506D01*
X010995Y020133D01*
X011239Y019889D01*
X011239Y019776D01*
X011183Y019720D01*
X011103Y019640D01*
X003677Y019640D01*
X003640Y019677D01*
X003640Y019869D01*
X003807Y019869D01*
X003895Y019957D01*
X003895Y020681D01*
X003807Y020769D01*
X003083Y020769D01*
X002995Y020681D01*
X002995Y019957D01*
X003083Y019869D01*
X003220Y019869D01*
X003220Y019503D01*
X003343Y019380D01*
X003503Y019220D01*
X015583Y019220D01*
X015700Y019103D01*
X015700Y016063D01*
X015823Y015940D01*
X016303Y015460D01*
X017183Y015460D01*
X018340Y014303D01*
X018433Y014210D01*
X018433Y014121D01*
X018521Y014033D01*
X019059Y014033D01*
X019147Y014121D01*
X019147Y014659D01*
X019136Y014670D01*
X019147Y014681D01*
X019147Y015219D01*
X019147Y015319D02*
X025591Y015319D01*
X025591Y015418D02*
X019147Y015418D01*
X019147Y015516D02*
X025591Y015516D01*
X025591Y015615D02*
X019147Y015615D01*
X019147Y015713D02*
X025591Y015713D01*
X025591Y015812D02*
X019114Y015812D01*
X018466Y015812D02*
X018385Y015812D01*
X018287Y015910D02*
X025591Y015910D01*
X025591Y016009D02*
X018188Y016009D01*
X018090Y016107D02*
X025591Y016107D01*
X025591Y016206D02*
X017991Y016206D01*
X017893Y016304D02*
X025591Y016304D01*
X025591Y016403D02*
X017794Y016403D01*
X016660Y016501D02*
X025591Y016501D01*
X025591Y016600D02*
X016660Y016600D01*
X016660Y016698D02*
X025591Y016698D01*
X025591Y016797D02*
X016660Y016797D01*
X016660Y016895D02*
X025591Y016895D01*
X025591Y016994D02*
X016660Y016994D01*
X016660Y017092D02*
X025591Y017092D01*
X025591Y017191D02*
X016660Y017191D01*
X016660Y017289D02*
X025591Y017289D01*
X025591Y017388D02*
X016660Y017388D01*
X016660Y017486D02*
X025591Y017486D01*
X025591Y017585D02*
X016660Y017585D01*
X016660Y017683D02*
X025591Y017683D01*
X025591Y017782D02*
X016660Y017782D01*
X016660Y017880D02*
X025591Y017880D01*
X025591Y017979D02*
X016660Y017979D01*
X016660Y018077D02*
X025591Y018077D01*
X025591Y018176D02*
X016660Y018176D01*
X016660Y018274D02*
X025591Y018274D01*
X025591Y018373D02*
X016660Y018373D01*
X016660Y018471D02*
X025591Y018471D01*
X025591Y018570D02*
X016660Y018570D01*
X016660Y018668D02*
X025591Y018668D01*
X025591Y018767D02*
X016660Y018767D01*
X016660Y018865D02*
X025591Y018865D01*
X025591Y018964D02*
X016660Y018964D01*
X016660Y019062D02*
X025591Y019062D01*
X025591Y019161D02*
X016660Y019161D01*
X016660Y019259D02*
X025591Y019259D01*
X025591Y019358D02*
X016660Y019358D01*
X016660Y019456D02*
X025591Y019456D01*
X025591Y019555D02*
X016660Y019555D01*
X016660Y019653D02*
X023909Y019653D01*
X023689Y019752D02*
X016660Y019752D01*
X016660Y019850D02*
X023571Y019850D01*
X023454Y019949D02*
X022711Y019949D01*
X022632Y019869D02*
X022495Y019869D01*
X022495Y020269D01*
X022395Y020269D01*
X022395Y019869D01*
X022259Y019869D01*
X021995Y020133D01*
X021995Y020269D01*
X022395Y020269D01*
X022395Y020369D01*
X021995Y020369D01*
X021995Y020506D01*
X022259Y020769D01*
X022395Y020769D01*
X022395Y020369D01*
X022495Y020369D01*
X022895Y020369D01*
X022895Y020506D01*
X022632Y020769D01*
X022495Y020769D01*
X022495Y020369D01*
X022495Y020269D01*
X022895Y020269D01*
X022895Y020133D01*
X022632Y019869D01*
X022495Y019949D02*
X022395Y019949D01*
X022395Y020047D02*
X022495Y020047D01*
X022495Y020146D02*
X022395Y020146D01*
X022395Y020244D02*
X022495Y020244D01*
X022495Y020343D02*
X023193Y020343D01*
X023159Y020441D02*
X022895Y020441D01*
X022861Y020540D02*
X023141Y020540D01*
X023124Y020638D02*
X022763Y020638D01*
X022664Y020737D02*
X023107Y020737D01*
X023095Y020835D02*
X016160Y020835D01*
X016160Y020737D02*
X016226Y020737D01*
X016195Y020934D02*
X016160Y020934D01*
X015740Y020934D02*
X015696Y020934D01*
X015740Y020835D02*
X002796Y020835D01*
X002784Y020737D02*
X003050Y020737D01*
X002995Y020638D02*
X002766Y020638D01*
X002749Y020540D02*
X002995Y020540D01*
X002995Y020441D02*
X002732Y020441D01*
X002697Y020343D02*
X002995Y020343D01*
X002995Y020244D02*
X002641Y020244D01*
X002584Y020146D02*
X002995Y020146D01*
X002995Y020047D02*
X002527Y020047D01*
X002437Y019949D02*
X003004Y019949D01*
X003220Y019850D02*
X002319Y019850D01*
X002202Y019752D02*
X003220Y019752D01*
X003220Y019653D02*
X001982Y019653D01*
X001074Y019653D02*
X000300Y019653D01*
X000300Y019555D02*
X003220Y019555D01*
X003267Y019456D02*
X000300Y019456D01*
X000300Y019358D02*
X003365Y019358D01*
X003464Y019259D02*
X000300Y019259D01*
X000300Y019161D02*
X015642Y019161D01*
X015700Y019062D02*
X000300Y019062D01*
X000300Y018964D02*
X015700Y018964D01*
X015700Y018865D02*
X000300Y018865D01*
X000300Y018767D02*
X015700Y018767D01*
X015700Y018668D02*
X000300Y018668D01*
X000300Y018570D02*
X015700Y018570D01*
X015700Y018471D02*
X000300Y018471D01*
X000300Y018373D02*
X015700Y018373D01*
X015700Y018274D02*
X000300Y018274D01*
X000300Y018176D02*
X015700Y018176D01*
X015700Y018077D02*
X000300Y018077D01*
X000300Y017979D02*
X015700Y017979D01*
X015700Y017880D02*
X000300Y017880D01*
X000300Y017782D02*
X015700Y017782D01*
X015700Y017683D02*
X000300Y017683D01*
X000300Y017585D02*
X015700Y017585D01*
X015700Y017486D02*
X000300Y017486D01*
X000300Y017388D02*
X015700Y017388D01*
X015700Y017289D02*
X000300Y017289D01*
X000300Y017191D02*
X015700Y017191D01*
X015700Y017092D02*
X000300Y017092D01*
X000300Y016994D02*
X015700Y016994D01*
X015700Y016895D02*
X000300Y016895D01*
X000300Y016797D02*
X015700Y016797D01*
X015700Y016698D02*
X000300Y016698D01*
X000300Y016600D02*
X015700Y016600D01*
X015700Y016501D02*
X000300Y016501D01*
X000300Y016403D02*
X015700Y016403D01*
X015700Y016304D02*
X000300Y016304D01*
X000300Y016206D02*
X015700Y016206D01*
X015700Y016107D02*
X000300Y016107D01*
X000300Y016009D02*
X015754Y016009D01*
X015853Y015910D02*
X000300Y015910D01*
X000300Y015812D02*
X015951Y015812D01*
X016050Y015713D02*
X000300Y015713D01*
X000300Y015615D02*
X016148Y015615D01*
X016247Y015516D02*
X000300Y015516D01*
X000300Y015418D02*
X017225Y015418D01*
X017324Y015319D02*
X000300Y015319D01*
X000300Y015221D02*
X017422Y015221D01*
X017521Y015122D02*
X000300Y015122D01*
X000300Y015024D02*
X017619Y015024D01*
X017718Y014925D02*
X000300Y014925D01*
X000321Y014827D02*
X017816Y014827D01*
X017915Y014728D02*
X000391Y014728D01*
X001931Y014630D02*
X018013Y014630D01*
X018112Y014531D02*
X002089Y014531D01*
X002186Y014433D02*
X018210Y014433D01*
X018309Y014334D02*
X002227Y014334D01*
X002268Y014236D02*
X018407Y014236D01*
X018433Y014137D02*
X002269Y014137D01*
X002269Y014039D02*
X018516Y014039D01*
X019064Y014039D02*
X020580Y014039D01*
X020580Y014137D02*
X019147Y014137D01*
X019147Y014236D02*
X020478Y014236D01*
X020423Y014334D02*
X019147Y014334D01*
X019147Y014433D02*
X020423Y014433D01*
X020423Y014531D02*
X019147Y014531D01*
X019147Y014630D02*
X020423Y014630D01*
X020423Y014728D02*
X019147Y014728D01*
X020580Y013940D02*
X002269Y013940D01*
X002269Y013842D02*
X020580Y013842D01*
X020580Y013743D02*
X002269Y013743D01*
X002269Y013645D02*
X020580Y013645D01*
X020580Y013546D02*
X002269Y013546D01*
X002269Y013448D02*
X020580Y013448D01*
X020580Y013349D02*
X002269Y013349D01*
X002269Y013251D02*
X020580Y013251D01*
X020580Y013152D02*
X002269Y013152D01*
X002269Y013054D02*
X020580Y013054D01*
X020580Y012955D02*
X002269Y012955D01*
X002269Y012857D02*
X020580Y012857D01*
X020580Y012758D02*
X002269Y012758D01*
X002269Y012660D02*
X020580Y012660D01*
X020580Y012561D02*
X002269Y012561D01*
X002269Y012463D02*
X020580Y012463D01*
X020606Y012364D02*
X002269Y012364D01*
X002269Y012266D02*
X020704Y012266D01*
X020803Y012167D02*
X002269Y012167D01*
X002269Y012069D02*
X020901Y012069D01*
X021000Y011970D02*
X002269Y011970D01*
X005587Y010394D02*
X008618Y010394D01*
X008384Y010887D02*
X008158Y010887D01*
X008158Y010985D02*
X008577Y010985D01*
X007405Y010493D02*
X005685Y010493D01*
X002993Y004484D02*
X001660Y004484D01*
X001719Y004386D02*
X002993Y004386D01*
X002993Y004287D02*
X001737Y004287D01*
X001200Y004484D02*
X000300Y004484D01*
X000300Y004386D02*
X001141Y004386D01*
X001123Y004287D02*
X000300Y004287D01*
X000300Y004189D02*
X001135Y004189D01*
X001185Y004090D02*
X000300Y004090D01*
X001941Y000347D02*
X023949Y000347D01*
X023144Y001234D02*
X018101Y001234D01*
X018175Y001264D02*
X018175Y001264D01*
X018243Y001332D02*
X023127Y001332D01*
X023109Y001431D02*
X018333Y001431D01*
X018327Y001417D02*
X018327Y001417D01*
X018374Y001529D02*
X023092Y001529D01*
X023110Y001628D02*
X018410Y001628D01*
X018410Y001726D02*
X023127Y001726D01*
X023144Y001825D02*
X018410Y001825D01*
X018410Y001923D02*
X023162Y001923D01*
X023203Y002022D02*
X018410Y002022D01*
X018410Y002120D02*
X023260Y002120D01*
X023317Y002219D02*
X018410Y002219D01*
X018410Y002317D02*
X023373Y002317D01*
X023474Y002416D02*
X018410Y002416D01*
X018410Y002514D02*
X023591Y002514D01*
X023709Y002613D02*
X018410Y002613D01*
X018410Y002711D02*
X023955Y002711D01*
X024770Y002711D02*
X025591Y002711D01*
X025591Y002613D02*
X025017Y002613D01*
X025134Y002514D02*
X025591Y002514D01*
X025591Y002416D02*
X025251Y002416D01*
X025352Y002317D02*
X025591Y002317D01*
X025591Y002219D02*
X025409Y002219D01*
X025466Y002120D02*
X025591Y002120D01*
X025591Y002022D02*
X025522Y002022D01*
X025563Y001923D02*
X025591Y001923D01*
X025581Y001825D02*
X025591Y001825D01*
X025591Y002810D02*
X018410Y002810D01*
X018410Y002908D02*
X025591Y002908D01*
X025591Y003007D02*
X018410Y003007D01*
X018410Y003105D02*
X025591Y003105D01*
X025591Y003204D02*
X018410Y003204D01*
X018410Y003302D02*
X025591Y003302D01*
X025591Y003401D02*
X018410Y003401D01*
X018410Y003499D02*
X025591Y003499D01*
X025591Y003598D02*
X018410Y003598D01*
X018410Y003696D02*
X025591Y003696D01*
X025591Y003795D02*
X018410Y003795D01*
X018410Y003893D02*
X025591Y003893D01*
X025591Y003992D02*
X018410Y003992D01*
X018410Y004090D02*
X025591Y004090D01*
X025591Y004189D02*
X018410Y004189D01*
X018410Y004287D02*
X025591Y004287D01*
X025591Y004386D02*
X018410Y004386D01*
X018410Y004484D02*
X025591Y004484D01*
X025591Y004583D02*
X018410Y004583D01*
X018410Y004681D02*
X025591Y004681D01*
X025591Y004780D02*
X018410Y004780D01*
X018410Y004878D02*
X025591Y004878D01*
X025591Y004977D02*
X018410Y004977D01*
X018410Y005075D02*
X025591Y005075D01*
X025591Y005174D02*
X018410Y005174D01*
X018410Y005272D02*
X025591Y005272D01*
X025591Y005371D02*
X018410Y005371D01*
X018410Y005469D02*
X025591Y005469D01*
X025591Y005568D02*
X018410Y005568D01*
X018410Y005666D02*
X025591Y005666D01*
X025591Y005765D02*
X018410Y005765D01*
X018410Y005863D02*
X025591Y005863D01*
X025591Y005962D02*
X018410Y005962D01*
X018410Y006060D02*
X025591Y006060D01*
X025591Y006159D02*
X018410Y006159D01*
X018410Y006257D02*
X025591Y006257D01*
X025591Y006356D02*
X018410Y006356D01*
X018410Y006454D02*
X025591Y006454D01*
X025591Y006553D02*
X018410Y006553D01*
X018410Y006651D02*
X025591Y006651D01*
X025591Y006750D02*
X018410Y006750D01*
X018410Y006848D02*
X025591Y006848D01*
X025591Y006947D02*
X018410Y006947D01*
X018410Y007045D02*
X025591Y007045D01*
X025591Y007144D02*
X018410Y007144D01*
X018410Y007242D02*
X025591Y007242D01*
X025591Y007341D02*
X018410Y007341D01*
X018410Y007439D02*
X025591Y007439D01*
X025591Y007538D02*
X018410Y007538D01*
X018410Y007636D02*
X025591Y007636D01*
X025591Y007735D02*
X018410Y007735D01*
X018371Y007833D02*
X025591Y007833D01*
X025591Y007932D02*
X018330Y007932D01*
X018327Y007938D02*
X018327Y007938D01*
X018236Y008030D02*
X025591Y008030D01*
X017975Y001181D02*
X017975Y001181D01*
X015740Y019653D02*
X011659Y019653D01*
X011659Y019752D02*
X015740Y019752D01*
X015740Y019850D02*
X011659Y019850D01*
X011711Y019949D02*
X012180Y019949D01*
X012259Y019869D02*
X011995Y020133D01*
X011995Y020506D01*
X012259Y020769D01*
X012632Y020769D01*
X012895Y020506D01*
X012895Y020133D01*
X012632Y019869D01*
X012259Y019869D01*
X012081Y020047D02*
X011809Y020047D01*
X011895Y020146D02*
X011995Y020146D01*
X011995Y020244D02*
X011895Y020244D01*
X011895Y020343D02*
X011995Y020343D01*
X011995Y020441D02*
X011895Y020441D01*
X011861Y020540D02*
X012029Y020540D01*
X012128Y020638D02*
X011763Y020638D01*
X011664Y020737D02*
X012226Y020737D01*
X012259Y020869D02*
X012395Y020869D01*
X012395Y021269D01*
X012495Y021269D01*
X012495Y020869D01*
X012632Y020869D01*
X012895Y021133D01*
X012895Y021269D01*
X012495Y021269D01*
X012495Y021369D01*
X012895Y021369D01*
X012895Y021506D01*
X012632Y021769D01*
X012495Y021769D01*
X012495Y021369D01*
X012395Y021369D01*
X012395Y021269D01*
X011995Y021269D01*
X011995Y021133D01*
X012259Y020869D01*
X012195Y020934D02*
X011696Y020934D01*
X011632Y020869D02*
X011895Y021133D01*
X011895Y021506D01*
X011632Y021769D01*
X011259Y021769D01*
X010995Y021506D01*
X010995Y021133D01*
X011259Y020869D01*
X011632Y020869D01*
X011794Y021032D02*
X012096Y021032D01*
X011998Y021131D02*
X011893Y021131D01*
X011895Y021229D02*
X011995Y021229D01*
X011895Y021328D02*
X012395Y021328D01*
X012395Y021369D02*
X011995Y021369D01*
X011995Y021506D01*
X012259Y021769D01*
X012395Y021769D01*
X012395Y021369D01*
X012395Y021426D02*
X012495Y021426D01*
X012495Y021328D02*
X012995Y021328D01*
X012995Y021426D02*
X012895Y021426D01*
X012876Y021525D02*
X013014Y021525D01*
X012995Y021506D02*
X012995Y021133D01*
X013259Y020869D01*
X013632Y020869D01*
X013895Y021133D01*
X013895Y021506D01*
X013632Y021769D01*
X013259Y021769D01*
X012995Y021506D01*
X013113Y021623D02*
X012778Y021623D01*
X012679Y021722D02*
X013211Y021722D01*
X013679Y021722D02*
X014211Y021722D01*
X014259Y021769D02*
X013995Y021506D01*
X013995Y021133D01*
X014259Y020869D01*
X014632Y020869D01*
X014895Y021133D01*
X014895Y021506D01*
X014632Y021769D01*
X014259Y021769D01*
X014113Y021623D02*
X013778Y021623D01*
X013876Y021525D02*
X014014Y021525D01*
X013995Y021426D02*
X013895Y021426D01*
X013895Y021328D02*
X013995Y021328D01*
X013995Y021229D02*
X013895Y021229D01*
X013893Y021131D02*
X013998Y021131D01*
X014096Y021032D02*
X013794Y021032D01*
X013696Y020934D02*
X014195Y020934D01*
X014259Y020769D02*
X013995Y020506D01*
X013995Y020133D01*
X014259Y019869D01*
X014632Y019869D01*
X014895Y020133D01*
X014895Y020506D01*
X014632Y020769D01*
X014259Y020769D01*
X014226Y020737D02*
X013664Y020737D01*
X013632Y020769D02*
X013259Y020769D01*
X012995Y020506D01*
X012995Y020133D01*
X013259Y019869D01*
X013632Y019869D01*
X013895Y020133D01*
X013895Y020506D01*
X013632Y020769D01*
X013763Y020638D02*
X014128Y020638D01*
X014029Y020540D02*
X013861Y020540D01*
X013895Y020441D02*
X013995Y020441D01*
X013995Y020343D02*
X013895Y020343D01*
X013895Y020244D02*
X013995Y020244D01*
X013995Y020146D02*
X013895Y020146D01*
X013809Y020047D02*
X014081Y020047D01*
X014180Y019949D02*
X013711Y019949D01*
X013180Y019949D02*
X012711Y019949D01*
X012809Y020047D02*
X013081Y020047D01*
X012995Y020146D02*
X012895Y020146D01*
X012895Y020244D02*
X012995Y020244D01*
X012995Y020343D02*
X012895Y020343D01*
X012895Y020441D02*
X012995Y020441D01*
X013029Y020540D02*
X012861Y020540D01*
X012763Y020638D02*
X013128Y020638D01*
X013226Y020737D02*
X012664Y020737D01*
X012696Y020934D02*
X013195Y020934D01*
X013096Y021032D02*
X012794Y021032D01*
X012893Y021131D02*
X012998Y021131D01*
X012995Y021229D02*
X012895Y021229D01*
X012495Y021229D02*
X012395Y021229D01*
X012395Y021131D02*
X012495Y021131D01*
X012495Y021032D02*
X012395Y021032D01*
X012395Y020934D02*
X012495Y020934D01*
X011995Y021426D02*
X011895Y021426D01*
X011876Y021525D02*
X012014Y021525D01*
X012113Y021623D02*
X011778Y021623D01*
X011679Y021722D02*
X012211Y021722D01*
X012395Y021722D02*
X012495Y021722D01*
X012495Y021623D02*
X012395Y021623D01*
X012395Y021525D02*
X012495Y021525D01*
X011211Y021722D02*
X010679Y021722D01*
X010632Y021769D02*
X010895Y021506D01*
X010895Y021133D01*
X010632Y020869D01*
X010259Y020869D01*
X009995Y021133D01*
X009995Y021506D01*
X010259Y021769D01*
X010632Y021769D01*
X010778Y021623D02*
X011113Y021623D01*
X011014Y021525D02*
X010876Y021525D01*
X010895Y021426D02*
X010995Y021426D01*
X010995Y021328D02*
X010895Y021328D01*
X010895Y021229D02*
X010995Y021229D01*
X010998Y021131D02*
X010893Y021131D01*
X010794Y021032D02*
X011096Y021032D01*
X011195Y020934D02*
X010696Y020934D01*
X010632Y020769D02*
X010259Y020769D01*
X009995Y020506D01*
X009995Y020133D01*
X010259Y019869D01*
X010632Y019869D01*
X010895Y020133D01*
X010895Y020506D01*
X010632Y020769D01*
X010664Y020737D02*
X011226Y020737D01*
X011128Y020638D02*
X010763Y020638D01*
X010861Y020540D02*
X011029Y020540D01*
X010995Y020441D02*
X010895Y020441D01*
X010895Y020343D02*
X010995Y020343D01*
X010995Y020244D02*
X010895Y020244D01*
X010895Y020146D02*
X010995Y020146D01*
X011081Y020047D02*
X010809Y020047D01*
X010711Y019949D02*
X011180Y019949D01*
X011239Y019850D02*
X003640Y019850D01*
X003640Y019752D02*
X011215Y019752D01*
X011183Y019720D02*
X011183Y019720D01*
X011116Y019653D02*
X003664Y019653D01*
X003887Y019949D02*
X004180Y019949D01*
X004259Y019869D02*
X003995Y020133D01*
X003995Y020506D01*
X004259Y020769D01*
X004632Y020769D01*
X004895Y020506D01*
X004895Y020133D01*
X004632Y019869D01*
X004259Y019869D01*
X004081Y020047D02*
X003895Y020047D01*
X003895Y020146D02*
X003995Y020146D01*
X003995Y020244D02*
X003895Y020244D01*
X003895Y020343D02*
X003995Y020343D01*
X003995Y020441D02*
X003895Y020441D01*
X003895Y020540D02*
X004029Y020540D01*
X004128Y020638D02*
X003895Y020638D01*
X003840Y020737D02*
X004226Y020737D01*
X004259Y020869D02*
X004632Y020869D01*
X004895Y021133D01*
X004895Y021506D01*
X004632Y021769D01*
X004259Y021769D01*
X004039Y021549D01*
X003852Y021549D01*
X003632Y021769D01*
X003259Y021769D01*
X002995Y021506D01*
X002995Y021133D01*
X003259Y020869D01*
X003632Y020869D01*
X003852Y021089D01*
X004039Y021089D01*
X004259Y020869D01*
X004195Y020934D02*
X003696Y020934D01*
X003794Y021032D02*
X004096Y021032D01*
X004113Y021623D02*
X003778Y021623D01*
X003679Y021722D02*
X004211Y021722D01*
X004679Y021722D02*
X005211Y021722D01*
X005259Y021769D02*
X004995Y021506D01*
X004995Y021369D01*
X005395Y021369D01*
X005395Y021269D01*
X005495Y021269D01*
X005495Y020869D01*
X005632Y020869D01*
X005895Y021133D01*
X005895Y021269D01*
X005495Y021269D01*
X005495Y021369D01*
X005895Y021369D01*
X005895Y021506D01*
X005632Y021769D01*
X005495Y021769D01*
X005495Y021369D01*
X005395Y021369D01*
X005395Y021769D01*
X005259Y021769D01*
X005395Y021722D02*
X005495Y021722D01*
X005495Y021623D02*
X005395Y021623D01*
X005395Y021525D02*
X005495Y021525D01*
X005495Y021426D02*
X005395Y021426D01*
X005395Y021328D02*
X004895Y021328D01*
X004895Y021426D02*
X004995Y021426D01*
X005014Y021525D02*
X004876Y021525D01*
X004778Y021623D02*
X005113Y021623D01*
X004995Y021269D02*
X004995Y021133D01*
X005259Y020869D01*
X005395Y020869D01*
X005395Y021269D01*
X004995Y021269D01*
X004995Y021229D02*
X004895Y021229D01*
X004893Y021131D02*
X004998Y021131D01*
X005096Y021032D02*
X004794Y021032D01*
X004696Y020934D02*
X005195Y020934D01*
X005259Y020769D02*
X004995Y020506D01*
X004995Y020133D01*
X005259Y019869D01*
X005632Y019869D01*
X005895Y020133D01*
X005895Y020506D01*
X005632Y020769D01*
X005259Y020769D01*
X005226Y020737D02*
X004664Y020737D01*
X004763Y020638D02*
X005128Y020638D01*
X005029Y020540D02*
X004861Y020540D01*
X004895Y020441D02*
X004995Y020441D01*
X004995Y020343D02*
X004895Y020343D01*
X004895Y020244D02*
X004995Y020244D01*
X004995Y020146D02*
X004895Y020146D01*
X004809Y020047D02*
X005081Y020047D01*
X005180Y019949D02*
X004711Y019949D01*
X005664Y020737D02*
X006226Y020737D01*
X006259Y020769D02*
X005995Y020506D01*
X005995Y020133D01*
X006259Y019869D01*
X006632Y019869D01*
X006895Y020133D01*
X006895Y020506D01*
X006632Y020769D01*
X006259Y020769D01*
X006259Y020869D02*
X006632Y020869D01*
X006895Y021133D01*
X006895Y021506D01*
X006632Y021769D01*
X006259Y021769D01*
X005995Y021506D01*
X005995Y021133D01*
X006259Y020869D01*
X006195Y020934D02*
X005696Y020934D01*
X005794Y021032D02*
X006096Y021032D01*
X005998Y021131D02*
X005893Y021131D01*
X005895Y021229D02*
X005995Y021229D01*
X005995Y021328D02*
X005495Y021328D01*
X005495Y021229D02*
X005395Y021229D01*
X005395Y021131D02*
X005495Y021131D01*
X005495Y021032D02*
X005395Y021032D01*
X005395Y020934D02*
X005495Y020934D01*
X005763Y020638D02*
X006128Y020638D01*
X006029Y020540D02*
X005861Y020540D01*
X005895Y020441D02*
X005995Y020441D01*
X005995Y020343D02*
X005895Y020343D01*
X005895Y020244D02*
X005995Y020244D01*
X005995Y020146D02*
X005895Y020146D01*
X005809Y020047D02*
X006081Y020047D01*
X006180Y019949D02*
X005711Y019949D01*
X006711Y019949D02*
X007180Y019949D01*
X007259Y019869D02*
X006995Y020133D01*
X006995Y020269D01*
X007395Y020269D01*
X007495Y020269D01*
X007495Y019869D01*
X007632Y019869D01*
X007895Y020133D01*
X007895Y020269D01*
X007495Y020269D01*
X007495Y020369D01*
X007895Y020369D01*
X007895Y020506D01*
X007632Y020769D01*
X007495Y020769D01*
X007495Y020369D01*
X007395Y020369D01*
X007395Y020269D01*
X007395Y019869D01*
X007259Y019869D01*
X007395Y019949D02*
X007495Y019949D01*
X007495Y020047D02*
X007395Y020047D01*
X007395Y020146D02*
X007495Y020146D01*
X007495Y020244D02*
X007395Y020244D01*
X007395Y020343D02*
X006895Y020343D01*
X006895Y020441D02*
X006995Y020441D01*
X006995Y020506D02*
X006995Y020369D01*
X007395Y020369D01*
X007395Y020769D01*
X007259Y020769D01*
X006995Y020506D01*
X007029Y020540D02*
X006861Y020540D01*
X006763Y020638D02*
X007128Y020638D01*
X007226Y020737D02*
X006664Y020737D01*
X006696Y020934D02*
X007195Y020934D01*
X007259Y020869D02*
X007632Y020869D01*
X007895Y021133D01*
X007895Y021506D01*
X007632Y021769D01*
X007259Y021769D01*
X006995Y021506D01*
X006995Y021133D01*
X007259Y020869D01*
X007395Y020737D02*
X007495Y020737D01*
X007495Y020638D02*
X007395Y020638D01*
X007395Y020540D02*
X007495Y020540D01*
X007495Y020441D02*
X007395Y020441D01*
X007495Y020343D02*
X007995Y020343D01*
X007995Y020441D02*
X007895Y020441D01*
X007861Y020540D02*
X008029Y020540D01*
X007995Y020506D02*
X007995Y020133D01*
X008259Y019869D01*
X008632Y019869D01*
X008895Y020133D01*
X008895Y020506D01*
X008632Y020769D01*
X008259Y020769D01*
X007995Y020506D01*
X008128Y020638D02*
X007763Y020638D01*
X007664Y020737D02*
X008226Y020737D01*
X008259Y020869D02*
X008632Y020869D01*
X008895Y021133D01*
X008895Y021506D01*
X008632Y021769D01*
X008259Y021769D01*
X007995Y021506D01*
X007995Y021133D01*
X008259Y020869D01*
X008195Y020934D02*
X007696Y020934D01*
X007794Y021032D02*
X008096Y021032D01*
X007998Y021131D02*
X007893Y021131D01*
X007895Y021229D02*
X007995Y021229D01*
X007995Y021328D02*
X007895Y021328D01*
X007895Y021426D02*
X007995Y021426D01*
X008014Y021525D02*
X007876Y021525D01*
X007778Y021623D02*
X008113Y021623D01*
X008211Y021722D02*
X007679Y021722D01*
X007211Y021722D02*
X006679Y021722D01*
X006778Y021623D02*
X007113Y021623D01*
X007014Y021525D02*
X006876Y021525D01*
X006895Y021426D02*
X006995Y021426D01*
X006995Y021328D02*
X006895Y021328D01*
X006895Y021229D02*
X006995Y021229D01*
X006998Y021131D02*
X006893Y021131D01*
X006794Y021032D02*
X007096Y021032D01*
X006995Y020244D02*
X006895Y020244D01*
X006895Y020146D02*
X006995Y020146D01*
X007081Y020047D02*
X006809Y020047D01*
X007711Y019949D02*
X008180Y019949D01*
X008081Y020047D02*
X007809Y020047D01*
X007895Y020146D02*
X007995Y020146D01*
X007995Y020244D02*
X007895Y020244D01*
X008711Y019949D02*
X009180Y019949D01*
X009259Y019869D02*
X008995Y020133D01*
X008995Y020506D01*
X009259Y020769D01*
X009632Y020769D01*
X009895Y020506D01*
X009895Y020133D01*
X009632Y019869D01*
X009259Y019869D01*
X009081Y020047D02*
X008809Y020047D01*
X008895Y020146D02*
X008995Y020146D01*
X008995Y020244D02*
X008895Y020244D01*
X008895Y020343D02*
X008995Y020343D01*
X008995Y020441D02*
X008895Y020441D01*
X008861Y020540D02*
X009029Y020540D01*
X009128Y020638D02*
X008763Y020638D01*
X008664Y020737D02*
X009226Y020737D01*
X009259Y020869D02*
X009395Y020869D01*
X009395Y021269D01*
X009495Y021269D01*
X009495Y020869D01*
X009632Y020869D01*
X009895Y021133D01*
X009895Y021269D01*
X009495Y021269D01*
X009495Y021369D01*
X009895Y021369D01*
X009895Y021506D01*
X009632Y021769D01*
X009495Y021769D01*
X009495Y021369D01*
X009395Y021369D01*
X009395Y021269D01*
X008995Y021269D01*
X008995Y021133D01*
X009259Y020869D01*
X009195Y020934D02*
X008696Y020934D01*
X008794Y021032D02*
X009096Y021032D01*
X008998Y021131D02*
X008893Y021131D01*
X008895Y021229D02*
X008995Y021229D01*
X008895Y021328D02*
X009395Y021328D01*
X009395Y021369D02*
X008995Y021369D01*
X008995Y021506D01*
X009259Y021769D01*
X009395Y021769D01*
X009395Y021369D01*
X009395Y021426D02*
X009495Y021426D01*
X009495Y021328D02*
X009995Y021328D01*
X009995Y021426D02*
X009895Y021426D01*
X009876Y021525D02*
X010014Y021525D01*
X010113Y021623D02*
X009778Y021623D01*
X009679Y021722D02*
X010211Y021722D01*
X009995Y021229D02*
X009895Y021229D01*
X009893Y021131D02*
X009998Y021131D01*
X010096Y021032D02*
X009794Y021032D01*
X009696Y020934D02*
X010195Y020934D01*
X010226Y020737D02*
X009664Y020737D01*
X009763Y020638D02*
X010128Y020638D01*
X010029Y020540D02*
X009861Y020540D01*
X009895Y020441D02*
X009995Y020441D01*
X009995Y020343D02*
X009895Y020343D01*
X009895Y020244D02*
X009995Y020244D01*
X009995Y020146D02*
X009895Y020146D01*
X009809Y020047D02*
X010081Y020047D01*
X010180Y019949D02*
X009711Y019949D01*
X009495Y020934D02*
X009395Y020934D01*
X009395Y021032D02*
X009495Y021032D01*
X009495Y021131D02*
X009395Y021131D01*
X009395Y021229D02*
X009495Y021229D01*
X009495Y021525D02*
X009395Y021525D01*
X009395Y021623D02*
X009495Y021623D01*
X009495Y021722D02*
X009395Y021722D01*
X009211Y021722D02*
X008679Y021722D01*
X008778Y021623D02*
X009113Y021623D01*
X009014Y021525D02*
X008876Y021525D01*
X008895Y021426D02*
X008995Y021426D01*
X006211Y021722D02*
X005679Y021722D01*
X005778Y021623D02*
X006113Y021623D01*
X006014Y021525D02*
X005876Y021525D01*
X005895Y021426D02*
X005995Y021426D01*
X003211Y021722D02*
X002399Y021722D01*
X002509Y021623D02*
X003113Y021623D01*
X003014Y021525D02*
X002565Y021525D01*
X002622Y021426D02*
X002995Y021426D01*
X002995Y021328D02*
X002679Y021328D01*
X002726Y021229D02*
X002995Y021229D01*
X002998Y021131D02*
X002744Y021131D01*
X002761Y021032D02*
X003096Y021032D01*
X003195Y020934D02*
X002778Y020934D01*
X002282Y021820D02*
X023609Y021820D01*
X023726Y021919D02*
X002164Y021919D01*
X001895Y022017D02*
X023995Y022017D01*
X023491Y021722D02*
X022679Y021722D01*
X022632Y021769D02*
X022259Y021769D01*
X021995Y021506D01*
X021995Y021133D01*
X022259Y020869D01*
X022632Y020869D01*
X022895Y021133D01*
X022895Y021506D01*
X022632Y021769D01*
X022778Y021623D02*
X023382Y021623D01*
X023325Y021525D02*
X022876Y021525D01*
X022895Y021426D02*
X023268Y021426D01*
X023211Y021328D02*
X022895Y021328D01*
X022895Y021229D02*
X023164Y021229D01*
X023147Y021131D02*
X022893Y021131D01*
X022794Y021032D02*
X023130Y021032D01*
X023112Y020934D02*
X022696Y020934D01*
X022495Y020737D02*
X022395Y020737D01*
X022395Y020638D02*
X022495Y020638D01*
X022495Y020540D02*
X022395Y020540D01*
X022395Y020441D02*
X022495Y020441D01*
X022395Y020343D02*
X021895Y020343D01*
X021895Y020441D02*
X021995Y020441D01*
X022029Y020540D02*
X021861Y020540D01*
X021895Y020506D02*
X021632Y020769D01*
X021259Y020769D01*
X020995Y020506D01*
X020995Y020133D01*
X021259Y019869D01*
X021632Y019869D01*
X021895Y020133D01*
X021895Y020506D01*
X021763Y020638D02*
X022128Y020638D01*
X022226Y020737D02*
X021664Y020737D01*
X021632Y020869D02*
X021895Y021133D01*
X021895Y021506D01*
X021632Y021769D01*
X021259Y021769D01*
X020995Y021506D01*
X020995Y021133D01*
X021259Y020869D01*
X021632Y020869D01*
X021696Y020934D02*
X022195Y020934D01*
X022096Y021032D02*
X021794Y021032D01*
X021893Y021131D02*
X021998Y021131D01*
X021995Y021229D02*
X021895Y021229D01*
X021895Y021328D02*
X021995Y021328D01*
X021995Y021426D02*
X021895Y021426D01*
X021876Y021525D02*
X022014Y021525D01*
X022113Y021623D02*
X021778Y021623D01*
X021679Y021722D02*
X022211Y021722D01*
X021211Y021722D02*
X020679Y021722D01*
X020632Y021769D02*
X020259Y021769D01*
X019995Y021506D01*
X019995Y021133D01*
X020259Y020869D01*
X020632Y020869D01*
X020895Y021133D01*
X020895Y021506D01*
X020632Y021769D01*
X020778Y021623D02*
X021113Y021623D01*
X021014Y021525D02*
X020876Y021525D01*
X020895Y021426D02*
X020995Y021426D01*
X020995Y021328D02*
X020895Y021328D01*
X020895Y021229D02*
X020995Y021229D01*
X020998Y021131D02*
X020893Y021131D01*
X020794Y021032D02*
X021096Y021032D01*
X021195Y020934D02*
X020696Y020934D01*
X020632Y020769D02*
X020259Y020769D01*
X019995Y020506D01*
X019995Y020133D01*
X020259Y019869D01*
X020632Y019869D01*
X020895Y020133D01*
X020895Y020506D01*
X020632Y020769D01*
X020664Y020737D02*
X021226Y020737D01*
X021128Y020638D02*
X020763Y020638D01*
X020861Y020540D02*
X021029Y020540D01*
X020995Y020441D02*
X020895Y020441D01*
X020895Y020343D02*
X020995Y020343D01*
X020995Y020244D02*
X020895Y020244D01*
X020895Y020146D02*
X020995Y020146D01*
X021081Y020047D02*
X020809Y020047D01*
X020711Y019949D02*
X021180Y019949D01*
X021711Y019949D02*
X022180Y019949D01*
X022081Y020047D02*
X021809Y020047D01*
X021895Y020146D02*
X021995Y020146D01*
X021995Y020244D02*
X021895Y020244D01*
X022809Y020047D02*
X023364Y020047D01*
X023307Y020146D02*
X022895Y020146D01*
X022895Y020244D02*
X023250Y020244D01*
X024817Y019653D02*
X025591Y019653D01*
X025591Y019752D02*
X025037Y019752D01*
X025154Y019850D02*
X025591Y019850D01*
X025591Y019949D02*
X025271Y019949D01*
X025361Y020047D02*
X025591Y020047D01*
X025591Y020146D02*
X025418Y020146D01*
X025475Y020244D02*
X025591Y020244D01*
X025591Y020343D02*
X025532Y020343D01*
X025566Y020441D02*
X025591Y020441D01*
X025584Y020540D02*
X025591Y020540D01*
X020226Y020737D02*
X019664Y020737D01*
X019632Y020769D02*
X019259Y020769D01*
X018995Y020506D01*
X018995Y020133D01*
X019259Y019869D01*
X019632Y019869D01*
X019895Y020133D01*
X019895Y020506D01*
X019632Y020769D01*
X019632Y020869D02*
X019895Y021133D01*
X019895Y021269D01*
X019495Y021269D01*
X019495Y020869D01*
X019632Y020869D01*
X019696Y020934D02*
X020195Y020934D01*
X020096Y021032D02*
X019794Y021032D01*
X019893Y021131D02*
X019998Y021131D01*
X019995Y021229D02*
X019895Y021229D01*
X019895Y021369D02*
X019495Y021369D01*
X019495Y021269D01*
X019395Y021269D01*
X019395Y020869D01*
X019259Y020869D01*
X018995Y021133D01*
X018995Y021269D01*
X019395Y021269D01*
X019395Y021369D01*
X018995Y021369D01*
X018995Y021506D01*
X019259Y021769D01*
X019395Y021769D01*
X019395Y021369D01*
X019495Y021369D01*
X019495Y021769D01*
X019632Y021769D01*
X019895Y021506D01*
X019895Y021369D01*
X019895Y021426D02*
X019995Y021426D01*
X019995Y021328D02*
X019495Y021328D01*
X019495Y021426D02*
X019395Y021426D01*
X019395Y021328D02*
X018895Y021328D01*
X018895Y021426D02*
X018995Y021426D01*
X019014Y021525D02*
X018876Y021525D01*
X018895Y021506D02*
X018632Y021769D01*
X018259Y021769D01*
X017995Y021506D01*
X017995Y021133D01*
X018259Y020869D01*
X018632Y020869D01*
X018895Y021133D01*
X018895Y021506D01*
X018778Y021623D02*
X019113Y021623D01*
X019211Y021722D02*
X018679Y021722D01*
X018211Y021722D02*
X017679Y021722D01*
X017632Y021769D02*
X017895Y021506D01*
X017895Y021369D01*
X017495Y021369D01*
X017495Y021269D01*
X017495Y020869D01*
X017632Y020869D01*
X017895Y021133D01*
X017895Y021269D01*
X017495Y021269D01*
X017395Y021269D01*
X017395Y020869D01*
X017259Y020869D01*
X016995Y021133D01*
X016995Y021269D01*
X017395Y021269D01*
X017395Y021369D01*
X016995Y021369D01*
X016995Y021506D01*
X017259Y021769D01*
X017395Y021769D01*
X017395Y021369D01*
X017495Y021369D01*
X017495Y021769D01*
X017632Y021769D01*
X017495Y021722D02*
X017395Y021722D01*
X017395Y021623D02*
X017495Y021623D01*
X017495Y021525D02*
X017395Y021525D01*
X017395Y021426D02*
X017495Y021426D01*
X017495Y021328D02*
X017995Y021328D01*
X017995Y021426D02*
X017895Y021426D01*
X017876Y021525D02*
X018014Y021525D01*
X018113Y021623D02*
X017778Y021623D01*
X017395Y021328D02*
X016895Y021328D01*
X016895Y021426D02*
X016995Y021426D01*
X017014Y021525D02*
X016876Y021525D01*
X016778Y021623D02*
X017113Y021623D01*
X017211Y021722D02*
X016679Y021722D01*
X016211Y021722D02*
X015679Y021722D01*
X015778Y021623D02*
X016113Y021623D01*
X016014Y021525D02*
X015876Y021525D01*
X015895Y021426D02*
X015995Y021426D01*
X015931Y021328D02*
X015895Y021328D01*
X015740Y020737D02*
X015664Y020737D01*
X015495Y020737D02*
X015395Y020737D01*
X015395Y020769D02*
X015259Y020769D01*
X014995Y020506D01*
X014995Y020369D01*
X015395Y020369D01*
X015395Y020769D01*
X015395Y020638D02*
X015495Y020638D01*
X015495Y020540D02*
X015395Y020540D01*
X015395Y020441D02*
X015495Y020441D01*
X015395Y020343D02*
X014895Y020343D01*
X014895Y020441D02*
X014995Y020441D01*
X015029Y020540D02*
X014861Y020540D01*
X014763Y020638D02*
X015128Y020638D01*
X015226Y020737D02*
X014664Y020737D01*
X014696Y020934D02*
X015195Y020934D01*
X015096Y021032D02*
X014794Y021032D01*
X014893Y021131D02*
X014998Y021131D01*
X014995Y021229D02*
X014895Y021229D01*
X014895Y021328D02*
X014995Y021328D01*
X014995Y021426D02*
X014895Y021426D01*
X014876Y021525D02*
X015014Y021525D01*
X015113Y021623D02*
X014778Y021623D01*
X014679Y021722D02*
X015211Y021722D01*
X016696Y020934D02*
X017195Y020934D01*
X017096Y021032D02*
X016794Y021032D01*
X016893Y021131D02*
X016998Y021131D01*
X016995Y021229D02*
X016895Y021229D01*
X017395Y021229D02*
X017495Y021229D01*
X017495Y021131D02*
X017395Y021131D01*
X017395Y021032D02*
X017495Y021032D01*
X017495Y020934D02*
X017395Y020934D01*
X017259Y020769D02*
X016995Y020506D01*
X016995Y020133D01*
X017259Y019869D01*
X017632Y019869D01*
X017895Y020133D01*
X017895Y020506D01*
X017632Y020769D01*
X017259Y020769D01*
X017226Y020737D02*
X016664Y020737D01*
X016763Y020638D02*
X017128Y020638D01*
X017029Y020540D02*
X016861Y020540D01*
X016895Y020441D02*
X016995Y020441D01*
X016995Y020343D02*
X016895Y020343D01*
X016895Y020244D02*
X016995Y020244D01*
X016995Y020146D02*
X016895Y020146D01*
X016809Y020047D02*
X017081Y020047D01*
X017180Y019949D02*
X016711Y019949D01*
X015740Y019949D02*
X015711Y019949D01*
X015495Y019949D02*
X015395Y019949D01*
X015395Y019869D02*
X015259Y019869D01*
X014995Y020133D01*
X014995Y020269D01*
X015395Y020269D01*
X015395Y019869D01*
X015395Y020047D02*
X015495Y020047D01*
X015495Y020146D02*
X015395Y020146D01*
X015395Y020244D02*
X015495Y020244D01*
X015180Y019949D02*
X014711Y019949D01*
X014809Y020047D02*
X015081Y020047D01*
X014995Y020146D02*
X014895Y020146D01*
X014895Y020244D02*
X014995Y020244D01*
X017664Y020737D02*
X018226Y020737D01*
X018259Y020769D02*
X017995Y020506D01*
X017995Y020133D01*
X018259Y019869D01*
X018632Y019869D01*
X018895Y020133D01*
X018895Y020506D01*
X018632Y020769D01*
X018259Y020769D01*
X018195Y020934D02*
X017696Y020934D01*
X017794Y021032D02*
X018096Y021032D01*
X017998Y021131D02*
X017893Y021131D01*
X017895Y021229D02*
X017995Y021229D01*
X018128Y020638D02*
X017763Y020638D01*
X017861Y020540D02*
X018029Y020540D01*
X017995Y020441D02*
X017895Y020441D01*
X017895Y020343D02*
X017995Y020343D01*
X017995Y020244D02*
X017895Y020244D01*
X017895Y020146D02*
X017995Y020146D01*
X018081Y020047D02*
X017809Y020047D01*
X017711Y019949D02*
X018180Y019949D01*
X018711Y019949D02*
X019180Y019949D01*
X019081Y020047D02*
X018809Y020047D01*
X018895Y020146D02*
X018995Y020146D01*
X018995Y020244D02*
X018895Y020244D01*
X018895Y020343D02*
X018995Y020343D01*
X018995Y020441D02*
X018895Y020441D01*
X018861Y020540D02*
X019029Y020540D01*
X019128Y020638D02*
X018763Y020638D01*
X018664Y020737D02*
X019226Y020737D01*
X019195Y020934D02*
X018696Y020934D01*
X018794Y021032D02*
X019096Y021032D01*
X018998Y021131D02*
X018893Y021131D01*
X018895Y021229D02*
X018995Y021229D01*
X019395Y021229D02*
X019495Y021229D01*
X019495Y021131D02*
X019395Y021131D01*
X019395Y021032D02*
X019495Y021032D01*
X019495Y020934D02*
X019395Y020934D01*
X019763Y020638D02*
X020128Y020638D01*
X020029Y020540D02*
X019861Y020540D01*
X019895Y020441D02*
X019995Y020441D01*
X019995Y020343D02*
X019895Y020343D01*
X019895Y020244D02*
X019995Y020244D01*
X019995Y020146D02*
X019895Y020146D01*
X019809Y020047D02*
X020081Y020047D01*
X020180Y019949D02*
X019711Y019949D01*
X019876Y021525D02*
X020014Y021525D01*
X020113Y021623D02*
X019778Y021623D01*
X019679Y021722D02*
X020211Y021722D01*
X019495Y021722D02*
X019395Y021722D01*
X019395Y021623D02*
X019495Y021623D01*
X019495Y021525D02*
X019395Y021525D01*
X000854Y019752D02*
X000300Y019752D01*
X000300Y019850D02*
X000737Y019850D01*
X000619Y019949D02*
X000300Y019949D01*
X000300Y020047D02*
X000529Y020047D01*
X000472Y020146D02*
X000300Y020146D01*
X000300Y020244D02*
X000415Y020244D01*
X000358Y020343D02*
X000300Y020343D01*
X000300Y020441D02*
X000324Y020441D01*
X000307Y020540D02*
X000300Y020540D01*
D14*
X003430Y020304D02*
X003430Y019590D01*
X003590Y019430D01*
X011190Y019430D01*
X011270Y019510D01*
X011350Y019430D01*
X015670Y019430D01*
X015910Y019190D01*
X015910Y016150D01*
X016390Y015670D01*
X017270Y015670D01*
X018550Y014390D01*
X018790Y014390D01*
X018790Y014950D02*
X018470Y014950D01*
X017470Y015950D01*
X016450Y015950D01*
X016150Y016250D01*
X016150Y019450D01*
X015950Y019650D01*
X015950Y021050D01*
X016219Y021319D01*
X016445Y021319D01*
X016445Y020319D02*
X016450Y020315D01*
X016450Y016350D01*
X016587Y016213D01*
X017687Y016213D01*
X018390Y015510D01*
X018790Y015510D01*
X011449Y019689D02*
X011449Y020315D01*
X011445Y020319D01*
X011449Y019689D02*
X011270Y019510D01*
X003445Y020319D02*
X003430Y020304D01*
X005510Y009270D02*
X005450Y009210D01*
X005450Y008470D01*
X008390Y009350D02*
X009110Y009350D01*
X009250Y009210D01*
X009250Y008470D01*
D15*
X008390Y009350D03*
X006310Y009270D03*
X004950Y010950D03*
X004950Y011510D03*
X003350Y004550D03*
X018790Y014390D03*
X018790Y014950D03*
X018790Y015510D03*
X020780Y014559D03*
D16*
X004445Y021319D02*
X003445Y021319D01*
D17*
X004950Y011510D02*
X005270Y011510D01*
X005350Y011430D01*
X008310Y011430D01*
X007830Y010950D02*
X004950Y010950D01*
X005510Y009270D02*
X006310Y009270D01*
D18*
X007830Y010950D03*
X008310Y011430D03*
X008870Y010710D03*
M02*
