G75*
%MOIN*%
%OFA0B0*%
%FSLAX24Y24*%
%IPPOS*%
%LPD*%
%AMOC8*
5,1,8,0,0,1.08239X$1,22.5*
%
%ADD10C,0.1142*%
%ADD11R,0.0640X0.0640*%
%ADD12OC8,0.0640*%
%ADD13R,0.0906X0.0276*%
%ADD14R,0.0552X0.0670*%
%ADD15R,0.0280X0.0640*%
%ADD16R,0.0434X0.0473*%
%ADD17R,0.0827X0.0355*%
%ADD18R,0.0355X0.0394*%
%ADD19R,0.0355X0.0434*%
%ADD20C,0.0355*%
%ADD21R,0.1024X0.0276*%
D10*
X001528Y001528D03*
X001528Y020819D03*
X024363Y020819D03*
X024363Y001528D03*
D11*
X003445Y020319D03*
D12*
X004445Y020319D03*
X005445Y020319D03*
X006445Y020319D03*
X007445Y020319D03*
X008445Y020319D03*
X009445Y020319D03*
X010445Y020319D03*
X011445Y020319D03*
X012445Y020319D03*
X013445Y020319D03*
X014445Y020319D03*
X015445Y020319D03*
X016445Y020319D03*
X017445Y020319D03*
X018445Y020319D03*
X019445Y020319D03*
X020445Y020319D03*
X021445Y020319D03*
X022445Y020319D03*
X022445Y021319D03*
X021445Y021319D03*
X020445Y021319D03*
X019445Y021319D03*
X018445Y021319D03*
X017445Y021319D03*
X016445Y021319D03*
X015445Y021319D03*
X014445Y021319D03*
X013445Y021319D03*
X012445Y021319D03*
X011445Y021319D03*
X010445Y021319D03*
X009445Y021319D03*
X008445Y021319D03*
X007445Y021319D03*
X006445Y021319D03*
X005445Y021319D03*
X004445Y021319D03*
X003445Y021319D03*
X023569Y011855D03*
X024569Y011855D03*
D13*
X024506Y014069D03*
X024506Y014569D03*
X024506Y015069D03*
X024506Y015569D03*
X021884Y015569D03*
X021884Y015069D03*
X021884Y014569D03*
X021884Y014069D03*
D14*
X021821Y012944D03*
X022569Y012944D03*
X023802Y012944D03*
X024589Y012944D03*
X024569Y016694D03*
X023821Y016694D03*
X023821Y017694D03*
X024569Y017694D03*
D15*
X008850Y012240D03*
X008350Y012240D03*
X007850Y012240D03*
X007350Y012240D03*
X006850Y012240D03*
X006350Y012240D03*
X005850Y012240D03*
X005850Y010090D03*
X006350Y010090D03*
X006850Y010090D03*
X007350Y010090D03*
X007850Y010090D03*
X008350Y010090D03*
X008850Y010090D03*
D16*
X007950Y008765D03*
X007950Y008095D03*
X006750Y008095D03*
X006750Y008765D03*
D17*
X002257Y005727D03*
X002257Y004546D03*
X002257Y003955D03*
D18*
X001873Y003374D03*
X001873Y006366D03*
D19*
X000987Y006346D03*
X000987Y003394D03*
D20*
X001430Y004279D03*
X001430Y005461D03*
D21*
X003630Y009812D03*
X003630Y010206D03*
X003630Y010599D03*
X003630Y010993D03*
X003630Y011387D03*
X003630Y011781D03*
X003630Y012174D03*
X003630Y012568D03*
M02*
