G75*
%MOIN*%
%OFA0B0*%
%FSLAX24Y24*%
%IPPOS*%
%LPD*%
%AMOC8*
5,1,8,0,0,1.08239X$1,22.5*
%
%ADD10C,0.0020*%
%ADD11C,0.0060*%
%ADD12C,0.0050*%
D10*
X006000Y007670D02*
X008700Y007670D01*
X008700Y007970D02*
X006000Y007970D01*
X005962Y007971D01*
X005925Y007976D01*
X005888Y007983D01*
X005852Y007992D01*
X005816Y008005D01*
X005782Y008020D01*
X005339Y008920D02*
X005371Y008965D01*
X005407Y009007D01*
X005446Y009047D01*
X005488Y009084D01*
X005531Y009118D01*
X005578Y009149D01*
X005626Y009177D01*
X005676Y009201D01*
X005727Y009222D01*
X005780Y009239D01*
X005834Y009253D01*
X005889Y009262D01*
X005944Y009268D01*
X006000Y009270D01*
X008700Y009270D01*
X008700Y008970D02*
X006000Y008970D01*
X005962Y008969D01*
X005925Y008964D01*
X005888Y008957D01*
X005852Y008948D01*
X005816Y008935D01*
X005782Y008920D01*
X005339Y008020D02*
X005371Y007975D01*
X005407Y007933D01*
X005446Y007893D01*
X005487Y007856D01*
X005531Y007822D01*
X005578Y007791D01*
X005626Y007763D01*
X005676Y007739D01*
X005727Y007718D01*
X005780Y007701D01*
X005834Y007687D01*
X005889Y007678D01*
X005944Y007672D01*
X006000Y007670D01*
X006950Y008470D02*
X007100Y008470D01*
X007600Y008470D02*
X007750Y008470D01*
X008700Y009270D02*
X008756Y009268D01*
X008811Y009262D01*
X008866Y009253D01*
X008920Y009239D01*
X008973Y009222D01*
X009024Y009201D01*
X009074Y009177D01*
X009122Y009149D01*
X009169Y009118D01*
X009213Y009084D01*
X009254Y009047D01*
X009293Y009007D01*
X009329Y008965D01*
X009361Y008920D01*
X009361Y008020D02*
X009329Y007975D01*
X009293Y007933D01*
X009254Y007893D01*
X009212Y007856D01*
X009169Y007822D01*
X009122Y007791D01*
X009074Y007763D01*
X009024Y007739D01*
X008973Y007718D01*
X008920Y007701D01*
X008866Y007687D01*
X008811Y007678D01*
X008756Y007672D01*
X008700Y007670D01*
X008700Y007970D02*
X008738Y007971D01*
X008775Y007976D01*
X008812Y007983D01*
X008848Y007992D01*
X008884Y008005D01*
X008918Y008020D01*
X008918Y008920D02*
X008884Y008935D01*
X008848Y008948D01*
X008812Y008957D01*
X008775Y008964D01*
X008738Y008969D01*
X008700Y008970D01*
D11*
X009500Y009420D02*
X009517Y009418D01*
X009534Y009414D01*
X009550Y009407D01*
X009564Y009397D01*
X009577Y009384D01*
X009587Y009370D01*
X009594Y009354D01*
X009598Y009337D01*
X009600Y009320D01*
X009600Y008920D01*
X009500Y009420D02*
X005200Y009420D01*
X005183Y009418D01*
X005166Y009414D01*
X005150Y009407D01*
X005136Y009397D01*
X005123Y009384D01*
X005113Y009370D01*
X005106Y009354D01*
X005102Y009337D01*
X005100Y009320D01*
X005100Y008920D01*
X005100Y008020D02*
X005100Y007620D01*
X005102Y007603D01*
X005106Y007586D01*
X005113Y007570D01*
X005123Y007556D01*
X005136Y007543D01*
X005150Y007533D01*
X005166Y007526D01*
X005183Y007522D01*
X005200Y007520D01*
X009500Y007520D01*
X009517Y007522D01*
X009534Y007526D01*
X009550Y007533D01*
X009564Y007543D01*
X009577Y007556D01*
X009587Y007570D01*
X009594Y007586D01*
X009598Y007603D01*
X009600Y007620D01*
X009600Y008020D01*
X007600Y008220D02*
X007600Y008470D01*
X007600Y008720D01*
X007450Y008720D02*
X007450Y008220D01*
X007250Y008220D01*
X007250Y008720D01*
X007450Y008720D01*
X007100Y008720D02*
X007100Y008470D01*
X007100Y008220D01*
D12*
X005535Y006895D02*
X005235Y006895D01*
X005535Y006895D02*
X005235Y007195D01*
X005235Y007270D01*
X005310Y007345D01*
X005460Y007345D01*
X005535Y007270D01*
X005696Y007270D02*
X005696Y006970D01*
X005771Y006895D01*
X005921Y006895D01*
X005996Y006970D01*
X005996Y007270D01*
X005921Y007345D01*
X005771Y007345D01*
X005696Y007270D01*
X005846Y007045D02*
X005696Y006895D01*
M02*
