G75*
%MOIN*%
%OFA0B0*%
%FSLAX24Y24*%
%IPPOS*%
%LPD*%
%AMOC8*
5,1,8,0,0,1.08239X$1,22.5*
%
%ADD10C,0.0000*%
D10*
X017473Y001725D02*
X017473Y007630D01*
X017867Y008024D02*
X017906Y008022D01*
X017944Y008016D01*
X017981Y008007D01*
X018018Y007994D01*
X018053Y007977D01*
X018086Y007958D01*
X018117Y007935D01*
X018146Y007909D01*
X018172Y007880D01*
X018195Y007849D01*
X018214Y007816D01*
X018231Y007781D01*
X018244Y007744D01*
X018253Y007707D01*
X018259Y007669D01*
X018261Y007630D01*
X018260Y007630D02*
X018260Y001725D01*
X017867Y001331D02*
X017828Y001333D01*
X017790Y001339D01*
X017753Y001348D01*
X017716Y001361D01*
X017681Y001378D01*
X017648Y001397D01*
X017617Y001420D01*
X017588Y001446D01*
X017562Y001475D01*
X017539Y001506D01*
X017520Y001539D01*
X017503Y001574D01*
X017490Y001611D01*
X017481Y001648D01*
X017475Y001686D01*
X017473Y001725D01*
X017867Y001331D02*
X017906Y001333D01*
X017944Y001339D01*
X017981Y001348D01*
X018018Y001361D01*
X018053Y001378D01*
X018086Y001397D01*
X018117Y001420D01*
X018146Y001446D01*
X018172Y001475D01*
X018195Y001506D01*
X018214Y001539D01*
X018231Y001574D01*
X018244Y001611D01*
X018253Y001648D01*
X018259Y001686D01*
X018261Y001725D01*
X017473Y007630D02*
X017475Y007669D01*
X017481Y007707D01*
X017490Y007744D01*
X017503Y007781D01*
X017520Y007816D01*
X017539Y007849D01*
X017562Y007880D01*
X017588Y007909D01*
X017617Y007935D01*
X017648Y007958D01*
X017681Y007977D01*
X017716Y007994D01*
X017753Y008007D01*
X017790Y008016D01*
X017828Y008022D01*
X017867Y008024D01*
M02*
