G75*
%MOIN*%
%OFA0B0*%
%FSLAX24Y24*%
%IPPOS*%
%LPD*%
%AMOC8*
5,1,8,0,0,1.08239X$1,22.5*
%
%ADD10C,0.1142*%
%ADD11R,0.0640X0.0640*%
%ADD12OC8,0.0640*%
%ADD13R,0.2140X0.0800*%
%ADD14C,0.0355*%
D10*
X001528Y001528D03*
X001528Y020819D03*
X024363Y020819D03*
X024363Y001528D03*
D11*
X003445Y020319D03*
D12*
X004445Y020319D03*
X005445Y020319D03*
X006445Y020319D03*
X007445Y020319D03*
X008445Y020319D03*
X009445Y020319D03*
X010445Y020319D03*
X011445Y020319D03*
X012445Y020319D03*
X013445Y020319D03*
X014445Y020319D03*
X015445Y020319D03*
X016445Y020319D03*
X017445Y020319D03*
X018445Y020319D03*
X019445Y020319D03*
X020445Y020319D03*
X021445Y020319D03*
X022445Y020319D03*
X022445Y021319D03*
X021445Y021319D03*
X020445Y021319D03*
X019445Y021319D03*
X018445Y021319D03*
X017445Y021319D03*
X016445Y021319D03*
X015445Y021319D03*
X014445Y021319D03*
X013445Y021319D03*
X012445Y021319D03*
X011445Y021319D03*
X010445Y021319D03*
X009445Y021319D03*
X008445Y021319D03*
X007445Y021319D03*
X006445Y021319D03*
X005445Y021319D03*
X004445Y021319D03*
X003445Y021319D03*
X023569Y011855D03*
X024569Y011855D03*
D13*
X009250Y008470D03*
X005450Y008470D03*
D14*
X001430Y005461D03*
X001430Y004279D03*
M02*
