G75*
%MOIN*%
%OFA0B0*%
%FSLAX24Y24*%
%IPPOS*%
%LPD*%
%AMOC8*
5,1,8,0,0,1.08239X$1,22.5*
%
%ADD10R,0.0866X0.0236*%
%ADD11R,0.0512X0.0630*%
%ADD12R,0.0240X0.0600*%
%ADD13R,0.0394X0.0433*%
%ADD14R,0.0787X0.0315*%
%ADD15R,0.0315X0.0354*%
%ADD16R,0.0315X0.0394*%
%ADD17R,0.0984X0.0236*%
D10*
X021884Y014069D03*
X021884Y014569D03*
X021884Y015069D03*
X021884Y015569D03*
X024506Y015569D03*
X024506Y015069D03*
X024506Y014569D03*
X024506Y014069D03*
D11*
X024589Y012944D03*
X023802Y012944D03*
X022569Y012944D03*
X021821Y012944D03*
X023821Y016694D03*
X024569Y016694D03*
X024569Y017694D03*
X023821Y017694D03*
D12*
X008850Y012240D03*
X008350Y012240D03*
X007850Y012240D03*
X007350Y012240D03*
X006850Y012240D03*
X006350Y012240D03*
X005850Y012240D03*
X005850Y010090D03*
X006350Y010090D03*
X006850Y010090D03*
X007350Y010090D03*
X007850Y010090D03*
X008350Y010090D03*
X008850Y010090D03*
D13*
X007950Y008765D03*
X007950Y008095D03*
X006750Y008095D03*
X006750Y008765D03*
D14*
X002257Y005727D03*
X002257Y004546D03*
X002257Y003955D03*
D15*
X001873Y003374D03*
X001873Y006366D03*
D16*
X000987Y003394D03*
X000987Y006346D03*
D17*
X003630Y009812D03*
X003630Y010206D03*
X003630Y010599D03*
X003630Y010993D03*
X003630Y011387D03*
X003630Y011781D03*
X003630Y012174D03*
X003630Y012568D03*
M02*
