G75*
%MOIN*%
%OFA0B0*%
%FSLAX24Y24*%
%IPPOS*%
%LPD*%
%AMOC8*
5,1,8,0,0,1.08239X$1,22.5*
%
%ADD10C,0.0000*%
%ADD11R,0.0600X0.0600*%
%ADD12OC8,0.0600*%
%ADD13R,0.0866X0.0236*%
%ADD14R,0.0512X0.0630*%
%ADD15R,0.0240X0.0600*%
%ADD16R,0.0394X0.0433*%
%ADD17R,0.0787X0.0315*%
%ADD18R,0.0315X0.0354*%
%ADD19R,0.0315X0.0394*%
%ADD20R,0.0984X0.0236*%
%ADD21C,0.0100*%
%ADD22C,0.0080*%
%ADD23C,0.0160*%
%ADD24C,0.0060*%
%ADD25C,0.0120*%
%ADD26R,0.0413X0.0413*%
%ADD27R,0.0356X0.0356*%
D10*
X000150Y001331D02*
X000150Y007433D01*
X000152Y007472D01*
X000158Y007510D01*
X000167Y007547D01*
X000180Y007584D01*
X000197Y007619D01*
X000216Y007652D01*
X000239Y007683D01*
X000265Y007712D01*
X000294Y007738D01*
X000325Y007761D01*
X000358Y007780D01*
X000393Y007797D01*
X000430Y007810D01*
X000467Y007819D01*
X000505Y007825D01*
X000544Y007827D01*
X001725Y007827D01*
X001764Y007829D01*
X001802Y007835D01*
X001839Y007844D01*
X001876Y007857D01*
X001911Y007874D01*
X001944Y007893D01*
X001975Y007916D01*
X002004Y007942D01*
X002030Y007971D01*
X002053Y008002D01*
X002072Y008035D01*
X002089Y008070D01*
X002102Y008107D01*
X002111Y008144D01*
X002117Y008182D01*
X002119Y008221D01*
X002119Y014126D01*
X002117Y014165D01*
X002111Y014203D01*
X002102Y014240D01*
X002089Y014277D01*
X002072Y014312D01*
X002053Y014345D01*
X002030Y014376D01*
X002004Y014405D01*
X001975Y014431D01*
X001944Y014454D01*
X001911Y014473D01*
X001876Y014490D01*
X001839Y014503D01*
X001802Y014512D01*
X001764Y014518D01*
X001725Y014520D01*
X000544Y014520D01*
X000505Y014522D01*
X000467Y014528D01*
X000430Y014537D01*
X000393Y014550D01*
X000358Y014567D01*
X000325Y014586D01*
X000294Y014609D01*
X000265Y014635D01*
X000239Y014664D01*
X000216Y014695D01*
X000197Y014728D01*
X000180Y014763D01*
X000167Y014800D01*
X000158Y014837D01*
X000152Y014875D01*
X000150Y014914D01*
X000150Y021016D01*
X000152Y021082D01*
X000157Y021148D01*
X000167Y021214D01*
X000180Y021279D01*
X000196Y021343D01*
X000216Y021406D01*
X000240Y021468D01*
X000267Y021528D01*
X000297Y021587D01*
X000331Y021644D01*
X000368Y021699D01*
X000408Y021752D01*
X000450Y021803D01*
X000496Y021851D01*
X000544Y021897D01*
X000595Y021939D01*
X000648Y021979D01*
X000703Y022016D01*
X000760Y022050D01*
X000819Y022080D01*
X000879Y022107D01*
X000941Y022131D01*
X001004Y022151D01*
X001068Y022167D01*
X001133Y022180D01*
X001199Y022190D01*
X001265Y022195D01*
X001331Y022197D01*
X024559Y022197D01*
X024625Y022195D01*
X024691Y022190D01*
X024757Y022180D01*
X024822Y022167D01*
X024886Y022151D01*
X024949Y022131D01*
X025011Y022107D01*
X025071Y022080D01*
X025130Y022050D01*
X025187Y022016D01*
X025242Y021979D01*
X025295Y021939D01*
X025346Y021897D01*
X025394Y021851D01*
X025440Y021803D01*
X025482Y021752D01*
X025522Y021699D01*
X025559Y021644D01*
X025593Y021587D01*
X025623Y021528D01*
X025650Y021468D01*
X025674Y021406D01*
X025694Y021343D01*
X025710Y021279D01*
X025723Y021214D01*
X025733Y021148D01*
X025738Y021082D01*
X025740Y021016D01*
X025741Y021016D02*
X025741Y001331D01*
X025740Y001331D02*
X025738Y001265D01*
X025733Y001199D01*
X025723Y001133D01*
X025710Y001068D01*
X025694Y001004D01*
X025674Y000941D01*
X025650Y000879D01*
X025623Y000819D01*
X025593Y000760D01*
X025559Y000703D01*
X025522Y000648D01*
X025482Y000595D01*
X025440Y000544D01*
X025394Y000496D01*
X025346Y000450D01*
X025295Y000408D01*
X025242Y000368D01*
X025187Y000331D01*
X025130Y000297D01*
X025071Y000267D01*
X025011Y000240D01*
X024949Y000216D01*
X024886Y000196D01*
X024822Y000180D01*
X024757Y000167D01*
X024691Y000157D01*
X024625Y000152D01*
X024559Y000150D01*
X001331Y000150D01*
X001265Y000152D01*
X001199Y000157D01*
X001133Y000167D01*
X001068Y000180D01*
X001004Y000196D01*
X000941Y000216D01*
X000879Y000240D01*
X000819Y000267D01*
X000760Y000297D01*
X000703Y000331D01*
X000648Y000368D01*
X000595Y000408D01*
X000544Y000450D01*
X000496Y000496D01*
X000450Y000544D01*
X000408Y000595D01*
X000368Y000648D01*
X000331Y000703D01*
X000297Y000760D01*
X000267Y000819D01*
X000240Y000879D01*
X000216Y000941D01*
X000196Y001004D01*
X000180Y001068D01*
X000167Y001133D01*
X000157Y001199D01*
X000152Y001265D01*
X000150Y001331D01*
X000977Y001528D02*
X000979Y001575D01*
X000985Y001621D01*
X000995Y001667D01*
X001008Y001712D01*
X001026Y001755D01*
X001047Y001797D01*
X001071Y001837D01*
X001099Y001874D01*
X001130Y001909D01*
X001164Y001942D01*
X001200Y001971D01*
X001239Y001997D01*
X001280Y002020D01*
X001323Y002039D01*
X001367Y002055D01*
X001412Y002067D01*
X001458Y002075D01*
X001505Y002079D01*
X001551Y002079D01*
X001598Y002075D01*
X001644Y002067D01*
X001689Y002055D01*
X001733Y002039D01*
X001776Y002020D01*
X001817Y001997D01*
X001856Y001971D01*
X001892Y001942D01*
X001926Y001909D01*
X001957Y001874D01*
X001985Y001837D01*
X002009Y001797D01*
X002030Y001755D01*
X002048Y001712D01*
X002061Y001667D01*
X002071Y001621D01*
X002077Y001575D01*
X002079Y001528D01*
X002077Y001481D01*
X002071Y001435D01*
X002061Y001389D01*
X002048Y001344D01*
X002030Y001301D01*
X002009Y001259D01*
X001985Y001219D01*
X001957Y001182D01*
X001926Y001147D01*
X001892Y001114D01*
X001856Y001085D01*
X001817Y001059D01*
X001776Y001036D01*
X001733Y001017D01*
X001689Y001001D01*
X001644Y000989D01*
X001598Y000981D01*
X001551Y000977D01*
X001505Y000977D01*
X001458Y000981D01*
X001412Y000989D01*
X001367Y001001D01*
X001323Y001017D01*
X001280Y001036D01*
X001239Y001059D01*
X001200Y001085D01*
X001164Y001114D01*
X001130Y001147D01*
X001099Y001182D01*
X001071Y001219D01*
X001047Y001259D01*
X001026Y001301D01*
X001008Y001344D01*
X000995Y001389D01*
X000985Y001435D01*
X000979Y001481D01*
X000977Y001528D01*
X001273Y004279D02*
X001275Y004304D01*
X001281Y004328D01*
X001290Y004350D01*
X001303Y004371D01*
X001319Y004390D01*
X001338Y004406D01*
X001359Y004419D01*
X001381Y004428D01*
X001405Y004434D01*
X001430Y004436D01*
X001455Y004434D01*
X001479Y004428D01*
X001501Y004419D01*
X001522Y004406D01*
X001541Y004390D01*
X001557Y004371D01*
X001570Y004350D01*
X001579Y004328D01*
X001585Y004304D01*
X001587Y004279D01*
X001585Y004254D01*
X001579Y004230D01*
X001570Y004208D01*
X001557Y004187D01*
X001541Y004168D01*
X001522Y004152D01*
X001501Y004139D01*
X001479Y004130D01*
X001455Y004124D01*
X001430Y004122D01*
X001405Y004124D01*
X001381Y004130D01*
X001359Y004139D01*
X001338Y004152D01*
X001319Y004168D01*
X001303Y004187D01*
X001290Y004208D01*
X001281Y004230D01*
X001275Y004254D01*
X001273Y004279D01*
X001273Y005461D02*
X001275Y005486D01*
X001281Y005510D01*
X001290Y005532D01*
X001303Y005553D01*
X001319Y005572D01*
X001338Y005588D01*
X001359Y005601D01*
X001381Y005610D01*
X001405Y005616D01*
X001430Y005618D01*
X001455Y005616D01*
X001479Y005610D01*
X001501Y005601D01*
X001522Y005588D01*
X001541Y005572D01*
X001557Y005553D01*
X001570Y005532D01*
X001579Y005510D01*
X001585Y005486D01*
X001587Y005461D01*
X001585Y005436D01*
X001579Y005412D01*
X001570Y005390D01*
X001557Y005369D01*
X001541Y005350D01*
X001522Y005334D01*
X001501Y005321D01*
X001479Y005312D01*
X001455Y005306D01*
X001430Y005304D01*
X001405Y005306D01*
X001381Y005312D01*
X001359Y005321D01*
X001338Y005334D01*
X001319Y005350D01*
X001303Y005369D01*
X001290Y005390D01*
X001281Y005412D01*
X001275Y005436D01*
X001273Y005461D01*
X017473Y007630D02*
X017473Y001725D01*
X017475Y001686D01*
X017481Y001648D01*
X017490Y001611D01*
X017503Y001574D01*
X017520Y001539D01*
X017539Y001506D01*
X017562Y001475D01*
X017588Y001446D01*
X017617Y001420D01*
X017648Y001397D01*
X017681Y001378D01*
X017716Y001361D01*
X017753Y001348D01*
X017790Y001339D01*
X017828Y001333D01*
X017867Y001331D01*
X017906Y001333D01*
X017944Y001339D01*
X017981Y001348D01*
X018018Y001361D01*
X018053Y001378D01*
X018086Y001397D01*
X018117Y001420D01*
X018146Y001446D01*
X018172Y001475D01*
X018195Y001506D01*
X018214Y001539D01*
X018231Y001574D01*
X018244Y001611D01*
X018253Y001648D01*
X018259Y001686D01*
X018261Y001725D01*
X018260Y001725D02*
X018260Y007630D01*
X017867Y008024D02*
X017828Y008022D01*
X017790Y008016D01*
X017753Y008007D01*
X017716Y007994D01*
X017681Y007977D01*
X017648Y007958D01*
X017617Y007935D01*
X017588Y007909D01*
X017562Y007880D01*
X017539Y007849D01*
X017520Y007816D01*
X017503Y007781D01*
X017490Y007744D01*
X017481Y007707D01*
X017475Y007669D01*
X017473Y007630D01*
X017867Y008024D02*
X017906Y008022D01*
X017944Y008016D01*
X017981Y008007D01*
X018018Y007994D01*
X018053Y007977D01*
X018086Y007958D01*
X018117Y007935D01*
X018146Y007909D01*
X018172Y007880D01*
X018195Y007849D01*
X018214Y007816D01*
X018231Y007781D01*
X018244Y007744D01*
X018253Y007707D01*
X018259Y007669D01*
X018261Y007630D01*
X023812Y001528D02*
X023814Y001575D01*
X023820Y001621D01*
X023830Y001667D01*
X023843Y001712D01*
X023861Y001755D01*
X023882Y001797D01*
X023906Y001837D01*
X023934Y001874D01*
X023965Y001909D01*
X023999Y001942D01*
X024035Y001971D01*
X024074Y001997D01*
X024115Y002020D01*
X024158Y002039D01*
X024202Y002055D01*
X024247Y002067D01*
X024293Y002075D01*
X024340Y002079D01*
X024386Y002079D01*
X024433Y002075D01*
X024479Y002067D01*
X024524Y002055D01*
X024568Y002039D01*
X024611Y002020D01*
X024652Y001997D01*
X024691Y001971D01*
X024727Y001942D01*
X024761Y001909D01*
X024792Y001874D01*
X024820Y001837D01*
X024844Y001797D01*
X024865Y001755D01*
X024883Y001712D01*
X024896Y001667D01*
X024906Y001621D01*
X024912Y001575D01*
X024914Y001528D01*
X024912Y001481D01*
X024906Y001435D01*
X024896Y001389D01*
X024883Y001344D01*
X024865Y001301D01*
X024844Y001259D01*
X024820Y001219D01*
X024792Y001182D01*
X024761Y001147D01*
X024727Y001114D01*
X024691Y001085D01*
X024652Y001059D01*
X024611Y001036D01*
X024568Y001017D01*
X024524Y001001D01*
X024479Y000989D01*
X024433Y000981D01*
X024386Y000977D01*
X024340Y000977D01*
X024293Y000981D01*
X024247Y000989D01*
X024202Y001001D01*
X024158Y001017D01*
X024115Y001036D01*
X024074Y001059D01*
X024035Y001085D01*
X023999Y001114D01*
X023965Y001147D01*
X023934Y001182D01*
X023906Y001219D01*
X023882Y001259D01*
X023861Y001301D01*
X023843Y001344D01*
X023830Y001389D01*
X023820Y001435D01*
X023814Y001481D01*
X023812Y001528D01*
X023812Y020819D02*
X023814Y020866D01*
X023820Y020912D01*
X023830Y020958D01*
X023843Y021003D01*
X023861Y021046D01*
X023882Y021088D01*
X023906Y021128D01*
X023934Y021165D01*
X023965Y021200D01*
X023999Y021233D01*
X024035Y021262D01*
X024074Y021288D01*
X024115Y021311D01*
X024158Y021330D01*
X024202Y021346D01*
X024247Y021358D01*
X024293Y021366D01*
X024340Y021370D01*
X024386Y021370D01*
X024433Y021366D01*
X024479Y021358D01*
X024524Y021346D01*
X024568Y021330D01*
X024611Y021311D01*
X024652Y021288D01*
X024691Y021262D01*
X024727Y021233D01*
X024761Y021200D01*
X024792Y021165D01*
X024820Y021128D01*
X024844Y021088D01*
X024865Y021046D01*
X024883Y021003D01*
X024896Y020958D01*
X024906Y020912D01*
X024912Y020866D01*
X024914Y020819D01*
X024912Y020772D01*
X024906Y020726D01*
X024896Y020680D01*
X024883Y020635D01*
X024865Y020592D01*
X024844Y020550D01*
X024820Y020510D01*
X024792Y020473D01*
X024761Y020438D01*
X024727Y020405D01*
X024691Y020376D01*
X024652Y020350D01*
X024611Y020327D01*
X024568Y020308D01*
X024524Y020292D01*
X024479Y020280D01*
X024433Y020272D01*
X024386Y020268D01*
X024340Y020268D01*
X024293Y020272D01*
X024247Y020280D01*
X024202Y020292D01*
X024158Y020308D01*
X024115Y020327D01*
X024074Y020350D01*
X024035Y020376D01*
X023999Y020405D01*
X023965Y020438D01*
X023934Y020473D01*
X023906Y020510D01*
X023882Y020550D01*
X023861Y020592D01*
X023843Y020635D01*
X023830Y020680D01*
X023820Y020726D01*
X023814Y020772D01*
X023812Y020819D01*
X000977Y020819D02*
X000979Y020866D01*
X000985Y020912D01*
X000995Y020958D01*
X001008Y021003D01*
X001026Y021046D01*
X001047Y021088D01*
X001071Y021128D01*
X001099Y021165D01*
X001130Y021200D01*
X001164Y021233D01*
X001200Y021262D01*
X001239Y021288D01*
X001280Y021311D01*
X001323Y021330D01*
X001367Y021346D01*
X001412Y021358D01*
X001458Y021366D01*
X001505Y021370D01*
X001551Y021370D01*
X001598Y021366D01*
X001644Y021358D01*
X001689Y021346D01*
X001733Y021330D01*
X001776Y021311D01*
X001817Y021288D01*
X001856Y021262D01*
X001892Y021233D01*
X001926Y021200D01*
X001957Y021165D01*
X001985Y021128D01*
X002009Y021088D01*
X002030Y021046D01*
X002048Y021003D01*
X002061Y020958D01*
X002071Y020912D01*
X002077Y020866D01*
X002079Y020819D01*
X002077Y020772D01*
X002071Y020726D01*
X002061Y020680D01*
X002048Y020635D01*
X002030Y020592D01*
X002009Y020550D01*
X001985Y020510D01*
X001957Y020473D01*
X001926Y020438D01*
X001892Y020405D01*
X001856Y020376D01*
X001817Y020350D01*
X001776Y020327D01*
X001733Y020308D01*
X001689Y020292D01*
X001644Y020280D01*
X001598Y020272D01*
X001551Y020268D01*
X001505Y020268D01*
X001458Y020272D01*
X001412Y020280D01*
X001367Y020292D01*
X001323Y020308D01*
X001280Y020327D01*
X001239Y020350D01*
X001200Y020376D01*
X001164Y020405D01*
X001130Y020438D01*
X001099Y020473D01*
X001071Y020510D01*
X001047Y020550D01*
X001026Y020592D01*
X001008Y020635D01*
X000995Y020680D01*
X000985Y020726D01*
X000979Y020772D01*
X000977Y020819D01*
D11*
X003445Y020319D03*
D12*
X004445Y020319D03*
X005445Y020319D03*
X006445Y020319D03*
X007445Y020319D03*
X008445Y020319D03*
X009445Y020319D03*
X010445Y020319D03*
X011445Y020319D03*
X012445Y020319D03*
X013445Y020319D03*
X014445Y020319D03*
X015445Y020319D03*
X016445Y020319D03*
X017445Y020319D03*
X018445Y020319D03*
X019445Y020319D03*
X020445Y020319D03*
X021445Y020319D03*
X022445Y020319D03*
X022445Y021319D03*
X021445Y021319D03*
X020445Y021319D03*
X019445Y021319D03*
X018445Y021319D03*
X017445Y021319D03*
X016445Y021319D03*
X015445Y021319D03*
X014445Y021319D03*
X013445Y021319D03*
X012445Y021319D03*
X011445Y021319D03*
X010445Y021319D03*
X009445Y021319D03*
X008445Y021319D03*
X007445Y021319D03*
X006445Y021319D03*
X005445Y021319D03*
X004445Y021319D03*
X003445Y021319D03*
X023569Y011855D03*
X024569Y011855D03*
D13*
X024506Y014069D03*
X024506Y014569D03*
X024506Y015069D03*
X024506Y015569D03*
X021884Y015569D03*
X021884Y015069D03*
X021884Y014569D03*
X021884Y014069D03*
D14*
X021821Y012944D03*
X022569Y012944D03*
X023802Y012944D03*
X024589Y012944D03*
X024569Y016694D03*
X023821Y016694D03*
X023821Y017694D03*
X024569Y017694D03*
D15*
X008850Y012240D03*
X008350Y012240D03*
X007850Y012240D03*
X007350Y012240D03*
X006850Y012240D03*
X006350Y012240D03*
X005850Y012240D03*
X005850Y010090D03*
X006350Y010090D03*
X006850Y010090D03*
X007350Y010090D03*
X007850Y010090D03*
X008350Y010090D03*
X008850Y010090D03*
D16*
X007950Y008765D03*
X007950Y008095D03*
X006750Y008095D03*
X006750Y008765D03*
D17*
X002257Y005727D03*
X002257Y004546D03*
X002257Y003955D03*
D18*
X001873Y003374D03*
X001873Y006366D03*
D19*
X000987Y006346D03*
X000987Y003394D03*
D20*
X003630Y009812D03*
X003630Y010206D03*
X003630Y010599D03*
X003630Y010993D03*
X003630Y011387D03*
X003630Y011781D03*
X003630Y012174D03*
X003630Y012568D03*
D21*
X004184Y012836D02*
X003076Y012836D01*
X003018Y012778D01*
X002881Y012778D01*
X002623Y012520D01*
X002500Y012397D01*
X002500Y010783D01*
X002623Y010660D01*
X002725Y010558D01*
X002480Y010312D01*
X002480Y009427D01*
X002597Y009310D01*
X002860Y009047D01*
X002860Y005363D01*
X002567Y005070D01*
X000877Y005070D01*
X000760Y004953D01*
X000700Y004893D01*
X000700Y004873D01*
X000690Y004863D01*
X000690Y004127D01*
X000807Y004010D01*
X001077Y003740D01*
X000767Y003740D01*
X000680Y003653D01*
X000680Y003135D01*
X000767Y003047D01*
X001207Y003047D01*
X001295Y003135D01*
X001295Y003640D01*
X001592Y003640D01*
X001565Y003613D01*
X001565Y003135D01*
X001653Y003047D01*
X002093Y003047D01*
X002180Y003135D01*
X002180Y003613D01*
X002146Y003648D01*
X002713Y003648D01*
X002800Y003736D01*
X002800Y004175D01*
X002725Y004251D01*
X002790Y004316D01*
X002993Y004316D01*
X002993Y004281D01*
X003081Y004193D01*
X003619Y004193D01*
X003707Y004281D01*
X003707Y004819D01*
X003619Y004907D01*
X003081Y004907D01*
X002993Y004819D01*
X002993Y004776D01*
X002839Y004776D01*
X003260Y005197D01*
X003260Y009213D01*
X002880Y009593D01*
X002880Y010147D01*
X002988Y010254D01*
X002988Y010215D01*
X003621Y010215D01*
X003621Y010197D01*
X002930Y010197D01*
X002988Y010197D02*
X002988Y010068D01*
X002998Y010030D01*
X003010Y010009D01*
X002998Y009988D01*
X002988Y009950D01*
X002988Y009821D01*
X003621Y009821D01*
X003621Y009803D01*
X003639Y009803D01*
X003639Y009544D01*
X004142Y009544D01*
X004180Y009554D01*
X004214Y009574D01*
X004242Y009602D01*
X004262Y009636D01*
X004272Y009674D01*
X004272Y009803D01*
X003639Y009803D01*
X003639Y009821D01*
X004272Y009821D01*
X004272Y009950D01*
X004262Y009988D01*
X004250Y010009D01*
X004262Y010030D01*
X004272Y010068D01*
X004272Y010197D01*
X003639Y010197D01*
X004446Y010197D01*
X004544Y010099D02*
X004272Y010099D01*
X004255Y010000D02*
X004643Y010000D01*
X004660Y009983D02*
X004783Y009860D01*
X005580Y009860D01*
X005580Y009728D01*
X005668Y009640D01*
X006032Y009640D01*
X006100Y009708D01*
X006168Y009640D01*
X006532Y009640D01*
X006600Y009708D01*
X006640Y009668D01*
X006640Y009566D01*
X006579Y009627D01*
X006041Y009627D01*
X005953Y009539D01*
X005953Y009001D01*
X006041Y008913D01*
X006403Y008913D01*
X006403Y008486D01*
X006459Y008430D01*
X006433Y008404D01*
X006413Y008370D01*
X006403Y008332D01*
X006403Y008144D01*
X006702Y008144D01*
X006702Y008047D01*
X006798Y008047D01*
X006798Y007729D01*
X006967Y007729D01*
X007005Y007739D01*
X007039Y007759D01*
X007067Y007787D01*
X007087Y007821D01*
X007097Y007859D01*
X007097Y008047D01*
X006798Y008047D01*
X006798Y008144D01*
X007097Y008144D01*
X007097Y008332D01*
X007087Y008370D01*
X007067Y008404D01*
X007041Y008430D01*
X007097Y008486D01*
X007097Y008694D01*
X007191Y008600D01*
X007603Y008600D01*
X007603Y008486D01*
X007659Y008430D01*
X007633Y008404D01*
X007613Y008370D01*
X007603Y008332D01*
X007603Y008144D01*
X007902Y008144D01*
X007902Y008047D01*
X007998Y008047D01*
X007998Y007729D01*
X008167Y007729D01*
X008205Y007739D01*
X008239Y007759D01*
X008267Y007787D01*
X008287Y007821D01*
X008297Y007859D01*
X008297Y008047D01*
X007998Y008047D01*
X007998Y008144D01*
X008297Y008144D01*
X008297Y008332D01*
X008287Y008370D01*
X008267Y008404D01*
X008241Y008430D01*
X008297Y008486D01*
X008297Y008993D01*
X008659Y008993D01*
X008747Y009081D01*
X008747Y009619D01*
X008726Y009640D01*
X009032Y009640D01*
X009120Y009728D01*
X009120Y010392D01*
X009198Y010470D01*
X009198Y010950D01*
X009110Y011038D01*
X008630Y011038D01*
X008542Y010950D01*
X008542Y010530D01*
X008532Y010540D01*
X008500Y010540D01*
X008500Y011102D01*
X008550Y011102D01*
X008638Y011190D01*
X008638Y011670D01*
X008550Y011758D01*
X008070Y011758D01*
X007982Y011670D01*
X007982Y011278D01*
X007590Y011278D01*
X007502Y011190D01*
X007502Y010775D01*
X007160Y011117D01*
X007037Y011240D01*
X006050Y011240D01*
X006050Y011447D01*
X006093Y011490D01*
X006379Y011490D01*
X006490Y011601D01*
X006540Y011651D01*
X006540Y011798D01*
X006600Y011858D01*
X006668Y011790D01*
X007032Y011790D01*
X007100Y011858D01*
X007168Y011790D01*
X007532Y011790D01*
X007600Y011858D01*
X007668Y011790D01*
X008032Y011790D01*
X008100Y011858D01*
X008168Y011790D01*
X008532Y011790D01*
X008600Y011858D01*
X008668Y011790D01*
X009032Y011790D01*
X009120Y011878D01*
X009120Y012602D01*
X009032Y012690D01*
X008668Y012690D01*
X008600Y012622D01*
X008532Y012690D01*
X008168Y012690D01*
X008100Y012622D01*
X008032Y012690D01*
X007668Y012690D01*
X007600Y012622D01*
X007550Y012672D01*
X007550Y019587D01*
X007593Y019630D01*
X007913Y019630D01*
X008073Y019790D01*
X008190Y019907D01*
X008190Y019938D01*
X008259Y019869D01*
X008632Y019869D01*
X008895Y020133D01*
X008895Y020506D01*
X008632Y020769D01*
X008259Y020769D01*
X008190Y020700D01*
X008190Y020793D01*
X008073Y020910D01*
X007873Y021110D01*
X007895Y021133D01*
X007895Y021506D01*
X007632Y021769D01*
X007259Y021769D01*
X006995Y021506D01*
X006995Y021133D01*
X007259Y020869D01*
X007548Y020869D01*
X007790Y020627D01*
X007790Y020611D01*
X007632Y020769D01*
X007495Y020769D01*
X007495Y020369D01*
X007395Y020369D01*
X007395Y020769D01*
X007259Y020769D01*
X007150Y020660D01*
X007150Y020897D01*
X006895Y021152D01*
X006895Y021506D01*
X006632Y021769D01*
X006259Y021769D01*
X005995Y021506D01*
X005995Y021133D01*
X006259Y020869D01*
X006612Y020869D01*
X006750Y020732D01*
X006750Y020651D01*
X006632Y020769D01*
X006259Y020769D01*
X005995Y020506D01*
X005995Y020133D01*
X006259Y019869D01*
X006632Y019869D01*
X006750Y019988D01*
X006750Y019747D01*
X006787Y019710D01*
X003650Y019710D01*
X003650Y019869D01*
X003807Y019869D01*
X003895Y019957D01*
X003895Y020681D01*
X003807Y020769D01*
X003083Y020769D01*
X002995Y020681D01*
X002995Y019957D01*
X003083Y019869D01*
X003250Y019869D01*
X003250Y019487D01*
X003367Y019370D01*
X003427Y019310D01*
X006647Y019310D01*
X006670Y019287D01*
X006670Y013193D01*
X006150Y012673D01*
X006150Y012672D01*
X006097Y012619D01*
X006090Y012632D01*
X006062Y012660D01*
X006028Y012680D01*
X005990Y012690D01*
X005860Y012690D01*
X005860Y012250D01*
X005840Y012250D01*
X005840Y012690D01*
X005710Y012690D01*
X005672Y012680D01*
X005638Y012660D01*
X005610Y012632D01*
X005590Y012598D01*
X005580Y012560D01*
X005580Y012250D01*
X005840Y012250D01*
X005840Y012230D01*
X005580Y012230D01*
X005580Y011920D01*
X005590Y011882D01*
X005610Y011848D01*
X005638Y011820D01*
X005672Y011800D01*
X005710Y011790D01*
X005827Y011790D01*
X005650Y011613D01*
X005650Y010887D01*
X005640Y010877D01*
X005640Y010703D01*
X005650Y010693D01*
X005650Y010522D01*
X005580Y010452D01*
X005580Y010280D01*
X004957Y010280D01*
X004428Y010809D01*
X004269Y010809D01*
X004272Y010813D01*
X004272Y011039D01*
X004440Y010871D01*
X004551Y010760D01*
X004593Y010760D01*
X004593Y010681D01*
X004681Y010593D01*
X005219Y010593D01*
X005307Y010681D01*
X005307Y011219D01*
X005296Y011230D01*
X005307Y011241D01*
X005307Y011779D01*
X005219Y011867D01*
X004681Y011867D01*
X004593Y011779D01*
X004593Y011710D01*
X004573Y011710D01*
X004420Y011863D01*
X004303Y011980D01*
X004258Y011980D01*
X004272Y011994D01*
X004272Y012354D01*
X004256Y012371D01*
X004272Y012388D01*
X004272Y012748D01*
X004184Y012836D01*
X004262Y012758D02*
X006235Y012758D01*
X006137Y012660D02*
X006063Y012660D01*
X005860Y012660D02*
X005840Y012660D01*
X005840Y012561D02*
X005860Y012561D01*
X005860Y012463D02*
X005840Y012463D01*
X005840Y012364D02*
X005860Y012364D01*
X005860Y012266D02*
X005840Y012266D01*
X005860Y012250D02*
X006080Y012250D01*
X006080Y012230D01*
X005860Y012230D01*
X005860Y012250D01*
X005860Y012230D02*
X005860Y011823D01*
X005840Y011803D01*
X005840Y012230D01*
X005860Y012230D01*
X005860Y012167D02*
X005840Y012167D01*
X005840Y012069D02*
X005860Y012069D01*
X005860Y011970D02*
X005840Y011970D01*
X005840Y011872D02*
X005860Y011872D01*
X005810Y011773D02*
X005307Y011773D01*
X005307Y011675D02*
X005712Y011675D01*
X005650Y011576D02*
X005307Y011576D01*
X005307Y011478D02*
X005650Y011478D01*
X005650Y011379D02*
X005307Y011379D01*
X005307Y011281D02*
X005650Y011281D01*
X005650Y011182D02*
X005307Y011182D01*
X005307Y011084D02*
X005650Y011084D01*
X005650Y010985D02*
X005307Y010985D01*
X005307Y010887D02*
X005650Y010887D01*
X005640Y010788D02*
X005307Y010788D01*
X005307Y010690D02*
X005650Y010690D01*
X005650Y010591D02*
X004646Y010591D01*
X004593Y010690D02*
X004547Y010690D01*
X004523Y010788D02*
X004449Y010788D01*
X004425Y010887D02*
X004272Y010887D01*
X004272Y010985D02*
X004326Y010985D01*
X004490Y011510D02*
X004220Y011780D01*
X003631Y011780D01*
X003630Y011781D01*
X004272Y012069D02*
X005580Y012069D01*
X005580Y012167D02*
X004272Y012167D01*
X004272Y012266D02*
X005580Y012266D01*
X005580Y012364D02*
X004263Y012364D01*
X004272Y012463D02*
X005580Y012463D01*
X005580Y012561D02*
X004272Y012561D01*
X004272Y012660D02*
X005637Y012660D01*
X005580Y011970D02*
X004313Y011970D01*
X004411Y011872D02*
X005596Y011872D01*
X005850Y011530D02*
X005990Y011670D01*
X005850Y011530D02*
X005850Y010790D01*
X005850Y010090D01*
X005580Y010296D02*
X004941Y010296D01*
X004843Y010394D02*
X005580Y010394D01*
X005620Y010493D02*
X004744Y010493D01*
X004347Y010296D02*
X004272Y010296D01*
X004272Y010344D02*
X004262Y010381D01*
X004660Y009983D01*
X004741Y009902D02*
X004272Y009902D01*
X004272Y009705D02*
X005603Y009705D01*
X005580Y009803D02*
X003639Y009803D01*
X003621Y009803D02*
X003621Y009544D01*
X003118Y009544D01*
X003080Y009554D01*
X003046Y009574D01*
X003018Y009602D01*
X002998Y009636D01*
X002988Y009674D01*
X002988Y009803D01*
X003621Y009803D01*
X002880Y009803D01*
X002880Y009705D02*
X002988Y009705D01*
X003015Y009606D02*
X002880Y009606D01*
X002965Y009508D02*
X005953Y009508D01*
X005953Y009409D02*
X003064Y009409D01*
X003162Y009311D02*
X005953Y009311D01*
X005953Y009212D02*
X003260Y009212D01*
X003260Y009114D02*
X005953Y009114D01*
X005953Y009015D02*
X003260Y009015D01*
X003260Y008917D02*
X006038Y008917D01*
X006403Y008818D02*
X003260Y008818D01*
X003260Y008720D02*
X006403Y008720D01*
X006403Y008621D02*
X003260Y008621D01*
X003260Y008523D02*
X006403Y008523D01*
X006453Y008424D02*
X003260Y008424D01*
X003260Y008326D02*
X006403Y008326D01*
X006403Y008227D02*
X003260Y008227D01*
X003260Y008129D02*
X006702Y008129D01*
X006702Y008047D02*
X006403Y008047D01*
X006403Y007859D01*
X006413Y007821D01*
X006433Y007787D01*
X006461Y007759D01*
X006495Y007739D01*
X006533Y007729D01*
X006702Y007729D01*
X006702Y008047D01*
X006702Y008030D02*
X006798Y008030D01*
X006798Y007932D02*
X006702Y007932D01*
X006702Y007833D02*
X006798Y007833D01*
X006798Y007735D02*
X006702Y007735D01*
X006512Y007735D02*
X003260Y007735D01*
X003260Y007833D02*
X006410Y007833D01*
X006403Y007932D02*
X003260Y007932D01*
X003260Y008030D02*
X006403Y008030D01*
X006798Y008129D02*
X007902Y008129D01*
X007902Y008047D02*
X007603Y008047D01*
X007603Y007859D01*
X007613Y007821D01*
X007633Y007787D01*
X007661Y007759D01*
X007695Y007739D01*
X007733Y007729D01*
X007902Y007729D01*
X007902Y008047D01*
X007902Y008030D02*
X007998Y008030D01*
X007998Y007932D02*
X007902Y007932D01*
X007902Y007833D02*
X007998Y007833D01*
X007998Y007735D02*
X007902Y007735D01*
X007712Y007735D02*
X006988Y007735D01*
X007090Y007833D02*
X007610Y007833D01*
X007603Y007932D02*
X007097Y007932D01*
X007097Y008030D02*
X007603Y008030D01*
X007603Y008227D02*
X007097Y008227D01*
X007097Y008326D02*
X007603Y008326D01*
X007653Y008424D02*
X007047Y008424D01*
X007097Y008523D02*
X007603Y008523D01*
X007170Y008621D02*
X007097Y008621D01*
X007998Y008129D02*
X017649Y008129D01*
X017559Y008091D02*
X017758Y008174D01*
X017975Y008174D01*
X018175Y008091D01*
X018175Y008091D01*
X018327Y007938D01*
X018327Y007938D01*
X018410Y007738D01*
X018410Y001617D01*
X018327Y001417D01*
X018327Y001417D01*
X018175Y001264D01*
X018175Y001264D01*
X017975Y001181D01*
X017975Y001181D01*
X017929Y001181D01*
X017758Y001181D01*
X017559Y001264D01*
X017559Y001264D01*
X017406Y001417D01*
X017406Y001417D01*
X017323Y001617D01*
X017323Y007738D01*
X017406Y007938D01*
X017406Y007938D01*
X017559Y008091D01*
X017559Y008091D01*
X017497Y008030D02*
X008297Y008030D01*
X008297Y007932D02*
X017403Y007932D01*
X017362Y007833D02*
X008290Y007833D01*
X008188Y007735D02*
X017323Y007735D01*
X017323Y007636D02*
X003260Y007636D01*
X003260Y007538D02*
X017323Y007538D01*
X017323Y007439D02*
X003260Y007439D01*
X003260Y007341D02*
X017323Y007341D01*
X017323Y007242D02*
X003260Y007242D01*
X003260Y007144D02*
X017323Y007144D01*
X017323Y007045D02*
X003260Y007045D01*
X003260Y006947D02*
X017323Y006947D01*
X017323Y006848D02*
X003260Y006848D01*
X003260Y006750D02*
X017323Y006750D01*
X017323Y006651D02*
X003260Y006651D01*
X003260Y006553D02*
X017323Y006553D01*
X017323Y006454D02*
X003260Y006454D01*
X003260Y006356D02*
X017323Y006356D01*
X017323Y006257D02*
X003260Y006257D01*
X003260Y006159D02*
X017323Y006159D01*
X017323Y006060D02*
X003260Y006060D01*
X003260Y005962D02*
X017323Y005962D01*
X017323Y005863D02*
X003260Y005863D01*
X003260Y005765D02*
X017323Y005765D01*
X017323Y005666D02*
X003260Y005666D01*
X003260Y005568D02*
X017323Y005568D01*
X017323Y005469D02*
X003260Y005469D01*
X003260Y005371D02*
X017323Y005371D01*
X017323Y005272D02*
X003260Y005272D01*
X003236Y005174D02*
X017323Y005174D01*
X017323Y005075D02*
X003138Y005075D01*
X003039Y004977D02*
X017323Y004977D01*
X017323Y004878D02*
X003648Y004878D01*
X003707Y004780D02*
X017323Y004780D01*
X017323Y004681D02*
X003707Y004681D01*
X003707Y004583D02*
X017323Y004583D01*
X017323Y004484D02*
X003707Y004484D01*
X003707Y004386D02*
X017323Y004386D01*
X017323Y004287D02*
X003707Y004287D01*
X002993Y004287D02*
X002761Y004287D01*
X002787Y004189D02*
X017323Y004189D01*
X017323Y004090D02*
X002800Y004090D01*
X002800Y003992D02*
X017323Y003992D01*
X017323Y003893D02*
X002800Y003893D01*
X002800Y003795D02*
X017323Y003795D01*
X017323Y003696D02*
X002761Y003696D01*
X002257Y003955D02*
X001765Y003955D01*
X001650Y003840D01*
X001260Y003840D01*
X000890Y004210D01*
X000890Y004780D01*
X000900Y004780D01*
X000900Y004810D01*
X000960Y004870D01*
X002650Y004870D01*
X003060Y005280D01*
X003060Y009130D01*
X002680Y009510D01*
X002680Y010229D01*
X003050Y010599D01*
X002692Y010591D02*
X002269Y010591D01*
X002269Y010493D02*
X002660Y010493D01*
X002562Y010394D02*
X002269Y010394D01*
X002269Y010296D02*
X002480Y010296D01*
X002480Y010197D02*
X002269Y010197D01*
X002269Y010099D02*
X002480Y010099D01*
X002480Y010000D02*
X002269Y010000D01*
X002269Y009902D02*
X002480Y009902D01*
X002480Y009803D02*
X002269Y009803D01*
X002269Y009705D02*
X002480Y009705D01*
X002480Y009606D02*
X002269Y009606D01*
X002269Y009508D02*
X002480Y009508D01*
X002498Y009409D02*
X002269Y009409D01*
X002269Y009311D02*
X002597Y009311D01*
X002695Y009212D02*
X002269Y009212D01*
X002269Y009114D02*
X002794Y009114D01*
X002860Y009015D02*
X002269Y009015D01*
X002269Y008917D02*
X002860Y008917D01*
X002860Y008818D02*
X002269Y008818D01*
X002269Y008720D02*
X002860Y008720D01*
X002860Y008621D02*
X002269Y008621D01*
X002269Y008523D02*
X002860Y008523D01*
X002860Y008424D02*
X002269Y008424D01*
X002269Y008326D02*
X002860Y008326D01*
X002860Y008227D02*
X002269Y008227D01*
X002269Y008129D02*
X002860Y008129D01*
X002860Y008030D02*
X002234Y008030D01*
X002269Y008113D02*
X002186Y007913D01*
X002186Y007913D01*
X002033Y007760D01*
X002033Y007760D01*
X001833Y007677D01*
X000544Y007677D01*
X000496Y007672D01*
X000408Y007636D01*
X002860Y007636D01*
X002860Y007538D02*
X000328Y007538D01*
X000341Y007569D02*
X000408Y007636D01*
X000341Y007569D02*
X000305Y007481D01*
X000300Y007433D01*
X000300Y001769D01*
X000334Y001962D01*
X000555Y002345D01*
X000893Y002628D01*
X001307Y002779D01*
X001749Y002779D01*
X002163Y002628D01*
X002501Y002345D01*
X002722Y001962D01*
X002798Y001528D01*
X002722Y001093D01*
X002501Y000711D01*
X002163Y000428D01*
X001812Y000300D01*
X024078Y000300D01*
X023727Y000428D01*
X023389Y000711D01*
X023169Y001093D01*
X023092Y001528D01*
X023169Y001962D01*
X023389Y002345D01*
X023727Y002628D01*
X024142Y002779D01*
X024583Y002779D01*
X024998Y002628D01*
X025336Y002345D01*
X025556Y001962D01*
X025591Y001769D01*
X025591Y020578D01*
X025556Y020385D01*
X025336Y020003D01*
X024998Y019719D01*
X024583Y019568D01*
X024142Y019568D01*
X023727Y019719D01*
X023389Y020003D01*
X023169Y020385D01*
X023092Y020819D01*
X023169Y021254D01*
X023389Y021636D01*
X023727Y021920D01*
X024078Y022047D01*
X001812Y022047D01*
X002163Y021920D01*
X002501Y021636D01*
X002722Y021254D01*
X002798Y020819D01*
X002722Y020385D01*
X002501Y020003D01*
X002163Y019719D01*
X001749Y019568D01*
X001307Y019568D01*
X000893Y019719D01*
X000555Y020003D01*
X000334Y020385D01*
X000300Y020578D01*
X000300Y014914D01*
X000305Y014866D01*
X000341Y014778D01*
X000408Y014711D01*
X000496Y014675D01*
X000544Y014670D01*
X001833Y014670D01*
X002033Y014587D01*
X002033Y014587D01*
X002186Y014434D01*
X002186Y014434D01*
X002269Y014235D01*
X002269Y008113D01*
X002193Y007932D02*
X002860Y007932D01*
X002860Y007833D02*
X002106Y007833D01*
X001971Y007735D02*
X002860Y007735D01*
X002860Y007439D02*
X000301Y007439D01*
X000300Y007341D02*
X002860Y007341D01*
X002860Y007242D02*
X000300Y007242D01*
X000300Y007144D02*
X002860Y007144D01*
X002860Y007045D02*
X000300Y007045D01*
X000300Y006947D02*
X002860Y006947D01*
X002860Y006848D02*
X000300Y006848D01*
X000300Y006750D02*
X002860Y006750D01*
X002860Y006651D02*
X002135Y006651D01*
X002093Y006693D02*
X002180Y006605D01*
X002180Y006127D01*
X002093Y006039D01*
X001653Y006039D01*
X001565Y006127D01*
X001565Y006605D01*
X001653Y006693D01*
X002093Y006693D01*
X002180Y006553D02*
X002860Y006553D01*
X002860Y006454D02*
X002180Y006454D01*
X002180Y006356D02*
X002860Y006356D01*
X002860Y006257D02*
X002180Y006257D01*
X002180Y006159D02*
X002860Y006159D01*
X002860Y006060D02*
X002114Y006060D01*
X002228Y006035D02*
X001843Y006035D01*
X001805Y006024D01*
X001771Y006005D01*
X001743Y005977D01*
X001723Y005942D01*
X001713Y005904D01*
X001713Y005756D01*
X002228Y005756D01*
X002228Y006035D01*
X002286Y006035D02*
X002286Y005756D01*
X002800Y005756D01*
X002800Y005904D01*
X002790Y005942D01*
X002771Y005977D01*
X002743Y006005D01*
X002708Y006024D01*
X002670Y006035D01*
X002286Y006035D01*
X002286Y005962D02*
X002228Y005962D01*
X002228Y005863D02*
X002286Y005863D01*
X002286Y005765D02*
X002228Y005765D01*
X002228Y005756D02*
X002286Y005756D01*
X002286Y005698D01*
X002800Y005698D01*
X002800Y005550D01*
X002790Y005512D01*
X002771Y005478D01*
X002743Y005450D01*
X002708Y005430D01*
X002670Y005420D01*
X002286Y005420D01*
X002286Y005698D01*
X002228Y005698D01*
X002228Y005420D01*
X001843Y005420D01*
X001805Y005430D01*
X001771Y005450D01*
X001743Y005478D01*
X001737Y005487D01*
X001737Y005399D01*
X001691Y005286D01*
X001604Y005200D01*
X001491Y005153D01*
X001369Y005153D01*
X001256Y005200D01*
X001169Y005286D01*
X001123Y005399D01*
X001123Y005522D01*
X001169Y005635D01*
X001256Y005721D01*
X001369Y005768D01*
X001491Y005768D01*
X001604Y005721D01*
X001691Y005635D01*
X001713Y005581D01*
X001713Y005698D01*
X002228Y005698D01*
X002228Y005756D01*
X002228Y005666D02*
X002286Y005666D01*
X002286Y005568D02*
X002228Y005568D01*
X002228Y005469D02*
X002286Y005469D01*
X002762Y005469D02*
X002860Y005469D01*
X002860Y005371D02*
X001726Y005371D01*
X001737Y005469D02*
X001752Y005469D01*
X001713Y005666D02*
X001659Y005666D01*
X001713Y005765D02*
X001500Y005765D01*
X001360Y005765D02*
X000300Y005765D01*
X000300Y005863D02*
X001713Y005863D01*
X001734Y005962D02*
X000300Y005962D01*
X000300Y006060D02*
X000707Y006060D01*
X000680Y006087D02*
X000767Y006000D01*
X001207Y006000D01*
X001295Y006087D01*
X001295Y006605D01*
X001207Y006693D01*
X000767Y006693D01*
X000680Y006605D01*
X000680Y006087D01*
X000680Y006159D02*
X000300Y006159D01*
X000300Y006257D02*
X000680Y006257D01*
X000680Y006356D02*
X000300Y006356D01*
X000300Y006454D02*
X000680Y006454D01*
X000680Y006553D02*
X000300Y006553D01*
X000300Y006651D02*
X000725Y006651D01*
X001249Y006651D02*
X001611Y006651D01*
X001565Y006553D02*
X001295Y006553D01*
X001295Y006454D02*
X001565Y006454D01*
X001565Y006356D02*
X001295Y006356D01*
X001295Y006257D02*
X001565Y006257D01*
X001565Y006159D02*
X001295Y006159D01*
X001267Y006060D02*
X001632Y006060D01*
X001201Y005666D02*
X000300Y005666D01*
X000300Y005568D02*
X001141Y005568D01*
X001123Y005469D02*
X000300Y005469D01*
X000300Y005371D02*
X001134Y005371D01*
X001184Y005272D02*
X000300Y005272D01*
X000300Y005174D02*
X001319Y005174D01*
X001541Y005174D02*
X002671Y005174D01*
X002769Y005272D02*
X001676Y005272D01*
X002572Y005075D02*
X000300Y005075D01*
X000300Y004977D02*
X000784Y004977D01*
X000700Y004878D02*
X000300Y004878D01*
X000300Y004780D02*
X000690Y004780D01*
X000690Y004681D02*
X000300Y004681D01*
X000300Y004583D02*
X000690Y004583D01*
X000690Y004484D02*
X000300Y004484D01*
X000300Y004386D02*
X000690Y004386D01*
X000690Y004287D02*
X000300Y004287D01*
X000300Y004189D02*
X000690Y004189D01*
X000727Y004090D02*
X000300Y004090D01*
X000300Y003992D02*
X000826Y003992D01*
X000924Y003893D02*
X000300Y003893D01*
X000300Y003795D02*
X001023Y003795D01*
X000723Y003696D02*
X000300Y003696D01*
X000300Y003598D02*
X000680Y003598D01*
X000680Y003499D02*
X000300Y003499D01*
X000300Y003401D02*
X000680Y003401D01*
X000680Y003302D02*
X000300Y003302D01*
X000300Y003204D02*
X000680Y003204D01*
X000709Y003105D02*
X000300Y003105D01*
X000300Y003007D02*
X017323Y003007D01*
X017323Y003105D02*
X002151Y003105D01*
X002180Y003204D02*
X017323Y003204D01*
X017323Y003302D02*
X002180Y003302D01*
X002180Y003401D02*
X017323Y003401D01*
X017323Y003499D02*
X002180Y003499D01*
X002180Y003598D02*
X017323Y003598D01*
X017323Y002908D02*
X000300Y002908D01*
X000300Y002810D02*
X017323Y002810D01*
X017323Y002711D02*
X001936Y002711D01*
X002182Y002613D02*
X017323Y002613D01*
X017323Y002514D02*
X002299Y002514D01*
X002417Y002416D02*
X017323Y002416D01*
X017323Y002317D02*
X002517Y002317D01*
X002574Y002219D02*
X017323Y002219D01*
X017323Y002120D02*
X002631Y002120D01*
X002688Y002022D02*
X017323Y002022D01*
X017323Y001923D02*
X002729Y001923D01*
X002746Y001825D02*
X017323Y001825D01*
X017323Y001726D02*
X002764Y001726D01*
X002781Y001628D02*
X017323Y001628D01*
X017359Y001529D02*
X002798Y001529D01*
X002781Y001431D02*
X017400Y001431D01*
X017490Y001332D02*
X002764Y001332D01*
X002747Y001234D02*
X017632Y001234D01*
X018101Y001234D02*
X023144Y001234D01*
X023127Y001332D02*
X018243Y001332D01*
X018333Y001431D02*
X023109Y001431D01*
X023092Y001529D02*
X018374Y001529D01*
X018410Y001628D02*
X023110Y001628D01*
X023127Y001726D02*
X018410Y001726D01*
X018410Y001825D02*
X023144Y001825D01*
X023162Y001923D02*
X018410Y001923D01*
X018410Y002022D02*
X023203Y002022D01*
X023260Y002120D02*
X018410Y002120D01*
X018410Y002219D02*
X023317Y002219D01*
X023373Y002317D02*
X018410Y002317D01*
X018410Y002416D02*
X023474Y002416D01*
X023591Y002514D02*
X018410Y002514D01*
X018410Y002613D02*
X023709Y002613D01*
X023955Y002711D02*
X018410Y002711D01*
X018410Y002810D02*
X025591Y002810D01*
X025591Y002908D02*
X018410Y002908D01*
X018410Y003007D02*
X025591Y003007D01*
X025591Y003105D02*
X018410Y003105D01*
X018410Y003204D02*
X025591Y003204D01*
X025591Y003302D02*
X018410Y003302D01*
X018410Y003401D02*
X025591Y003401D01*
X025591Y003499D02*
X018410Y003499D01*
X018410Y003598D02*
X025591Y003598D01*
X025591Y003696D02*
X018410Y003696D01*
X018410Y003795D02*
X025591Y003795D01*
X025591Y003893D02*
X018410Y003893D01*
X018410Y003992D02*
X025591Y003992D01*
X025591Y004090D02*
X018410Y004090D01*
X018410Y004189D02*
X025591Y004189D01*
X025591Y004287D02*
X018410Y004287D01*
X018410Y004386D02*
X025591Y004386D01*
X025591Y004484D02*
X018410Y004484D01*
X018410Y004583D02*
X025591Y004583D01*
X025591Y004681D02*
X018410Y004681D01*
X018410Y004780D02*
X025591Y004780D01*
X025591Y004878D02*
X018410Y004878D01*
X018410Y004977D02*
X025591Y004977D01*
X025591Y005075D02*
X018410Y005075D01*
X018410Y005174D02*
X025591Y005174D01*
X025591Y005272D02*
X018410Y005272D01*
X018410Y005371D02*
X025591Y005371D01*
X025591Y005469D02*
X018410Y005469D01*
X018410Y005568D02*
X025591Y005568D01*
X025591Y005666D02*
X018410Y005666D01*
X018410Y005765D02*
X025591Y005765D01*
X025591Y005863D02*
X018410Y005863D01*
X018410Y005962D02*
X025591Y005962D01*
X025591Y006060D02*
X018410Y006060D01*
X018410Y006159D02*
X025591Y006159D01*
X025591Y006257D02*
X018410Y006257D01*
X018410Y006356D02*
X025591Y006356D01*
X025591Y006454D02*
X018410Y006454D01*
X018410Y006553D02*
X025591Y006553D01*
X025591Y006651D02*
X018410Y006651D01*
X018410Y006750D02*
X025591Y006750D01*
X025591Y006848D02*
X018410Y006848D01*
X018410Y006947D02*
X025591Y006947D01*
X025591Y007045D02*
X018410Y007045D01*
X018410Y007144D02*
X025591Y007144D01*
X025591Y007242D02*
X018410Y007242D01*
X018410Y007341D02*
X025591Y007341D01*
X025591Y007439D02*
X018410Y007439D01*
X018410Y007538D02*
X025591Y007538D01*
X025591Y007636D02*
X018410Y007636D01*
X018410Y007735D02*
X025591Y007735D01*
X025591Y007833D02*
X018371Y007833D01*
X018330Y007932D02*
X025591Y007932D01*
X025591Y008030D02*
X018236Y008030D01*
X018085Y008129D02*
X025591Y008129D01*
X025591Y008227D02*
X008297Y008227D01*
X008297Y008326D02*
X025591Y008326D01*
X025591Y008424D02*
X008247Y008424D01*
X008297Y008523D02*
X025591Y008523D01*
X025591Y008621D02*
X008297Y008621D01*
X008297Y008720D02*
X025591Y008720D01*
X025591Y008818D02*
X008297Y008818D01*
X008297Y008917D02*
X025591Y008917D01*
X025591Y009015D02*
X008681Y009015D01*
X008747Y009114D02*
X025591Y009114D01*
X025591Y009212D02*
X008747Y009212D01*
X008747Y009311D02*
X025591Y009311D01*
X025591Y009409D02*
X008747Y009409D01*
X008747Y009508D02*
X025591Y009508D01*
X025591Y009606D02*
X008747Y009606D01*
X009097Y009705D02*
X025591Y009705D01*
X025591Y009803D02*
X009120Y009803D01*
X009120Y009902D02*
X025591Y009902D01*
X025591Y010000D02*
X009120Y010000D01*
X009120Y010099D02*
X025591Y010099D01*
X025591Y010197D02*
X009120Y010197D01*
X009120Y010296D02*
X025591Y010296D01*
X025591Y010394D02*
X009122Y010394D01*
X009198Y010493D02*
X025591Y010493D01*
X025591Y010591D02*
X009198Y010591D01*
X009198Y010690D02*
X025591Y010690D01*
X025591Y010788D02*
X009198Y010788D01*
X009198Y010887D02*
X025591Y010887D01*
X025591Y010985D02*
X009163Y010985D01*
X008630Y011182D02*
X025591Y011182D01*
X025591Y011084D02*
X008500Y011084D01*
X008500Y010985D02*
X008577Y010985D01*
X008542Y010887D02*
X008500Y010887D01*
X008500Y010788D02*
X008542Y010788D01*
X008542Y010690D02*
X008500Y010690D01*
X008500Y010591D02*
X008542Y010591D01*
X008638Y011281D02*
X025591Y011281D01*
X025591Y011379D02*
X008638Y011379D01*
X008638Y011478D02*
X023310Y011478D01*
X023383Y011405D02*
X023119Y011668D01*
X023119Y011879D01*
X021839Y011879D01*
X021722Y011996D01*
X021621Y012097D01*
X021621Y012479D01*
X021503Y012479D01*
X021415Y012567D01*
X021415Y013321D01*
X021503Y013409D01*
X022136Y013409D01*
X022075Y013470D01*
X021970Y013575D01*
X021970Y013801D01*
X021389Y013801D01*
X021331Y013859D01*
X019664Y013859D01*
X019343Y014180D01*
X019147Y014180D01*
X019147Y014121D01*
X019059Y014033D01*
X018521Y014033D01*
X018433Y014121D01*
X018433Y014659D01*
X018444Y014670D01*
X018433Y014681D01*
X018433Y015219D01*
X018444Y015230D01*
X018433Y015241D01*
X018433Y015779D01*
X018521Y015867D01*
X019059Y015867D01*
X019147Y015779D01*
X019147Y015720D01*
X019183Y015720D01*
X019242Y015779D01*
X021331Y015779D01*
X021389Y015837D01*
X022312Y015837D01*
X022312Y016099D01*
X023100Y016886D01*
X023100Y017255D01*
X023415Y017571D01*
X023415Y018071D01*
X023503Y018159D01*
X024139Y018159D01*
X024195Y018103D01*
X024251Y018159D01*
X024887Y018159D01*
X024975Y018071D01*
X024975Y017317D01*
X024887Y017229D01*
X024799Y017229D01*
X024799Y017159D01*
X024887Y017159D01*
X024975Y017071D01*
X024975Y016317D01*
X024887Y016229D01*
X024840Y016229D01*
X024840Y016143D01*
X024717Y016020D01*
X024557Y015860D01*
X023837Y015860D01*
X023800Y015823D01*
X023800Y014143D01*
X023677Y014020D01*
X023516Y013859D01*
X022438Y013859D01*
X022379Y013801D01*
X022330Y013801D01*
X022330Y013725D01*
X022645Y013409D01*
X022887Y013409D01*
X022967Y013330D01*
X023404Y013330D01*
X023484Y013409D01*
X024120Y013409D01*
X024200Y013329D01*
X024213Y013351D01*
X024241Y013379D01*
X024275Y013399D01*
X024313Y013409D01*
X024539Y013409D01*
X024539Y012994D01*
X024639Y012994D01*
X024995Y012994D01*
X024995Y013279D01*
X024985Y013317D01*
X024965Y013351D01*
X024937Y013379D01*
X024903Y013399D01*
X024865Y013409D01*
X024639Y013409D01*
X024639Y012994D01*
X024639Y012894D01*
X024639Y012479D01*
X024865Y012479D01*
X024903Y012490D01*
X024937Y012509D01*
X024965Y012537D01*
X024985Y012571D01*
X024995Y012610D01*
X024995Y012894D01*
X024639Y012894D01*
X024539Y012894D01*
X024539Y012479D01*
X024313Y012479D01*
X024275Y012490D01*
X024241Y012509D01*
X024213Y012537D01*
X024200Y012560D01*
X024120Y012479D01*
X023484Y012479D01*
X023396Y012567D01*
X023396Y012970D01*
X022975Y012970D01*
X022975Y012567D01*
X022887Y012479D01*
X022251Y012479D01*
X022195Y012535D01*
X022139Y012479D01*
X022021Y012479D01*
X022021Y012279D01*
X023357Y012279D01*
X023383Y012305D01*
X023756Y012305D01*
X024019Y012041D01*
X024019Y011668D01*
X023756Y011405D01*
X023383Y011405D01*
X023212Y011576D02*
X008638Y011576D01*
X008634Y011675D02*
X023119Y011675D01*
X023119Y011773D02*
X006540Y011773D01*
X006540Y011675D02*
X007986Y011675D01*
X007982Y011576D02*
X006465Y011576D01*
X006080Y011478D02*
X007982Y011478D01*
X007982Y011379D02*
X006050Y011379D01*
X006050Y011281D02*
X007982Y011281D01*
X007502Y011182D02*
X007095Y011182D01*
X007193Y011084D02*
X007502Y011084D01*
X007502Y010985D02*
X007292Y010985D01*
X007390Y010887D02*
X007502Y010887D01*
X007489Y010788D02*
X007502Y010788D01*
X006603Y009705D02*
X006597Y009705D01*
X006599Y009606D02*
X006640Y009606D01*
X006103Y009705D02*
X006097Y009705D01*
X006021Y009606D02*
X004245Y009606D01*
X003639Y009606D02*
X003621Y009606D01*
X003621Y009705D02*
X003639Y009705D01*
X003639Y009821D02*
X003621Y009821D01*
X003621Y010080D01*
X003621Y010197D01*
X002988Y010197D01*
X002988Y010099D02*
X002880Y010099D01*
X002880Y010000D02*
X003005Y010000D01*
X002988Y009902D02*
X002880Y009902D01*
X003621Y009902D02*
X003639Y009902D01*
X003639Y009821D02*
X003639Y010197D01*
X003639Y010215D01*
X004272Y010215D01*
X004272Y010344D01*
X003639Y010197D02*
X003621Y010197D01*
X003621Y010099D02*
X003639Y010099D01*
X003639Y010000D02*
X003621Y010000D01*
X002593Y010690D02*
X002269Y010690D01*
X002269Y010788D02*
X002500Y010788D01*
X002500Y010887D02*
X002269Y010887D01*
X002269Y010985D02*
X002500Y010985D01*
X002500Y011084D02*
X002269Y011084D01*
X002269Y011182D02*
X002500Y011182D01*
X002500Y011281D02*
X002269Y011281D01*
X002269Y011379D02*
X002500Y011379D01*
X002500Y011478D02*
X002269Y011478D01*
X002269Y011576D02*
X002500Y011576D01*
X002500Y011675D02*
X002269Y011675D01*
X002269Y011773D02*
X002500Y011773D01*
X002500Y011872D02*
X002269Y011872D01*
X002269Y011970D02*
X002500Y011970D01*
X002500Y012069D02*
X002269Y012069D01*
X002269Y012167D02*
X002500Y012167D01*
X002500Y012266D02*
X002269Y012266D01*
X002269Y012364D02*
X002500Y012364D01*
X002566Y012463D02*
X002269Y012463D01*
X002269Y012561D02*
X002664Y012561D01*
X002763Y012660D02*
X002269Y012660D01*
X002269Y012758D02*
X002861Y012758D01*
X002269Y012857D02*
X006334Y012857D01*
X006432Y012955D02*
X002269Y012955D01*
X002269Y013054D02*
X006531Y013054D01*
X006629Y013152D02*
X002269Y013152D01*
X002269Y013251D02*
X006670Y013251D01*
X006670Y013349D02*
X002269Y013349D01*
X002269Y013448D02*
X006670Y013448D01*
X006670Y013546D02*
X002269Y013546D01*
X002269Y013645D02*
X006670Y013645D01*
X006670Y013743D02*
X002269Y013743D01*
X002269Y013842D02*
X006670Y013842D01*
X006670Y013940D02*
X002269Y013940D01*
X002269Y014039D02*
X006670Y014039D01*
X006670Y014137D02*
X002269Y014137D01*
X002268Y014236D02*
X006670Y014236D01*
X006670Y014334D02*
X002227Y014334D01*
X002186Y014433D02*
X006670Y014433D01*
X006670Y014531D02*
X002089Y014531D01*
X001931Y014630D02*
X006670Y014630D01*
X006670Y014728D02*
X000391Y014728D01*
X000321Y014827D02*
X006670Y014827D01*
X006670Y014925D02*
X000300Y014925D01*
X000300Y015024D02*
X006670Y015024D01*
X006670Y015122D02*
X000300Y015122D01*
X000300Y015221D02*
X006670Y015221D01*
X006670Y015319D02*
X000300Y015319D01*
X000300Y015418D02*
X006670Y015418D01*
X006670Y015516D02*
X000300Y015516D01*
X000300Y015615D02*
X006670Y015615D01*
X006670Y015713D02*
X000300Y015713D01*
X000300Y015812D02*
X006670Y015812D01*
X006670Y015910D02*
X000300Y015910D01*
X000300Y016009D02*
X006670Y016009D01*
X006670Y016107D02*
X000300Y016107D01*
X000300Y016206D02*
X006670Y016206D01*
X006670Y016304D02*
X000300Y016304D01*
X000300Y016403D02*
X006670Y016403D01*
X006670Y016501D02*
X000300Y016501D01*
X000300Y016600D02*
X006670Y016600D01*
X006670Y016698D02*
X000300Y016698D01*
X000300Y016797D02*
X006670Y016797D01*
X006670Y016895D02*
X000300Y016895D01*
X000300Y016994D02*
X006670Y016994D01*
X006670Y017092D02*
X000300Y017092D01*
X000300Y017191D02*
X006670Y017191D01*
X006670Y017289D02*
X000300Y017289D01*
X000300Y017388D02*
X006670Y017388D01*
X006670Y017486D02*
X000300Y017486D01*
X000300Y017585D02*
X006670Y017585D01*
X006670Y017683D02*
X000300Y017683D01*
X000300Y017782D02*
X006670Y017782D01*
X006670Y017880D02*
X000300Y017880D01*
X000300Y017979D02*
X006670Y017979D01*
X006670Y018077D02*
X000300Y018077D01*
X000300Y018176D02*
X006670Y018176D01*
X006670Y018274D02*
X000300Y018274D01*
X000300Y018373D02*
X006670Y018373D01*
X006670Y018471D02*
X000300Y018471D01*
X000300Y018570D02*
X006670Y018570D01*
X006670Y018668D02*
X000300Y018668D01*
X000300Y018767D02*
X006670Y018767D01*
X006670Y018865D02*
X000300Y018865D01*
X000300Y018964D02*
X006670Y018964D01*
X006670Y019062D02*
X000300Y019062D01*
X000300Y019161D02*
X006670Y019161D01*
X006670Y019259D02*
X000300Y019259D01*
X000300Y019358D02*
X003380Y019358D01*
X003281Y019456D02*
X000300Y019456D01*
X000300Y019555D02*
X003250Y019555D01*
X003250Y019653D02*
X001982Y019653D01*
X002202Y019752D02*
X003250Y019752D01*
X003250Y019850D02*
X002319Y019850D01*
X002437Y019949D02*
X003004Y019949D01*
X002995Y020047D02*
X002527Y020047D01*
X002584Y020146D02*
X002995Y020146D01*
X002995Y020244D02*
X002641Y020244D01*
X002697Y020343D02*
X002995Y020343D01*
X002995Y020441D02*
X002732Y020441D01*
X002749Y020540D02*
X002995Y020540D01*
X002995Y020638D02*
X002766Y020638D01*
X002784Y020737D02*
X003050Y020737D01*
X003195Y020934D02*
X002778Y020934D01*
X002761Y021032D02*
X003096Y021032D01*
X002998Y021131D02*
X002744Y021131D01*
X002726Y021229D02*
X002995Y021229D01*
X002995Y021133D02*
X003259Y020869D01*
X003632Y020869D01*
X003895Y021133D01*
X003895Y021506D01*
X003632Y021769D01*
X003259Y021769D01*
X002995Y021506D01*
X002995Y021133D01*
X002995Y021328D02*
X002679Y021328D01*
X002622Y021426D02*
X002995Y021426D01*
X003014Y021525D02*
X002565Y021525D01*
X002509Y021623D02*
X003113Y021623D01*
X003211Y021722D02*
X002399Y021722D01*
X002282Y021820D02*
X023609Y021820D01*
X023726Y021919D02*
X002164Y021919D01*
X001895Y022017D02*
X023995Y022017D01*
X023491Y021722D02*
X022679Y021722D01*
X022632Y021769D02*
X022259Y021769D01*
X021995Y021506D01*
X021995Y021133D01*
X022259Y020869D01*
X022632Y020869D01*
X022895Y021133D01*
X022895Y021506D01*
X022632Y021769D01*
X022778Y021623D02*
X023382Y021623D01*
X023325Y021525D02*
X022876Y021525D01*
X022895Y021426D02*
X023268Y021426D01*
X023211Y021328D02*
X022895Y021328D01*
X022895Y021229D02*
X023164Y021229D01*
X023147Y021131D02*
X022893Y021131D01*
X022794Y021032D02*
X023130Y021032D01*
X023112Y020934D02*
X022696Y020934D01*
X022632Y020769D02*
X022495Y020769D01*
X022495Y020369D01*
X022895Y020369D01*
X022895Y020506D01*
X022632Y020769D01*
X022664Y020737D02*
X023107Y020737D01*
X023095Y020835D02*
X008148Y020835D01*
X008190Y020737D02*
X008226Y020737D01*
X008259Y020869D02*
X008632Y020869D01*
X008895Y021133D01*
X008895Y021506D01*
X008632Y021769D01*
X008259Y021769D01*
X007995Y021506D01*
X007995Y021133D01*
X008259Y020869D01*
X008195Y020934D02*
X008049Y020934D01*
X008096Y021032D02*
X007951Y021032D01*
X007998Y021131D02*
X007893Y021131D01*
X007895Y021229D02*
X007995Y021229D01*
X007995Y021328D02*
X007895Y021328D01*
X007895Y021426D02*
X007995Y021426D01*
X008014Y021525D02*
X007876Y021525D01*
X007778Y021623D02*
X008113Y021623D01*
X008211Y021722D02*
X007679Y021722D01*
X007445Y021319D02*
X007445Y021255D01*
X007990Y020710D01*
X007990Y019990D01*
X007830Y019830D01*
X007510Y019830D01*
X007350Y019670D01*
X007350Y012240D01*
X007563Y012660D02*
X007637Y012660D01*
X007550Y012758D02*
X021415Y012758D01*
X021415Y012660D02*
X009063Y012660D01*
X009120Y012561D02*
X021422Y012561D01*
X021621Y012463D02*
X009120Y012463D01*
X009120Y012364D02*
X021621Y012364D01*
X021621Y012266D02*
X009120Y012266D01*
X009120Y012167D02*
X021621Y012167D01*
X021649Y012069D02*
X009120Y012069D01*
X009120Y011970D02*
X021748Y011970D01*
X021922Y012079D02*
X023345Y012079D01*
X023569Y011855D01*
X023119Y011872D02*
X009114Y011872D01*
X008637Y012660D02*
X008563Y012660D01*
X008137Y012660D02*
X008063Y012660D01*
X007550Y012857D02*
X021415Y012857D01*
X021415Y012955D02*
X007550Y012955D01*
X007550Y013054D02*
X021415Y013054D01*
X021415Y013152D02*
X007550Y013152D01*
X007550Y013251D02*
X021415Y013251D01*
X021443Y013349D02*
X007550Y013349D01*
X007550Y013448D02*
X022098Y013448D01*
X021999Y013546D02*
X007550Y013546D01*
X007550Y013645D02*
X021970Y013645D01*
X021970Y013743D02*
X007550Y013743D01*
X007550Y013842D02*
X021349Y013842D01*
X021884Y014569D02*
X020790Y014569D01*
X020780Y014559D01*
X021884Y015069D02*
X022800Y015069D01*
X022800Y015950D01*
X023550Y016700D01*
X023816Y016700D01*
X023821Y016694D01*
X023300Y016804D02*
X023300Y017173D01*
X023821Y017694D01*
X023415Y017683D02*
X007550Y017683D01*
X007550Y017585D02*
X023415Y017585D01*
X023330Y017486D02*
X007550Y017486D01*
X007550Y017388D02*
X023232Y017388D01*
X023133Y017289D02*
X007550Y017289D01*
X007550Y017191D02*
X023100Y017191D01*
X023100Y017092D02*
X007550Y017092D01*
X007550Y016994D02*
X023100Y016994D01*
X023100Y016895D02*
X007550Y016895D01*
X007550Y016797D02*
X023010Y016797D01*
X022911Y016698D02*
X007550Y016698D01*
X007550Y016600D02*
X022813Y016600D01*
X022714Y016501D02*
X007550Y016501D01*
X007550Y016403D02*
X022616Y016403D01*
X022517Y016304D02*
X007550Y016304D01*
X007550Y016206D02*
X022419Y016206D01*
X022320Y016107D02*
X007550Y016107D01*
X007550Y016009D02*
X022312Y016009D01*
X022312Y015910D02*
X007550Y015910D01*
X007550Y015812D02*
X018466Y015812D01*
X018433Y015713D02*
X007550Y015713D01*
X007550Y015615D02*
X018433Y015615D01*
X018433Y015516D02*
X007550Y015516D01*
X007550Y015418D02*
X018433Y015418D01*
X018433Y015319D02*
X007550Y015319D01*
X007550Y015221D02*
X018435Y015221D01*
X018433Y015122D02*
X007550Y015122D01*
X007550Y015024D02*
X018433Y015024D01*
X018433Y014925D02*
X007550Y014925D01*
X007550Y014827D02*
X018433Y014827D01*
X018433Y014728D02*
X007550Y014728D01*
X007550Y014630D02*
X018433Y014630D01*
X018433Y014531D02*
X007550Y014531D01*
X007550Y014433D02*
X018433Y014433D01*
X018433Y014334D02*
X007550Y014334D01*
X007550Y014236D02*
X018433Y014236D01*
X018433Y014137D02*
X007550Y014137D01*
X007550Y014039D02*
X018516Y014039D01*
X019064Y014039D02*
X019484Y014039D01*
X019386Y014137D02*
X019147Y014137D01*
X019583Y013940D02*
X007550Y013940D01*
X007110Y013030D02*
X007110Y019670D01*
X006950Y019830D01*
X006950Y020815D01*
X006445Y021319D01*
X005995Y021328D02*
X005495Y021328D01*
X005495Y021369D02*
X005895Y021369D01*
X005895Y021506D01*
X005632Y021769D01*
X005495Y021769D01*
X005495Y021369D01*
X005495Y021269D01*
X005495Y020869D01*
X005632Y020869D01*
X005895Y021133D01*
X005895Y021269D01*
X005495Y021269D01*
X005395Y021269D01*
X005395Y020869D01*
X005259Y020869D01*
X004995Y021133D01*
X004995Y021269D01*
X005395Y021269D01*
X005395Y021369D01*
X004995Y021369D01*
X004995Y021506D01*
X005259Y021769D01*
X005395Y021769D01*
X005395Y021369D01*
X005495Y021369D01*
X005495Y021426D02*
X005395Y021426D01*
X005395Y021328D02*
X004895Y021328D01*
X004895Y021426D02*
X004995Y021426D01*
X005014Y021525D02*
X004876Y021525D01*
X004895Y021506D02*
X004632Y021769D01*
X004259Y021769D01*
X003995Y021506D01*
X003995Y021133D01*
X004259Y020869D01*
X004632Y020869D01*
X004895Y021133D01*
X004895Y021506D01*
X004778Y021623D02*
X005113Y021623D01*
X005211Y021722D02*
X004679Y021722D01*
X004211Y021722D02*
X003679Y021722D01*
X003778Y021623D02*
X004113Y021623D01*
X004014Y021525D02*
X003876Y021525D01*
X003895Y021426D02*
X003995Y021426D01*
X003995Y021328D02*
X003895Y021328D01*
X003895Y021229D02*
X003995Y021229D01*
X003998Y021131D02*
X003893Y021131D01*
X003794Y021032D02*
X004096Y021032D01*
X004195Y020934D02*
X003696Y020934D01*
X003840Y020737D02*
X004226Y020737D01*
X004259Y020769D02*
X003995Y020506D01*
X003995Y020133D01*
X004259Y019869D01*
X004632Y019869D01*
X004895Y020133D01*
X004895Y020506D01*
X004632Y020769D01*
X004259Y020769D01*
X004128Y020638D02*
X003895Y020638D01*
X003895Y020540D02*
X004029Y020540D01*
X003995Y020441D02*
X003895Y020441D01*
X003895Y020343D02*
X003995Y020343D01*
X003995Y020244D02*
X003895Y020244D01*
X003895Y020146D02*
X003995Y020146D01*
X004081Y020047D02*
X003895Y020047D01*
X003887Y019949D02*
X004180Y019949D01*
X004711Y019949D02*
X005180Y019949D01*
X005259Y019869D02*
X004995Y020133D01*
X004995Y020506D01*
X005259Y020769D01*
X005632Y020769D01*
X005895Y020506D01*
X005895Y020133D01*
X005632Y019869D01*
X005259Y019869D01*
X005081Y020047D02*
X004809Y020047D01*
X004895Y020146D02*
X004995Y020146D01*
X004995Y020244D02*
X004895Y020244D01*
X004895Y020343D02*
X004995Y020343D01*
X004995Y020441D02*
X004895Y020441D01*
X004861Y020540D02*
X005029Y020540D01*
X005128Y020638D02*
X004763Y020638D01*
X004664Y020737D02*
X005226Y020737D01*
X005195Y020934D02*
X004696Y020934D01*
X004794Y021032D02*
X005096Y021032D01*
X004998Y021131D02*
X004893Y021131D01*
X004895Y021229D02*
X004995Y021229D01*
X005395Y021229D02*
X005495Y021229D01*
X005495Y021131D02*
X005395Y021131D01*
X005395Y021032D02*
X005495Y021032D01*
X005495Y020934D02*
X005395Y020934D01*
X005696Y020934D02*
X006195Y020934D01*
X006096Y021032D02*
X005794Y021032D01*
X005893Y021131D02*
X005998Y021131D01*
X005995Y021229D02*
X005895Y021229D01*
X005895Y021426D02*
X005995Y021426D01*
X006014Y021525D02*
X005876Y021525D01*
X005778Y021623D02*
X006113Y021623D01*
X006211Y021722D02*
X005679Y021722D01*
X005495Y021722D02*
X005395Y021722D01*
X005395Y021623D02*
X005495Y021623D01*
X005495Y021525D02*
X005395Y021525D01*
X005664Y020737D02*
X006226Y020737D01*
X006128Y020638D02*
X005763Y020638D01*
X005861Y020540D02*
X006029Y020540D01*
X005995Y020441D02*
X005895Y020441D01*
X005895Y020343D02*
X005995Y020343D01*
X005995Y020244D02*
X005895Y020244D01*
X005895Y020146D02*
X005995Y020146D01*
X006081Y020047D02*
X005809Y020047D01*
X005711Y019949D02*
X006180Y019949D01*
X006711Y019949D02*
X006750Y019949D01*
X006750Y019850D02*
X003650Y019850D01*
X003650Y019752D02*
X006750Y019752D01*
X006730Y019510D02*
X003510Y019510D01*
X003450Y019570D01*
X003450Y020315D01*
X003445Y020319D01*
X002796Y020835D02*
X006647Y020835D01*
X006664Y020737D02*
X006745Y020737D01*
X007015Y021032D02*
X007096Y021032D01*
X007114Y020934D02*
X007195Y020934D01*
X007150Y020835D02*
X007582Y020835D01*
X007664Y020737D02*
X007681Y020737D01*
X007763Y020638D02*
X007779Y020638D01*
X007495Y020638D02*
X007395Y020638D01*
X007395Y020540D02*
X007495Y020540D01*
X007495Y020441D02*
X007395Y020441D01*
X007395Y020737D02*
X007495Y020737D01*
X007226Y020737D02*
X007150Y020737D01*
X006998Y021131D02*
X006917Y021131D01*
X006895Y021229D02*
X006995Y021229D01*
X006995Y021328D02*
X006895Y021328D01*
X006895Y021426D02*
X006995Y021426D01*
X007014Y021525D02*
X006876Y021525D01*
X006778Y021623D02*
X007113Y021623D01*
X007211Y021722D02*
X006679Y021722D01*
X008679Y021722D02*
X009211Y021722D01*
X009259Y021769D02*
X008995Y021506D01*
X008995Y021369D01*
X009395Y021369D01*
X009395Y021269D01*
X009495Y021269D01*
X009495Y020869D01*
X009632Y020869D01*
X009895Y021133D01*
X009895Y021269D01*
X009495Y021269D01*
X009495Y021369D01*
X009895Y021369D01*
X009895Y021506D01*
X009632Y021769D01*
X009495Y021769D01*
X009495Y021369D01*
X009395Y021369D01*
X009395Y021769D01*
X009259Y021769D01*
X009395Y021722D02*
X009495Y021722D01*
X009495Y021623D02*
X009395Y021623D01*
X009395Y021525D02*
X009495Y021525D01*
X009495Y021426D02*
X009395Y021426D01*
X009395Y021328D02*
X008895Y021328D01*
X008895Y021426D02*
X008995Y021426D01*
X009014Y021525D02*
X008876Y021525D01*
X008778Y021623D02*
X009113Y021623D01*
X008995Y021269D02*
X008995Y021133D01*
X009259Y020869D01*
X009395Y020869D01*
X009395Y021269D01*
X008995Y021269D01*
X008995Y021229D02*
X008895Y021229D01*
X008893Y021131D02*
X008998Y021131D01*
X009096Y021032D02*
X008794Y021032D01*
X008696Y020934D02*
X009195Y020934D01*
X009259Y020769D02*
X008995Y020506D01*
X008995Y020133D01*
X009259Y019869D01*
X009632Y019869D01*
X009895Y020133D01*
X009895Y020506D01*
X009632Y020769D01*
X009259Y020769D01*
X009226Y020737D02*
X008664Y020737D01*
X008763Y020638D02*
X009128Y020638D01*
X009029Y020540D02*
X008861Y020540D01*
X008895Y020441D02*
X008995Y020441D01*
X008995Y020343D02*
X008895Y020343D01*
X008895Y020244D02*
X008995Y020244D01*
X008995Y020146D02*
X008895Y020146D01*
X008809Y020047D02*
X009081Y020047D01*
X009180Y019949D02*
X008711Y019949D01*
X008133Y019850D02*
X023571Y019850D01*
X023454Y019949D02*
X022711Y019949D01*
X022632Y019869D02*
X022495Y019869D01*
X022495Y020269D01*
X022395Y020269D01*
X022395Y019869D01*
X022259Y019869D01*
X021995Y020133D01*
X021995Y020269D01*
X022395Y020269D01*
X022395Y020369D01*
X021995Y020369D01*
X021995Y020506D01*
X022259Y020769D01*
X022395Y020769D01*
X022395Y020369D01*
X022495Y020369D01*
X022495Y020269D01*
X022895Y020269D01*
X022895Y020133D01*
X022632Y019869D01*
X022495Y019949D02*
X022395Y019949D01*
X022395Y020047D02*
X022495Y020047D01*
X022495Y020146D02*
X022395Y020146D01*
X022395Y020244D02*
X022495Y020244D01*
X022495Y020343D02*
X023193Y020343D01*
X023159Y020441D02*
X022895Y020441D01*
X022861Y020540D02*
X023141Y020540D01*
X023124Y020638D02*
X022763Y020638D01*
X022495Y020638D02*
X022395Y020638D01*
X022395Y020540D02*
X022495Y020540D01*
X022495Y020441D02*
X022395Y020441D01*
X022395Y020343D02*
X021895Y020343D01*
X021895Y020441D02*
X021995Y020441D01*
X022029Y020540D02*
X021861Y020540D01*
X021895Y020506D02*
X021632Y020769D01*
X021259Y020769D01*
X020995Y020506D01*
X020995Y020133D01*
X021259Y019869D01*
X021632Y019869D01*
X021895Y020133D01*
X021895Y020506D01*
X021763Y020638D02*
X022128Y020638D01*
X022226Y020737D02*
X021664Y020737D01*
X021632Y020869D02*
X021895Y021133D01*
X021895Y021506D01*
X021632Y021769D01*
X021259Y021769D01*
X020995Y021506D01*
X020995Y021133D01*
X021259Y020869D01*
X021632Y020869D01*
X021696Y020934D02*
X022195Y020934D01*
X022096Y021032D02*
X021794Y021032D01*
X021893Y021131D02*
X021998Y021131D01*
X021995Y021229D02*
X021895Y021229D01*
X021895Y021328D02*
X021995Y021328D01*
X021995Y021426D02*
X021895Y021426D01*
X021876Y021525D02*
X022014Y021525D01*
X022113Y021623D02*
X021778Y021623D01*
X021679Y021722D02*
X022211Y021722D01*
X021211Y021722D02*
X020679Y021722D01*
X020632Y021769D02*
X020259Y021769D01*
X019995Y021506D01*
X019995Y021133D01*
X020259Y020869D01*
X020632Y020869D01*
X020895Y021133D01*
X020895Y021506D01*
X020632Y021769D01*
X020778Y021623D02*
X021113Y021623D01*
X021014Y021525D02*
X020876Y021525D01*
X020895Y021426D02*
X020995Y021426D01*
X020995Y021328D02*
X020895Y021328D01*
X020895Y021229D02*
X020995Y021229D01*
X020998Y021131D02*
X020893Y021131D01*
X020794Y021032D02*
X021096Y021032D01*
X021195Y020934D02*
X020696Y020934D01*
X020632Y020769D02*
X020259Y020769D01*
X019995Y020506D01*
X019995Y020133D01*
X020259Y019869D01*
X020632Y019869D01*
X020895Y020133D01*
X020895Y020506D01*
X020632Y020769D01*
X020664Y020737D02*
X021226Y020737D01*
X021128Y020638D02*
X020763Y020638D01*
X020861Y020540D02*
X021029Y020540D01*
X020995Y020441D02*
X020895Y020441D01*
X020895Y020343D02*
X020995Y020343D01*
X020995Y020244D02*
X020895Y020244D01*
X020895Y020146D02*
X020995Y020146D01*
X021081Y020047D02*
X020809Y020047D01*
X020711Y019949D02*
X021180Y019949D01*
X021711Y019949D02*
X022180Y019949D01*
X022081Y020047D02*
X021809Y020047D01*
X021895Y020146D02*
X021995Y020146D01*
X021995Y020244D02*
X021895Y020244D01*
X022395Y020737D02*
X022495Y020737D01*
X022895Y020244D02*
X023250Y020244D01*
X023307Y020146D02*
X022895Y020146D01*
X022809Y020047D02*
X023364Y020047D01*
X023689Y019752D02*
X008034Y019752D01*
X007936Y019653D02*
X023909Y019653D01*
X024817Y019653D02*
X025591Y019653D01*
X025591Y019555D02*
X007550Y019555D01*
X007550Y019456D02*
X025591Y019456D01*
X025591Y019358D02*
X007550Y019358D01*
X007550Y019259D02*
X025591Y019259D01*
X025591Y019161D02*
X007550Y019161D01*
X007550Y019062D02*
X025591Y019062D01*
X025591Y018964D02*
X007550Y018964D01*
X007550Y018865D02*
X025591Y018865D01*
X025591Y018767D02*
X007550Y018767D01*
X007550Y018668D02*
X025591Y018668D01*
X025591Y018570D02*
X007550Y018570D01*
X007550Y018471D02*
X025591Y018471D01*
X025591Y018373D02*
X007550Y018373D01*
X007550Y018274D02*
X025591Y018274D01*
X025591Y018176D02*
X007550Y018176D01*
X007550Y018077D02*
X023421Y018077D01*
X023415Y017979D02*
X007550Y017979D01*
X007550Y017880D02*
X023415Y017880D01*
X023415Y017782D02*
X007550Y017782D01*
X006870Y019370D02*
X006870Y013110D01*
X006350Y012590D01*
X006350Y012240D01*
X006310Y012200D01*
X006850Y012240D02*
X006850Y012770D01*
X007110Y013030D01*
X004950Y011510D02*
X004490Y011510D01*
X004510Y011773D02*
X004593Y011773D01*
X002860Y005962D02*
X002779Y005962D01*
X002800Y005863D02*
X002860Y005863D01*
X002860Y005765D02*
X002800Y005765D01*
X002800Y005666D02*
X002860Y005666D01*
X002860Y005568D02*
X002800Y005568D01*
X002941Y004878D02*
X003052Y004878D01*
X002993Y004780D02*
X002842Y004780D01*
X001565Y003598D02*
X001295Y003598D01*
X001295Y003499D02*
X001565Y003499D01*
X001565Y003401D02*
X001295Y003401D01*
X001295Y003302D02*
X001565Y003302D01*
X001565Y003204D02*
X001295Y003204D01*
X001265Y003105D02*
X001595Y003105D01*
X001120Y002711D02*
X000300Y002711D01*
X000300Y002613D02*
X000874Y002613D01*
X000757Y002514D02*
X000300Y002514D01*
X000300Y002416D02*
X000639Y002416D01*
X000539Y002317D02*
X000300Y002317D01*
X000300Y002219D02*
X000482Y002219D01*
X000425Y002120D02*
X000300Y002120D01*
X000300Y002022D02*
X000368Y002022D01*
X000327Y001923D02*
X000300Y001923D01*
X000300Y001825D02*
X000310Y001825D01*
X001941Y000347D02*
X023949Y000347D01*
X023706Y000446D02*
X002184Y000446D01*
X002302Y000544D02*
X023589Y000544D01*
X023471Y000643D02*
X002419Y000643D01*
X002518Y000741D02*
X023372Y000741D01*
X023315Y000840D02*
X002575Y000840D01*
X002632Y000938D02*
X023258Y000938D01*
X023202Y001037D02*
X002689Y001037D01*
X002729Y001135D02*
X023161Y001135D01*
X024770Y002711D02*
X025591Y002711D01*
X025591Y002613D02*
X025017Y002613D01*
X025134Y002514D02*
X025591Y002514D01*
X025591Y002416D02*
X025251Y002416D01*
X025352Y002317D02*
X025591Y002317D01*
X025591Y002219D02*
X025409Y002219D01*
X025466Y002120D02*
X025591Y002120D01*
X025591Y002022D02*
X025522Y002022D01*
X025563Y001923D02*
X025591Y001923D01*
X025581Y001825D02*
X025591Y001825D01*
X024756Y011405D02*
X024619Y011405D01*
X024619Y011805D01*
X024519Y011805D01*
X024119Y011805D01*
X024119Y011668D01*
X024383Y011405D01*
X024519Y011405D01*
X024519Y011805D01*
X024519Y011905D01*
X024119Y011905D01*
X024119Y012041D01*
X024383Y012305D01*
X024519Y012305D01*
X024519Y011905D01*
X024619Y011905D01*
X024619Y012305D01*
X024756Y012305D01*
X025019Y012041D01*
X025019Y011905D01*
X024619Y011905D01*
X024619Y011805D01*
X025019Y011805D01*
X025019Y011668D01*
X024756Y011405D01*
X024828Y011478D02*
X025591Y011478D01*
X025591Y011576D02*
X024927Y011576D01*
X025019Y011675D02*
X025591Y011675D01*
X025591Y011773D02*
X025019Y011773D01*
X025019Y011970D02*
X025591Y011970D01*
X025591Y011872D02*
X024619Y011872D01*
X024619Y011970D02*
X024519Y011970D01*
X024519Y011872D02*
X024019Y011872D01*
X024019Y011970D02*
X024119Y011970D01*
X024147Y012069D02*
X023992Y012069D01*
X023893Y012167D02*
X024245Y012167D01*
X024344Y012266D02*
X023795Y012266D01*
X023402Y012561D02*
X022969Y012561D01*
X022975Y012660D02*
X023396Y012660D01*
X023396Y012758D02*
X022975Y012758D01*
X022975Y012857D02*
X023396Y012857D01*
X023396Y012955D02*
X022975Y012955D01*
X022948Y013349D02*
X023423Y013349D01*
X023953Y013859D02*
X023981Y013831D01*
X024015Y013811D01*
X024053Y013801D01*
X024497Y013801D01*
X024497Y014060D01*
X024515Y014060D01*
X024515Y013801D01*
X024959Y013801D01*
X024997Y013811D01*
X025031Y013831D01*
X025059Y013859D01*
X025079Y013893D01*
X025089Y013931D01*
X025089Y014060D01*
X024515Y014060D01*
X024515Y014078D01*
X025089Y014078D01*
X025089Y014207D01*
X025079Y014245D01*
X025059Y014280D01*
X025031Y014307D01*
X025011Y014319D01*
X025031Y014331D01*
X025059Y014359D01*
X025079Y014393D01*
X025089Y014431D01*
X025089Y014560D01*
X024515Y014560D01*
X024515Y014078D01*
X024497Y014078D01*
X024497Y014060D01*
X023923Y014060D01*
X023923Y013931D01*
X023933Y013893D01*
X023953Y013859D01*
X023971Y013842D02*
X022420Y013842D01*
X022330Y013743D02*
X025591Y013743D01*
X025591Y013645D02*
X022410Y013645D01*
X022509Y013546D02*
X025591Y013546D01*
X025591Y013448D02*
X022607Y013448D01*
X021821Y012944D02*
X021821Y012180D01*
X021922Y012079D01*
X022021Y012364D02*
X025591Y012364D01*
X025591Y012266D02*
X024795Y012266D01*
X024893Y012167D02*
X025591Y012167D01*
X025591Y012069D02*
X024992Y012069D01*
X024619Y012069D02*
X024519Y012069D01*
X024519Y012167D02*
X024619Y012167D01*
X024619Y012266D02*
X024519Y012266D01*
X024539Y012561D02*
X024639Y012561D01*
X024639Y012660D02*
X024539Y012660D01*
X024539Y012758D02*
X024639Y012758D01*
X024639Y012857D02*
X024539Y012857D01*
X024639Y012955D02*
X025591Y012955D01*
X025591Y012857D02*
X024995Y012857D01*
X024995Y012758D02*
X025591Y012758D01*
X025591Y012660D02*
X024995Y012660D01*
X024979Y012561D02*
X025591Y012561D01*
X025591Y012463D02*
X022021Y012463D01*
X023828Y011478D02*
X024310Y011478D01*
X024212Y011576D02*
X023927Y011576D01*
X024019Y011675D02*
X024119Y011675D01*
X024119Y011773D02*
X024019Y011773D01*
X024519Y011773D02*
X024619Y011773D01*
X024619Y011675D02*
X024519Y011675D01*
X024519Y011576D02*
X024619Y011576D01*
X024619Y011478D02*
X024519Y011478D01*
X024539Y013054D02*
X024639Y013054D01*
X024639Y013152D02*
X024539Y013152D01*
X024539Y013251D02*
X024639Y013251D01*
X024639Y013349D02*
X024539Y013349D01*
X024212Y013349D02*
X024180Y013349D01*
X024497Y013842D02*
X024515Y013842D01*
X024515Y013940D02*
X024497Y013940D01*
X024497Y014039D02*
X024515Y014039D01*
X024497Y014078D02*
X023923Y014078D01*
X023923Y014207D01*
X023933Y014245D01*
X023953Y014280D01*
X023981Y014307D01*
X024002Y014319D01*
X023981Y014331D01*
X023953Y014359D01*
X023933Y014393D01*
X023923Y014431D01*
X023923Y014560D01*
X024497Y014560D01*
X024497Y014578D01*
X023923Y014578D01*
X023923Y014707D01*
X023933Y014745D01*
X023953Y014780D01*
X023981Y014807D01*
X024002Y014819D01*
X023981Y014831D01*
X023953Y014859D01*
X023933Y014893D01*
X023923Y014931D01*
X023923Y015060D01*
X024497Y015060D01*
X024497Y015078D01*
X023923Y015078D01*
X023923Y015207D01*
X023933Y015245D01*
X023953Y015280D01*
X023981Y015307D01*
X024002Y015319D01*
X023981Y015331D01*
X023953Y015359D01*
X023933Y015393D01*
X023923Y015431D01*
X023923Y015560D01*
X024497Y015560D01*
X024497Y015578D01*
X023923Y015578D01*
X023923Y015707D01*
X023933Y015745D01*
X023953Y015780D01*
X023981Y015807D01*
X024015Y015827D01*
X024053Y015837D01*
X024497Y015837D01*
X024497Y015578D01*
X024515Y015578D01*
X024515Y015837D01*
X024959Y015837D01*
X024997Y015827D01*
X025031Y015807D01*
X025059Y015780D01*
X025079Y015745D01*
X025089Y015707D01*
X025089Y015578D01*
X024515Y015578D01*
X024515Y015560D01*
X024515Y015301D01*
X024515Y015078D01*
X025089Y015078D01*
X025089Y015207D01*
X025079Y015245D01*
X025059Y015280D01*
X025031Y015307D01*
X025011Y015319D01*
X025031Y015331D01*
X025059Y015359D01*
X025079Y015393D01*
X025089Y015431D01*
X025089Y015560D01*
X024515Y015560D01*
X024497Y015560D01*
X024497Y015078D01*
X024515Y015078D01*
X024515Y015060D01*
X024515Y014837D01*
X024515Y014578D01*
X025089Y014578D01*
X025089Y014707D01*
X025079Y014745D01*
X025059Y014780D01*
X025031Y014807D01*
X025011Y014819D01*
X025031Y014831D01*
X025059Y014859D01*
X025079Y014893D01*
X025089Y014931D01*
X025089Y015060D01*
X024515Y015060D01*
X024497Y015060D01*
X024497Y014578D01*
X024515Y014578D01*
X024515Y014560D01*
X024497Y014560D01*
X024497Y014301D01*
X024497Y014078D01*
X024497Y014137D02*
X024515Y014137D01*
X024515Y014236D02*
X024497Y014236D01*
X024497Y014334D02*
X024515Y014334D01*
X024515Y014433D02*
X024497Y014433D01*
X024497Y014531D02*
X024515Y014531D01*
X024515Y014630D02*
X024497Y014630D01*
X024497Y014728D02*
X024515Y014728D01*
X024515Y014827D02*
X024497Y014827D01*
X024497Y014925D02*
X024515Y014925D01*
X024515Y015024D02*
X024497Y015024D01*
X024497Y015122D02*
X024515Y015122D01*
X024515Y015221D02*
X024497Y015221D01*
X024497Y015319D02*
X024515Y015319D01*
X024515Y015418D02*
X024497Y015418D01*
X024497Y015516D02*
X024515Y015516D01*
X024515Y015615D02*
X024497Y015615D01*
X024497Y015713D02*
X024515Y015713D01*
X024515Y015812D02*
X024497Y015812D01*
X024607Y015910D02*
X025591Y015910D01*
X025591Y015812D02*
X025024Y015812D01*
X025088Y015713D02*
X025591Y015713D01*
X025591Y015615D02*
X025089Y015615D01*
X025089Y015516D02*
X025591Y015516D01*
X025591Y015418D02*
X025086Y015418D01*
X025011Y015319D02*
X025591Y015319D01*
X025591Y015221D02*
X025086Y015221D01*
X025089Y015122D02*
X025591Y015122D01*
X025591Y015024D02*
X025089Y015024D01*
X025088Y014925D02*
X025591Y014925D01*
X025591Y014827D02*
X025023Y014827D01*
X025084Y014728D02*
X025591Y014728D01*
X025591Y014630D02*
X025089Y014630D01*
X025089Y014531D02*
X025591Y014531D01*
X025591Y014433D02*
X025089Y014433D01*
X025034Y014334D02*
X025591Y014334D01*
X025591Y014236D02*
X025082Y014236D01*
X025089Y014137D02*
X025591Y014137D01*
X025591Y014039D02*
X025089Y014039D01*
X025089Y013940D02*
X025591Y013940D01*
X025591Y013842D02*
X025042Y013842D01*
X024966Y013349D02*
X025591Y013349D01*
X025591Y013251D02*
X024995Y013251D01*
X024995Y013152D02*
X025591Y013152D01*
X025591Y013054D02*
X024995Y013054D01*
X023923Y013940D02*
X023597Y013940D01*
X023696Y014039D02*
X023923Y014039D01*
X023923Y014137D02*
X023794Y014137D01*
X023800Y014236D02*
X023931Y014236D01*
X023978Y014334D02*
X023800Y014334D01*
X023800Y014433D02*
X023923Y014433D01*
X023923Y014531D02*
X023800Y014531D01*
X023800Y014630D02*
X023923Y014630D01*
X023929Y014728D02*
X023800Y014728D01*
X023800Y014827D02*
X023989Y014827D01*
X023925Y014925D02*
X023800Y014925D01*
X023800Y015024D02*
X023923Y015024D01*
X023923Y015122D02*
X023800Y015122D01*
X023800Y015221D02*
X023927Y015221D01*
X024001Y015319D02*
X023800Y015319D01*
X023800Y015418D02*
X023927Y015418D01*
X023923Y015516D02*
X023800Y015516D01*
X023800Y015615D02*
X023923Y015615D01*
X023925Y015713D02*
X023800Y015713D01*
X023800Y015812D02*
X023988Y015812D01*
X024706Y016009D02*
X025591Y016009D01*
X025591Y016107D02*
X024804Y016107D01*
X024840Y016206D02*
X025591Y016206D01*
X025591Y016304D02*
X024962Y016304D01*
X024975Y016403D02*
X025591Y016403D01*
X025591Y016501D02*
X024975Y016501D01*
X024975Y016600D02*
X025591Y016600D01*
X025591Y016698D02*
X024975Y016698D01*
X024975Y016797D02*
X025591Y016797D01*
X025591Y016895D02*
X024975Y016895D01*
X024975Y016994D02*
X025591Y016994D01*
X025591Y017092D02*
X024955Y017092D01*
X024799Y017191D02*
X025591Y017191D01*
X025591Y017289D02*
X024947Y017289D01*
X024975Y017388D02*
X025591Y017388D01*
X025591Y017486D02*
X024975Y017486D01*
X024975Y017585D02*
X025591Y017585D01*
X025591Y017683D02*
X024975Y017683D01*
X024975Y017782D02*
X025591Y017782D01*
X025591Y017880D02*
X024975Y017880D01*
X024975Y017979D02*
X025591Y017979D01*
X025591Y018077D02*
X024970Y018077D01*
X023300Y016804D02*
X022512Y016016D01*
X022512Y015622D01*
X022459Y015569D01*
X021884Y015569D01*
X021363Y015812D02*
X019114Y015812D01*
X019259Y019869D02*
X019632Y019869D01*
X019895Y020133D01*
X019895Y020506D01*
X019632Y020769D01*
X019259Y020769D01*
X018995Y020506D01*
X018995Y020133D01*
X019259Y019869D01*
X019180Y019949D02*
X018711Y019949D01*
X018632Y019869D02*
X018895Y020133D01*
X018895Y020506D01*
X018632Y020769D01*
X018259Y020769D01*
X017995Y020506D01*
X017995Y020133D01*
X018259Y019869D01*
X018632Y019869D01*
X018809Y020047D02*
X019081Y020047D01*
X018995Y020146D02*
X018895Y020146D01*
X018895Y020244D02*
X018995Y020244D01*
X018995Y020343D02*
X018895Y020343D01*
X018895Y020441D02*
X018995Y020441D01*
X019029Y020540D02*
X018861Y020540D01*
X018763Y020638D02*
X019128Y020638D01*
X019226Y020737D02*
X018664Y020737D01*
X018632Y020869D02*
X018259Y020869D01*
X017995Y021133D01*
X017995Y021506D01*
X018259Y021769D01*
X018632Y021769D01*
X018895Y021506D01*
X018895Y021133D01*
X018632Y020869D01*
X018696Y020934D02*
X019195Y020934D01*
X019259Y020869D02*
X018995Y021133D01*
X018995Y021269D01*
X019395Y021269D01*
X019495Y021269D01*
X019495Y020869D01*
X019632Y020869D01*
X019895Y021133D01*
X019895Y021269D01*
X019495Y021269D01*
X019495Y021369D01*
X019895Y021369D01*
X019895Y021506D01*
X019632Y021769D01*
X019495Y021769D01*
X019495Y021369D01*
X019395Y021369D01*
X019395Y021269D01*
X019395Y020869D01*
X019259Y020869D01*
X019395Y020934D02*
X019495Y020934D01*
X019495Y021032D02*
X019395Y021032D01*
X019395Y021131D02*
X019495Y021131D01*
X019495Y021229D02*
X019395Y021229D01*
X019395Y021328D02*
X018895Y021328D01*
X018895Y021426D02*
X018995Y021426D01*
X018995Y021369D02*
X019395Y021369D01*
X019395Y021769D01*
X019259Y021769D01*
X018995Y021506D01*
X018995Y021369D01*
X018995Y021229D02*
X018895Y021229D01*
X018893Y021131D02*
X018998Y021131D01*
X019096Y021032D02*
X018794Y021032D01*
X018876Y021525D02*
X019014Y021525D01*
X019113Y021623D02*
X018778Y021623D01*
X018679Y021722D02*
X019211Y021722D01*
X019395Y021722D02*
X019495Y021722D01*
X019495Y021623D02*
X019395Y021623D01*
X019395Y021525D02*
X019495Y021525D01*
X019495Y021426D02*
X019395Y021426D01*
X019495Y021328D02*
X019995Y021328D01*
X019995Y021426D02*
X019895Y021426D01*
X019876Y021525D02*
X020014Y021525D01*
X020113Y021623D02*
X019778Y021623D01*
X019679Y021722D02*
X020211Y021722D01*
X019995Y021229D02*
X019895Y021229D01*
X019893Y021131D02*
X019998Y021131D01*
X020096Y021032D02*
X019794Y021032D01*
X019696Y020934D02*
X020195Y020934D01*
X020226Y020737D02*
X019664Y020737D01*
X019763Y020638D02*
X020128Y020638D01*
X020029Y020540D02*
X019861Y020540D01*
X019895Y020441D02*
X019995Y020441D01*
X019995Y020343D02*
X019895Y020343D01*
X019895Y020244D02*
X019995Y020244D01*
X019995Y020146D02*
X019895Y020146D01*
X019809Y020047D02*
X020081Y020047D01*
X020180Y019949D02*
X019711Y019949D01*
X018180Y019949D02*
X017711Y019949D01*
X017632Y019869D02*
X017895Y020133D01*
X017895Y020506D01*
X017632Y020769D01*
X017259Y020769D01*
X016995Y020506D01*
X016995Y020133D01*
X017259Y019869D01*
X017632Y019869D01*
X017809Y020047D02*
X018081Y020047D01*
X017995Y020146D02*
X017895Y020146D01*
X017895Y020244D02*
X017995Y020244D01*
X017995Y020343D02*
X017895Y020343D01*
X017895Y020441D02*
X017995Y020441D01*
X018029Y020540D02*
X017861Y020540D01*
X017763Y020638D02*
X018128Y020638D01*
X018226Y020737D02*
X017664Y020737D01*
X017632Y020869D02*
X017895Y021133D01*
X017895Y021269D01*
X017495Y021269D01*
X017495Y020869D01*
X017632Y020869D01*
X017696Y020934D02*
X018195Y020934D01*
X018096Y021032D02*
X017794Y021032D01*
X017893Y021131D02*
X017998Y021131D01*
X017995Y021229D02*
X017895Y021229D01*
X017895Y021369D02*
X017495Y021369D01*
X017495Y021269D01*
X017395Y021269D01*
X017395Y020869D01*
X017259Y020869D01*
X016995Y021133D01*
X016995Y021269D01*
X017395Y021269D01*
X017395Y021369D01*
X016995Y021369D01*
X016995Y021506D01*
X017259Y021769D01*
X017395Y021769D01*
X017395Y021369D01*
X017495Y021369D01*
X017495Y021769D01*
X017632Y021769D01*
X017895Y021506D01*
X017895Y021369D01*
X017895Y021426D02*
X017995Y021426D01*
X017995Y021328D02*
X017495Y021328D01*
X017495Y021426D02*
X017395Y021426D01*
X017395Y021328D02*
X016895Y021328D01*
X016895Y021426D02*
X016995Y021426D01*
X017014Y021525D02*
X016876Y021525D01*
X016895Y021506D02*
X016632Y021769D01*
X016259Y021769D01*
X015995Y021506D01*
X015995Y021133D01*
X016259Y020869D01*
X016632Y020869D01*
X016895Y021133D01*
X016895Y021506D01*
X016778Y021623D02*
X017113Y021623D01*
X017211Y021722D02*
X016679Y021722D01*
X016211Y021722D02*
X015679Y021722D01*
X015632Y021769D02*
X015259Y021769D01*
X014995Y021506D01*
X014995Y021133D01*
X015259Y020869D01*
X015632Y020869D01*
X015895Y021133D01*
X015895Y021506D01*
X015632Y021769D01*
X015778Y021623D02*
X016113Y021623D01*
X016014Y021525D02*
X015876Y021525D01*
X015895Y021426D02*
X015995Y021426D01*
X015995Y021328D02*
X015895Y021328D01*
X015895Y021229D02*
X015995Y021229D01*
X015998Y021131D02*
X015893Y021131D01*
X015794Y021032D02*
X016096Y021032D01*
X016195Y020934D02*
X015696Y020934D01*
X015632Y020769D02*
X015495Y020769D01*
X015495Y020369D01*
X015895Y020369D01*
X015895Y020506D01*
X015632Y020769D01*
X015664Y020737D02*
X016226Y020737D01*
X016259Y020769D02*
X015995Y020506D01*
X015995Y020133D01*
X016259Y019869D01*
X016632Y019869D01*
X016895Y020133D01*
X016895Y020506D01*
X016632Y020769D01*
X016259Y020769D01*
X016128Y020638D02*
X015763Y020638D01*
X015861Y020540D02*
X016029Y020540D01*
X015995Y020441D02*
X015895Y020441D01*
X015995Y020343D02*
X015495Y020343D01*
X015495Y020369D02*
X015495Y020269D01*
X015495Y019869D01*
X015632Y019869D01*
X015895Y020133D01*
X015895Y020269D01*
X015495Y020269D01*
X015395Y020269D01*
X015395Y019869D01*
X015259Y019869D01*
X014995Y020133D01*
X014995Y020269D01*
X015395Y020269D01*
X015395Y020369D01*
X014995Y020369D01*
X014995Y020506D01*
X015259Y020769D01*
X015395Y020769D01*
X015395Y020369D01*
X015495Y020369D01*
X015495Y020441D02*
X015395Y020441D01*
X015395Y020343D02*
X014895Y020343D01*
X014895Y020441D02*
X014995Y020441D01*
X015029Y020540D02*
X014861Y020540D01*
X014895Y020506D02*
X014632Y020769D01*
X014259Y020769D01*
X013995Y020506D01*
X013995Y020133D01*
X014259Y019869D01*
X014632Y019869D01*
X014895Y020133D01*
X014895Y020506D01*
X014763Y020638D02*
X015128Y020638D01*
X015226Y020737D02*
X014664Y020737D01*
X014632Y020869D02*
X014895Y021133D01*
X014895Y021506D01*
X014632Y021769D01*
X014259Y021769D01*
X013995Y021506D01*
X013995Y021133D01*
X014259Y020869D01*
X014632Y020869D01*
X014696Y020934D02*
X015195Y020934D01*
X015096Y021032D02*
X014794Y021032D01*
X014893Y021131D02*
X014998Y021131D01*
X014995Y021229D02*
X014895Y021229D01*
X014895Y021328D02*
X014995Y021328D01*
X014995Y021426D02*
X014895Y021426D01*
X014876Y021525D02*
X015014Y021525D01*
X015113Y021623D02*
X014778Y021623D01*
X014679Y021722D02*
X015211Y021722D01*
X014211Y021722D02*
X013679Y021722D01*
X013632Y021769D02*
X013259Y021769D01*
X012995Y021506D01*
X012995Y021133D01*
X013259Y020869D01*
X013632Y020869D01*
X013895Y021133D01*
X013895Y021506D01*
X013632Y021769D01*
X013778Y021623D02*
X014113Y021623D01*
X014014Y021525D02*
X013876Y021525D01*
X013895Y021426D02*
X013995Y021426D01*
X013995Y021328D02*
X013895Y021328D01*
X013895Y021229D02*
X013995Y021229D01*
X013998Y021131D02*
X013893Y021131D01*
X013794Y021032D02*
X014096Y021032D01*
X014195Y020934D02*
X013696Y020934D01*
X013632Y020769D02*
X013259Y020769D01*
X012995Y020506D01*
X012995Y020133D01*
X013259Y019869D01*
X013632Y019869D01*
X013895Y020133D01*
X013895Y020506D01*
X013632Y020769D01*
X013664Y020737D02*
X014226Y020737D01*
X014128Y020638D02*
X013763Y020638D01*
X013861Y020540D02*
X014029Y020540D01*
X013995Y020441D02*
X013895Y020441D01*
X013895Y020343D02*
X013995Y020343D01*
X013995Y020244D02*
X013895Y020244D01*
X013895Y020146D02*
X013995Y020146D01*
X014081Y020047D02*
X013809Y020047D01*
X013711Y019949D02*
X014180Y019949D01*
X014711Y019949D02*
X015180Y019949D01*
X015081Y020047D02*
X014809Y020047D01*
X014895Y020146D02*
X014995Y020146D01*
X014995Y020244D02*
X014895Y020244D01*
X015395Y020244D02*
X015495Y020244D01*
X015495Y020146D02*
X015395Y020146D01*
X015395Y020047D02*
X015495Y020047D01*
X015495Y019949D02*
X015395Y019949D01*
X015711Y019949D02*
X016180Y019949D01*
X016081Y020047D02*
X015809Y020047D01*
X015895Y020146D02*
X015995Y020146D01*
X015995Y020244D02*
X015895Y020244D01*
X015495Y020540D02*
X015395Y020540D01*
X015395Y020638D02*
X015495Y020638D01*
X015495Y020737D02*
X015395Y020737D01*
X016664Y020737D02*
X017226Y020737D01*
X017128Y020638D02*
X016763Y020638D01*
X016861Y020540D02*
X017029Y020540D01*
X016995Y020441D02*
X016895Y020441D01*
X016895Y020343D02*
X016995Y020343D01*
X016995Y020244D02*
X016895Y020244D01*
X016895Y020146D02*
X016995Y020146D01*
X017081Y020047D02*
X016809Y020047D01*
X016711Y019949D02*
X017180Y019949D01*
X017195Y020934D02*
X016696Y020934D01*
X016794Y021032D02*
X017096Y021032D01*
X016998Y021131D02*
X016893Y021131D01*
X016895Y021229D02*
X016995Y021229D01*
X017395Y021229D02*
X017495Y021229D01*
X017495Y021131D02*
X017395Y021131D01*
X017395Y021032D02*
X017495Y021032D01*
X017495Y020934D02*
X017395Y020934D01*
X017395Y021525D02*
X017495Y021525D01*
X017495Y021623D02*
X017395Y021623D01*
X017395Y021722D02*
X017495Y021722D01*
X017679Y021722D02*
X018211Y021722D01*
X018113Y021623D02*
X017778Y021623D01*
X017876Y021525D02*
X018014Y021525D01*
X013211Y021722D02*
X012679Y021722D01*
X012632Y021769D02*
X012495Y021769D01*
X012495Y021369D01*
X012895Y021369D01*
X012895Y021506D01*
X012632Y021769D01*
X012495Y021722D02*
X012395Y021722D01*
X012395Y021769D02*
X012259Y021769D01*
X011995Y021506D01*
X011995Y021369D01*
X012395Y021369D01*
X012395Y021269D01*
X012495Y021269D01*
X012495Y020869D01*
X012632Y020869D01*
X012895Y021133D01*
X012895Y021269D01*
X012495Y021269D01*
X012495Y021369D01*
X012395Y021369D01*
X012395Y021769D01*
X012395Y021623D02*
X012495Y021623D01*
X012495Y021525D02*
X012395Y021525D01*
X012395Y021426D02*
X012495Y021426D01*
X012495Y021328D02*
X012995Y021328D01*
X012995Y021426D02*
X012895Y021426D01*
X012876Y021525D02*
X013014Y021525D01*
X013113Y021623D02*
X012778Y021623D01*
X012895Y021229D02*
X012995Y021229D01*
X012998Y021131D02*
X012893Y021131D01*
X012794Y021032D02*
X013096Y021032D01*
X013195Y020934D02*
X012696Y020934D01*
X012632Y020769D02*
X012259Y020769D01*
X011995Y020506D01*
X011995Y020133D01*
X012259Y019869D01*
X012632Y019869D01*
X012895Y020133D01*
X012895Y020506D01*
X012632Y020769D01*
X012664Y020737D02*
X013226Y020737D01*
X013128Y020638D02*
X012763Y020638D01*
X012861Y020540D02*
X013029Y020540D01*
X012995Y020441D02*
X012895Y020441D01*
X012895Y020343D02*
X012995Y020343D01*
X012995Y020244D02*
X012895Y020244D01*
X012895Y020146D02*
X012995Y020146D01*
X013081Y020047D02*
X012809Y020047D01*
X012711Y019949D02*
X013180Y019949D01*
X012226Y020737D02*
X011664Y020737D01*
X011632Y020769D02*
X011259Y020769D01*
X010995Y020506D01*
X010995Y020133D01*
X011259Y019869D01*
X011632Y019869D01*
X011895Y020133D01*
X011895Y020506D01*
X011632Y020769D01*
X011632Y020869D02*
X011259Y020869D01*
X010995Y021133D01*
X010995Y021506D01*
X011259Y021769D01*
X011632Y021769D01*
X011895Y021506D01*
X011895Y021133D01*
X011632Y020869D01*
X011696Y020934D02*
X012195Y020934D01*
X012259Y020869D02*
X011995Y021133D01*
X011995Y021269D01*
X012395Y021269D01*
X012395Y020869D01*
X012259Y020869D01*
X012395Y020934D02*
X012495Y020934D01*
X012495Y021032D02*
X012395Y021032D01*
X012395Y021131D02*
X012495Y021131D01*
X012495Y021229D02*
X012395Y021229D01*
X012395Y021328D02*
X011895Y021328D01*
X011895Y021426D02*
X011995Y021426D01*
X012014Y021525D02*
X011876Y021525D01*
X011778Y021623D02*
X012113Y021623D01*
X012211Y021722D02*
X011679Y021722D01*
X011211Y021722D02*
X010679Y021722D01*
X010632Y021769D02*
X010895Y021506D01*
X010895Y021133D01*
X010632Y020869D01*
X010259Y020869D01*
X009995Y021133D01*
X009995Y021506D01*
X010259Y021769D01*
X010632Y021769D01*
X010778Y021623D02*
X011113Y021623D01*
X011014Y021525D02*
X010876Y021525D01*
X010895Y021426D02*
X010995Y021426D01*
X010995Y021328D02*
X010895Y021328D01*
X010895Y021229D02*
X010995Y021229D01*
X010998Y021131D02*
X010893Y021131D01*
X010794Y021032D02*
X011096Y021032D01*
X011195Y020934D02*
X010696Y020934D01*
X010632Y020769D02*
X010259Y020769D01*
X009995Y020506D01*
X009995Y020133D01*
X010259Y019869D01*
X010632Y019869D01*
X010895Y020133D01*
X010895Y020506D01*
X010632Y020769D01*
X010664Y020737D02*
X011226Y020737D01*
X011128Y020638D02*
X010763Y020638D01*
X010861Y020540D02*
X011029Y020540D01*
X010995Y020441D02*
X010895Y020441D01*
X010895Y020343D02*
X010995Y020343D01*
X010995Y020244D02*
X010895Y020244D01*
X010895Y020146D02*
X010995Y020146D01*
X011081Y020047D02*
X010809Y020047D01*
X010711Y019949D02*
X011180Y019949D01*
X011711Y019949D02*
X012180Y019949D01*
X012081Y020047D02*
X011809Y020047D01*
X011895Y020146D02*
X011995Y020146D01*
X011995Y020244D02*
X011895Y020244D01*
X011895Y020343D02*
X011995Y020343D01*
X011995Y020441D02*
X011895Y020441D01*
X011861Y020540D02*
X012029Y020540D01*
X012128Y020638D02*
X011763Y020638D01*
X011794Y021032D02*
X012096Y021032D01*
X011998Y021131D02*
X011893Y021131D01*
X011895Y021229D02*
X011995Y021229D01*
X010195Y020934D02*
X009696Y020934D01*
X009794Y021032D02*
X010096Y021032D01*
X009998Y021131D02*
X009893Y021131D01*
X009895Y021229D02*
X009995Y021229D01*
X009995Y021328D02*
X009495Y021328D01*
X009495Y021229D02*
X009395Y021229D01*
X009395Y021131D02*
X009495Y021131D01*
X009495Y021032D02*
X009395Y021032D01*
X009395Y020934D02*
X009495Y020934D01*
X009664Y020737D02*
X010226Y020737D01*
X010128Y020638D02*
X009763Y020638D01*
X009861Y020540D02*
X010029Y020540D01*
X009995Y020441D02*
X009895Y020441D01*
X009895Y020343D02*
X009995Y020343D01*
X009995Y020244D02*
X009895Y020244D01*
X009895Y020146D02*
X009995Y020146D01*
X010081Y020047D02*
X009809Y020047D01*
X009711Y019949D02*
X010180Y019949D01*
X009995Y021426D02*
X009895Y021426D01*
X009876Y021525D02*
X010014Y021525D01*
X010113Y021623D02*
X009778Y021623D01*
X009679Y021722D02*
X010211Y021722D01*
X006870Y019370D02*
X006730Y019510D01*
X001074Y019653D02*
X000300Y019653D01*
X000300Y019752D02*
X000854Y019752D01*
X000737Y019850D02*
X000300Y019850D01*
X000300Y019949D02*
X000619Y019949D01*
X000529Y020047D02*
X000300Y020047D01*
X000300Y020146D02*
X000472Y020146D01*
X000415Y020244D02*
X000300Y020244D01*
X000300Y020343D02*
X000358Y020343D01*
X000324Y020441D02*
X000300Y020441D01*
X000300Y020540D02*
X000307Y020540D01*
X025037Y019752D02*
X025591Y019752D01*
X025591Y019850D02*
X025154Y019850D01*
X025271Y019949D02*
X025591Y019949D01*
X025591Y020047D02*
X025361Y020047D01*
X025418Y020146D02*
X025591Y020146D01*
X025591Y020244D02*
X025475Y020244D01*
X025532Y020343D02*
X025591Y020343D01*
X025591Y020441D02*
X025566Y020441D01*
X025584Y020540D02*
X025591Y020540D01*
D22*
X008310Y011430D02*
X008310Y010130D01*
X008350Y010090D01*
X007850Y010090D02*
X007830Y010110D01*
X007830Y010950D01*
X007100Y010560D02*
X007100Y008960D01*
X007270Y008790D01*
X007925Y008790D01*
X007950Y008765D01*
X006750Y008765D02*
X006750Y009150D01*
X006630Y009270D01*
X006310Y009270D01*
X006350Y010090D02*
X006350Y010670D01*
X006390Y010710D01*
X006950Y010710D01*
X007100Y010560D01*
X006300Y011680D02*
X006000Y011680D01*
X005990Y011670D01*
X006300Y011680D02*
X006350Y011730D01*
X006350Y011980D01*
X006310Y012020D01*
X006310Y012200D01*
X004950Y010950D02*
X004630Y010950D01*
X004193Y011387D01*
X003630Y011387D01*
X003630Y010206D02*
X003630Y009812D01*
D23*
X003350Y004550D02*
X003350Y004546D01*
X002257Y004546D01*
X024569Y016694D02*
X024569Y017694D01*
D24*
X022150Y014150D02*
X021884Y014069D01*
X022150Y014150D02*
X022150Y013650D01*
X022650Y013150D01*
X022569Y012944D01*
X022650Y013150D02*
X023650Y013150D01*
X023802Y012944D01*
D25*
X023429Y014069D02*
X023590Y014230D01*
X023590Y015910D01*
X023750Y016070D01*
X024470Y016070D01*
X024630Y016230D01*
X024630Y016634D01*
X024569Y016694D01*
X021884Y015569D02*
X019329Y015569D01*
X019270Y015510D01*
X018790Y015510D01*
X019270Y014950D02*
X019389Y015069D01*
X021884Y015069D01*
X021884Y014069D02*
X019751Y014069D01*
X019430Y014390D01*
X018790Y014390D01*
X018790Y014950D02*
X019270Y014950D01*
X021884Y014069D02*
X023429Y014069D01*
X008870Y010710D02*
X008850Y010690D01*
X008850Y010090D01*
X008390Y009350D02*
X007990Y009350D01*
X007950Y009310D01*
X007950Y008765D01*
X006850Y008865D02*
X006750Y008765D01*
X006850Y008865D02*
X006850Y010090D01*
X007350Y010090D02*
X007350Y010630D01*
X006950Y011030D01*
X006090Y011030D01*
X005850Y010790D01*
X005850Y010090D02*
X005830Y010070D01*
X004870Y010070D01*
X004341Y010599D01*
X003630Y010599D01*
X003050Y010599D01*
X002981Y010599D01*
X002710Y010870D01*
X002710Y012310D01*
X002968Y012568D01*
X003630Y012568D01*
D26*
X004950Y011510D03*
X004950Y010950D03*
X006310Y009270D03*
X008390Y009350D03*
X003350Y004550D03*
X018790Y014390D03*
X018790Y014950D03*
X018790Y015510D03*
X020780Y014559D03*
D27*
X008870Y010710D03*
X008310Y011430D03*
X007830Y010950D03*
M02*
