G75*
%MOIN*%
%OFA0B0*%
%FSLAX24Y24*%
%IPPOS*%
%LPD*%
%AMOC8*
5,1,8,0,0,1.08239X$1,22.5*
%
%ADD10C,0.0000*%
%ADD11C,0.0050*%
%ADD12C,0.0070*%
%ADD13C,0.0060*%
%ADD14R,0.0200X0.0200*%
%ADD15C,0.0080*%
%ADD16R,0.0598X0.0193*%
%ADD17C,0.0040*%
%ADD18R,0.0140X0.0560*%
%ADD19R,0.0197X0.0512*%
%ADD20R,0.6045X0.0015*%
%ADD21R,0.6045X0.0015*%
%ADD22R,0.0045X0.0015*%
%ADD23R,0.0045X0.0015*%
%ADD24R,0.0165X0.0015*%
%ADD25R,0.0345X0.0015*%
%ADD26R,0.0465X0.0015*%
%ADD27R,0.0555X0.0015*%
%ADD28R,0.0630X0.0015*%
%ADD29R,0.0705X0.0015*%
%ADD30R,0.4335X0.0015*%
%ADD31R,0.0765X0.0015*%
%ADD32R,0.4320X0.0015*%
%ADD33R,0.0795X0.0015*%
%ADD34R,0.4305X0.0015*%
%ADD35R,0.0855X0.0015*%
%ADD36R,0.4290X0.0015*%
%ADD37R,0.0915X0.0015*%
%ADD38R,0.4275X0.0015*%
%ADD39R,0.0360X0.0015*%
%ADD40R,0.4260X0.0015*%
%ADD41R,0.0315X0.0015*%
%ADD42R,0.4245X0.0015*%
%ADD43R,0.0300X0.0015*%
%ADD44R,0.4230X0.0015*%
%ADD45R,0.0270X0.0015*%
%ADD46R,0.0255X0.0015*%
%ADD47R,0.4215X0.0015*%
%ADD48R,0.0240X0.0015*%
%ADD49R,0.4200X0.0015*%
%ADD50R,0.0225X0.0015*%
%ADD51R,0.4185X0.0015*%
%ADD52R,0.0210X0.0015*%
%ADD53R,0.4170X0.0015*%
%ADD54R,0.4155X0.0015*%
%ADD55R,0.0195X0.0015*%
%ADD56R,0.0405X0.0015*%
%ADD57R,0.0105X0.0015*%
%ADD58R,0.0060X0.0015*%
%ADD59R,0.0075X0.0015*%
%ADD60R,0.0180X0.0015*%
%ADD61R,0.1155X0.0015*%
%ADD62R,0.0390X0.0015*%
%ADD63R,0.0090X0.0015*%
%ADD64R,0.0150X0.0015*%
%ADD65R,0.0135X0.0015*%
%ADD66R,0.0375X0.0015*%
%ADD67R,0.0120X0.0015*%
%ADD68R,0.0330X0.0015*%
%ADD69R,0.0435X0.0015*%
%ADD70R,0.0030X0.0015*%
%ADD71R,0.0480X0.0015*%
%ADD72R,0.0495X0.0015*%
%ADD73R,0.0015X0.0015*%
%ADD74R,0.0285X0.0015*%
%ADD75R,0.0450X0.0015*%
%ADD76R,0.0525X0.0015*%
%ADD77R,0.0885X0.0015*%
%ADD78R,0.3015X0.0015*%
%ADD79R,0.4020X0.0015*%
%ADD80R,0.0600X0.0015*%
%ADD81R,0.0570X0.0015*%
%ADD82R,0.0825X0.0015*%
%ADD83R,0.1440X0.0015*%
%ADD84R,0.1545X0.0015*%
%ADD85R,0.1500X0.0015*%
%ADD86R,0.1485X0.0015*%
%ADD87R,0.1455X0.0015*%
%ADD88R,0.1425X0.0015*%
%ADD89R,0.0510X0.0015*%
%ADD90R,0.0720X0.0015*%
%ADD91R,0.1410X0.0015*%
%ADD92R,0.0750X0.0015*%
%ADD93R,0.0945X0.0015*%
%ADD94R,0.0420X0.0015*%
%ADD95R,0.1395X0.0015*%
%ADD96R,0.1710X0.0015*%
%ADD97R,0.1695X0.0015*%
%ADD98R,0.1515X0.0015*%
%ADD99R,0.2565X0.0015*%
%ADD100R,0.1575X0.0015*%
%ADD101R,0.4350X0.0015*%
%ADD102R,0.4365X0.0015*%
%ADD103R,0.4395X0.0015*%
%ADD104R,0.0060X0.0015*%
%ADD105R,0.5985X0.0015*%
%ADD106R,0.5955X0.0015*%
%ADD107R,0.5910X0.0015*%
%ADD108R,0.0400X0.0010*%
%ADD109R,0.0760X0.0010*%
%ADD110R,0.0960X0.0010*%
%ADD111R,0.1030X0.0010*%
%ADD112R,0.1120X0.0010*%
%ADD113R,0.1190X0.0010*%
%ADD114R,0.1220X0.0010*%
%ADD115R,0.1260X0.0010*%
%ADD116R,0.1300X0.0010*%
%ADD117R,0.1320X0.0010*%
%ADD118R,0.1350X0.0010*%
%ADD119R,0.1370X0.0010*%
%ADD120R,0.1380X0.0010*%
%ADD121R,0.1400X0.0010*%
%ADD122R,0.1420X0.0010*%
%ADD123R,0.0600X0.0010*%
%ADD124R,0.0610X0.0010*%
%ADD125R,0.0420X0.0010*%
%ADD126R,0.0330X0.0010*%
%ADD127R,0.0360X0.0010*%
%ADD128R,0.0320X0.0010*%
%ADD129R,0.0280X0.0010*%
%ADD130R,0.0300X0.0010*%
%ADD131R,0.0260X0.0010*%
%ADD132R,0.0270X0.0010*%
%ADD133R,0.0240X0.0010*%
%ADD134R,0.0250X0.0010*%
%ADD135R,0.0230X0.0010*%
%ADD136R,0.0220X0.0010*%
%ADD137R,0.0210X0.0010*%
%ADD138R,0.0200X0.0010*%
%ADD139R,0.0190X0.0010*%
%ADD140R,0.0180X0.0010*%
%ADD141R,0.0170X0.0010*%
%ADD142R,0.0480X0.0010*%
%ADD143R,0.1410X0.0010*%
%ADD144R,0.1390X0.0010*%
%ADD145R,0.1360X0.0010*%
%ADD146R,0.1330X0.0010*%
%ADD147R,0.1310X0.0010*%
%ADD148R,0.1210X0.0010*%
%ADD149R,0.1160X0.0010*%
%ADD150R,0.1090X0.0010*%
%ADD151R,0.0970X0.0010*%
%ADD152R,0.0840X0.0010*%
%ADD153R,0.0660X0.0010*%
%ADD154R,0.0050X0.0010*%
%ADD155R,0.0790X0.0010*%
%ADD156R,0.0800X0.0010*%
%ADD157R,0.0780X0.0010*%
%ADD158R,0.0310X0.0010*%
%ADD159R,0.0290X0.0010*%
%ADD160R,0.0150X0.0010*%
%ADD161R,0.0160X0.0010*%
%ADD162R,0.0140X0.0010*%
%ADD163R,0.0130X0.0010*%
%ADD164R,0.0640X0.0010*%
%ADD165R,0.0590X0.0010*%
%ADD166R,0.0560X0.0010*%
%ADD167R,0.0540X0.0010*%
%ADD168R,0.0500X0.0010*%
%ADD169R,0.0470X0.0010*%
%ADD170R,0.0430X0.0010*%
%ADD171R,0.0030X0.0010*%
%ADD172R,0.0040X0.0010*%
%ADD173R,0.0020X0.0010*%
%ADD174R,0.1559X0.0016*%
%ADD175R,0.0031X0.0016*%
%ADD176R,0.0016X0.0016*%
%ADD177R,0.0063X0.0016*%
%ADD178R,0.0047X0.0016*%
%ADD179R,0.0094X0.0016*%
%ADD180R,0.0157X0.0016*%
%ADD181R,0.0189X0.0016*%
%ADD182R,0.0220X0.0016*%
%ADD183R,0.0252X0.0016*%
%ADD184R,0.0110X0.0016*%
%ADD185R,0.0583X0.0016*%
%ADD186R,0.0567X0.0016*%
%ADD187R,0.0079X0.0016*%
%ADD188R,0.0142X0.0016*%
%ADD189R,0.0126X0.0016*%
%ADD190R,0.0283X0.0016*%
%ADD191R,0.0268X0.0016*%
%ADD192R,0.0236X0.0016*%
%ADD193R,0.0362X0.0016*%
%ADD194R,0.0378X0.0016*%
%ADD195R,0.0331X0.0016*%
%ADD196R,0.0173X0.0016*%
%ADD197R,0.0945X0.0016*%
%ADD198R,0.1024X0.0016*%
%ADD199R,0.1039X0.0016*%
%ADD200R,0.0205X0.0016*%
%ADD201R,0.0457X0.0016*%
%ADD202R,0.0299X0.0016*%
%ADD203R,0.0614X0.0016*%
%ADD204R,0.0394X0.0016*%
%ADD205R,0.0441X0.0016*%
%ADD206R,0.0551X0.0016*%
%ADD207R,0.0724X0.0016*%
%ADD208R,0.0803X0.0016*%
%ADD209R,0.0866X0.0016*%
%ADD210R,0.0976X0.0016*%
%ADD211R,0.0315X0.0016*%
%ADD212R,0.0409X0.0016*%
%ADD213R,0.0488X0.0016*%
%ADD214R,0.0520X0.0016*%
%ADD215R,0.0346X0.0016*%
%ADD216R,0.0535X0.0016*%
%ADD217R,0.0992X0.0016*%
%ADD218R,0.0898X0.0016*%
%ADD219R,0.0819X0.0016*%
%ADD220R,0.0496X0.0024*%
%ADD221R,0.1016X0.0024*%
%ADD222R,0.1346X0.0024*%
%ADD223R,0.0071X0.0024*%
%ADD224R,0.0094X0.0024*%
%ADD225R,0.0685X0.0024*%
%ADD226R,0.0732X0.0024*%
%ADD227R,0.0260X0.0024*%
%ADD228R,0.0189X0.0024*%
%ADD229R,0.0213X0.0024*%
%ADD230R,0.0283X0.0024*%
%ADD231R,0.0449X0.0024*%
%ADD232R,0.0165X0.0024*%
%ADD233R,0.0142X0.0024*%
%ADD234R,0.0118X0.0024*%
%ADD235R,0.0425X0.0024*%
%ADD236R,0.0354X0.0024*%
%ADD237R,0.0402X0.0024*%
%ADD238R,0.0024X0.0024*%
%ADD239R,0.0378X0.0024*%
%ADD240R,0.0047X0.0024*%
%ADD241R,0.0307X0.0024*%
%ADD242R,0.0331X0.0024*%
%ADD243R,0.0236X0.0024*%
%ADD244R,0.0520X0.0024*%
%ADD245R,0.0614X0.0024*%
%ADD246R,0.1205X0.0024*%
%ADD247R,0.0969X0.0024*%
%ADD248R,0.0140X0.0400*%
%ADD249R,0.0374X0.0197*%
%ADD250R,0.0374X0.0197*%
%ADD251C,0.0020*%
%ADD252C,0.0010*%
%ADD253C,0.0039*%
%ADD254C,0.0010*%
D10*
X000150Y001331D02*
X000150Y007433D01*
X000152Y007472D01*
X000158Y007510D01*
X000167Y007547D01*
X000180Y007584D01*
X000197Y007619D01*
X000216Y007652D01*
X000239Y007683D01*
X000265Y007712D01*
X000294Y007738D01*
X000325Y007761D01*
X000358Y007780D01*
X000393Y007797D01*
X000430Y007810D01*
X000467Y007819D01*
X000505Y007825D01*
X000544Y007827D01*
X001725Y007827D01*
X001764Y007829D01*
X001802Y007835D01*
X001839Y007844D01*
X001876Y007857D01*
X001911Y007874D01*
X001944Y007893D01*
X001975Y007916D01*
X002004Y007942D01*
X002030Y007971D01*
X002053Y008002D01*
X002072Y008035D01*
X002089Y008070D01*
X002102Y008107D01*
X002111Y008144D01*
X002117Y008182D01*
X002119Y008221D01*
X002119Y014126D01*
X002117Y014165D01*
X002111Y014203D01*
X002102Y014240D01*
X002089Y014277D01*
X002072Y014312D01*
X002053Y014345D01*
X002030Y014376D01*
X002004Y014405D01*
X001975Y014431D01*
X001944Y014454D01*
X001911Y014473D01*
X001876Y014490D01*
X001839Y014503D01*
X001802Y014512D01*
X001764Y014518D01*
X001725Y014520D01*
X000544Y014520D01*
X000505Y014522D01*
X000467Y014528D01*
X000430Y014537D01*
X000393Y014550D01*
X000358Y014567D01*
X000325Y014586D01*
X000294Y014609D01*
X000265Y014635D01*
X000239Y014664D01*
X000216Y014695D01*
X000197Y014728D01*
X000180Y014763D01*
X000167Y014800D01*
X000158Y014837D01*
X000152Y014875D01*
X000150Y014914D01*
X000150Y021016D01*
X000152Y021082D01*
X000157Y021148D01*
X000167Y021214D01*
X000180Y021279D01*
X000196Y021343D01*
X000216Y021406D01*
X000240Y021468D01*
X000267Y021528D01*
X000297Y021587D01*
X000331Y021644D01*
X000368Y021699D01*
X000408Y021752D01*
X000450Y021803D01*
X000496Y021851D01*
X000544Y021897D01*
X000595Y021939D01*
X000648Y021979D01*
X000703Y022016D01*
X000760Y022050D01*
X000819Y022080D01*
X000879Y022107D01*
X000941Y022131D01*
X001004Y022151D01*
X001068Y022167D01*
X001133Y022180D01*
X001199Y022190D01*
X001265Y022195D01*
X001331Y022197D01*
X024559Y022197D01*
X024625Y022195D01*
X024691Y022190D01*
X024757Y022180D01*
X024822Y022167D01*
X024886Y022151D01*
X024949Y022131D01*
X025011Y022107D01*
X025071Y022080D01*
X025130Y022050D01*
X025187Y022016D01*
X025242Y021979D01*
X025295Y021939D01*
X025346Y021897D01*
X025394Y021851D01*
X025440Y021803D01*
X025482Y021752D01*
X025522Y021699D01*
X025559Y021644D01*
X025593Y021587D01*
X025623Y021528D01*
X025650Y021468D01*
X025674Y021406D01*
X025694Y021343D01*
X025710Y021279D01*
X025723Y021214D01*
X025733Y021148D01*
X025738Y021082D01*
X025740Y021016D01*
X025741Y021016D02*
X025741Y001331D01*
X025740Y001331D02*
X025738Y001265D01*
X025733Y001199D01*
X025723Y001133D01*
X025710Y001068D01*
X025694Y001004D01*
X025674Y000941D01*
X025650Y000879D01*
X025623Y000819D01*
X025593Y000760D01*
X025559Y000703D01*
X025522Y000648D01*
X025482Y000595D01*
X025440Y000544D01*
X025394Y000496D01*
X025346Y000450D01*
X025295Y000408D01*
X025242Y000368D01*
X025187Y000331D01*
X025130Y000297D01*
X025071Y000267D01*
X025011Y000240D01*
X024949Y000216D01*
X024886Y000196D01*
X024822Y000180D01*
X024757Y000167D01*
X024691Y000157D01*
X024625Y000152D01*
X024559Y000150D01*
X001331Y000150D01*
X001265Y000152D01*
X001199Y000157D01*
X001133Y000167D01*
X001068Y000180D01*
X001004Y000196D01*
X000941Y000216D01*
X000879Y000240D01*
X000819Y000267D01*
X000760Y000297D01*
X000703Y000331D01*
X000648Y000368D01*
X000595Y000408D01*
X000544Y000450D01*
X000496Y000496D01*
X000450Y000544D01*
X000408Y000595D01*
X000368Y000648D01*
X000331Y000703D01*
X000297Y000760D01*
X000267Y000819D01*
X000240Y000879D01*
X000216Y000941D01*
X000196Y001004D01*
X000180Y001068D01*
X000167Y001133D01*
X000157Y001199D01*
X000152Y001265D01*
X000150Y001331D01*
X000977Y001528D02*
X000979Y001575D01*
X000985Y001621D01*
X000995Y001667D01*
X001008Y001712D01*
X001026Y001755D01*
X001047Y001797D01*
X001071Y001837D01*
X001099Y001874D01*
X001130Y001909D01*
X001164Y001942D01*
X001200Y001971D01*
X001239Y001997D01*
X001280Y002020D01*
X001323Y002039D01*
X001367Y002055D01*
X001412Y002067D01*
X001458Y002075D01*
X001505Y002079D01*
X001551Y002079D01*
X001598Y002075D01*
X001644Y002067D01*
X001689Y002055D01*
X001733Y002039D01*
X001776Y002020D01*
X001817Y001997D01*
X001856Y001971D01*
X001892Y001942D01*
X001926Y001909D01*
X001957Y001874D01*
X001985Y001837D01*
X002009Y001797D01*
X002030Y001755D01*
X002048Y001712D01*
X002061Y001667D01*
X002071Y001621D01*
X002077Y001575D01*
X002079Y001528D01*
X002077Y001481D01*
X002071Y001435D01*
X002061Y001389D01*
X002048Y001344D01*
X002030Y001301D01*
X002009Y001259D01*
X001985Y001219D01*
X001957Y001182D01*
X001926Y001147D01*
X001892Y001114D01*
X001856Y001085D01*
X001817Y001059D01*
X001776Y001036D01*
X001733Y001017D01*
X001689Y001001D01*
X001644Y000989D01*
X001598Y000981D01*
X001551Y000977D01*
X001505Y000977D01*
X001458Y000981D01*
X001412Y000989D01*
X001367Y001001D01*
X001323Y001017D01*
X001280Y001036D01*
X001239Y001059D01*
X001200Y001085D01*
X001164Y001114D01*
X001130Y001147D01*
X001099Y001182D01*
X001071Y001219D01*
X001047Y001259D01*
X001026Y001301D01*
X001008Y001344D01*
X000995Y001389D01*
X000985Y001435D01*
X000979Y001481D01*
X000977Y001528D01*
X001273Y004279D02*
X001275Y004304D01*
X001281Y004328D01*
X001290Y004350D01*
X001303Y004371D01*
X001319Y004390D01*
X001338Y004406D01*
X001359Y004419D01*
X001381Y004428D01*
X001405Y004434D01*
X001430Y004436D01*
X001455Y004434D01*
X001479Y004428D01*
X001501Y004419D01*
X001522Y004406D01*
X001541Y004390D01*
X001557Y004371D01*
X001570Y004350D01*
X001579Y004328D01*
X001585Y004304D01*
X001587Y004279D01*
X001585Y004254D01*
X001579Y004230D01*
X001570Y004208D01*
X001557Y004187D01*
X001541Y004168D01*
X001522Y004152D01*
X001501Y004139D01*
X001479Y004130D01*
X001455Y004124D01*
X001430Y004122D01*
X001405Y004124D01*
X001381Y004130D01*
X001359Y004139D01*
X001338Y004152D01*
X001319Y004168D01*
X001303Y004187D01*
X001290Y004208D01*
X001281Y004230D01*
X001275Y004254D01*
X001273Y004279D01*
X001273Y005461D02*
X001275Y005486D01*
X001281Y005510D01*
X001290Y005532D01*
X001303Y005553D01*
X001319Y005572D01*
X001338Y005588D01*
X001359Y005601D01*
X001381Y005610D01*
X001405Y005616D01*
X001430Y005618D01*
X001455Y005616D01*
X001479Y005610D01*
X001501Y005601D01*
X001522Y005588D01*
X001541Y005572D01*
X001557Y005553D01*
X001570Y005532D01*
X001579Y005510D01*
X001585Y005486D01*
X001587Y005461D01*
X001585Y005436D01*
X001579Y005412D01*
X001570Y005390D01*
X001557Y005369D01*
X001541Y005350D01*
X001522Y005334D01*
X001501Y005321D01*
X001479Y005312D01*
X001455Y005306D01*
X001430Y005304D01*
X001405Y005306D01*
X001381Y005312D01*
X001359Y005321D01*
X001338Y005334D01*
X001319Y005350D01*
X001303Y005369D01*
X001290Y005390D01*
X001281Y005412D01*
X001275Y005436D01*
X001273Y005461D01*
X017473Y007630D02*
X017473Y001725D01*
X017475Y001686D01*
X017481Y001648D01*
X017490Y001611D01*
X017503Y001574D01*
X017520Y001539D01*
X017539Y001506D01*
X017562Y001475D01*
X017588Y001446D01*
X017617Y001420D01*
X017648Y001397D01*
X017681Y001378D01*
X017716Y001361D01*
X017753Y001348D01*
X017790Y001339D01*
X017828Y001333D01*
X017867Y001331D01*
X017906Y001333D01*
X017944Y001339D01*
X017981Y001348D01*
X018018Y001361D01*
X018053Y001378D01*
X018086Y001397D01*
X018117Y001420D01*
X018146Y001446D01*
X018172Y001475D01*
X018195Y001506D01*
X018214Y001539D01*
X018231Y001574D01*
X018244Y001611D01*
X018253Y001648D01*
X018259Y001686D01*
X018261Y001725D01*
X018260Y001725D02*
X018260Y007630D01*
X017867Y008024D02*
X017828Y008022D01*
X017790Y008016D01*
X017753Y008007D01*
X017716Y007994D01*
X017681Y007977D01*
X017648Y007958D01*
X017617Y007935D01*
X017588Y007909D01*
X017562Y007880D01*
X017539Y007849D01*
X017520Y007816D01*
X017503Y007781D01*
X017490Y007744D01*
X017481Y007707D01*
X017475Y007669D01*
X017473Y007630D01*
X017867Y008024D02*
X017906Y008022D01*
X017944Y008016D01*
X017981Y008007D01*
X018018Y007994D01*
X018053Y007977D01*
X018086Y007958D01*
X018117Y007935D01*
X018146Y007909D01*
X018172Y007880D01*
X018195Y007849D01*
X018214Y007816D01*
X018231Y007781D01*
X018244Y007744D01*
X018253Y007707D01*
X018259Y007669D01*
X018261Y007630D01*
X023812Y001528D02*
X023814Y001575D01*
X023820Y001621D01*
X023830Y001667D01*
X023843Y001712D01*
X023861Y001755D01*
X023882Y001797D01*
X023906Y001837D01*
X023934Y001874D01*
X023965Y001909D01*
X023999Y001942D01*
X024035Y001971D01*
X024074Y001997D01*
X024115Y002020D01*
X024158Y002039D01*
X024202Y002055D01*
X024247Y002067D01*
X024293Y002075D01*
X024340Y002079D01*
X024386Y002079D01*
X024433Y002075D01*
X024479Y002067D01*
X024524Y002055D01*
X024568Y002039D01*
X024611Y002020D01*
X024652Y001997D01*
X024691Y001971D01*
X024727Y001942D01*
X024761Y001909D01*
X024792Y001874D01*
X024820Y001837D01*
X024844Y001797D01*
X024865Y001755D01*
X024883Y001712D01*
X024896Y001667D01*
X024906Y001621D01*
X024912Y001575D01*
X024914Y001528D01*
X024912Y001481D01*
X024906Y001435D01*
X024896Y001389D01*
X024883Y001344D01*
X024865Y001301D01*
X024844Y001259D01*
X024820Y001219D01*
X024792Y001182D01*
X024761Y001147D01*
X024727Y001114D01*
X024691Y001085D01*
X024652Y001059D01*
X024611Y001036D01*
X024568Y001017D01*
X024524Y001001D01*
X024479Y000989D01*
X024433Y000981D01*
X024386Y000977D01*
X024340Y000977D01*
X024293Y000981D01*
X024247Y000989D01*
X024202Y001001D01*
X024158Y001017D01*
X024115Y001036D01*
X024074Y001059D01*
X024035Y001085D01*
X023999Y001114D01*
X023965Y001147D01*
X023934Y001182D01*
X023906Y001219D01*
X023882Y001259D01*
X023861Y001301D01*
X023843Y001344D01*
X023830Y001389D01*
X023820Y001435D01*
X023814Y001481D01*
X023812Y001528D01*
X023812Y020819D02*
X023814Y020866D01*
X023820Y020912D01*
X023830Y020958D01*
X023843Y021003D01*
X023861Y021046D01*
X023882Y021088D01*
X023906Y021128D01*
X023934Y021165D01*
X023965Y021200D01*
X023999Y021233D01*
X024035Y021262D01*
X024074Y021288D01*
X024115Y021311D01*
X024158Y021330D01*
X024202Y021346D01*
X024247Y021358D01*
X024293Y021366D01*
X024340Y021370D01*
X024386Y021370D01*
X024433Y021366D01*
X024479Y021358D01*
X024524Y021346D01*
X024568Y021330D01*
X024611Y021311D01*
X024652Y021288D01*
X024691Y021262D01*
X024727Y021233D01*
X024761Y021200D01*
X024792Y021165D01*
X024820Y021128D01*
X024844Y021088D01*
X024865Y021046D01*
X024883Y021003D01*
X024896Y020958D01*
X024906Y020912D01*
X024912Y020866D01*
X024914Y020819D01*
X024912Y020772D01*
X024906Y020726D01*
X024896Y020680D01*
X024883Y020635D01*
X024865Y020592D01*
X024844Y020550D01*
X024820Y020510D01*
X024792Y020473D01*
X024761Y020438D01*
X024727Y020405D01*
X024691Y020376D01*
X024652Y020350D01*
X024611Y020327D01*
X024568Y020308D01*
X024524Y020292D01*
X024479Y020280D01*
X024433Y020272D01*
X024386Y020268D01*
X024340Y020268D01*
X024293Y020272D01*
X024247Y020280D01*
X024202Y020292D01*
X024158Y020308D01*
X024115Y020327D01*
X024074Y020350D01*
X024035Y020376D01*
X023999Y020405D01*
X023965Y020438D01*
X023934Y020473D01*
X023906Y020510D01*
X023882Y020550D01*
X023861Y020592D01*
X023843Y020635D01*
X023830Y020680D01*
X023820Y020726D01*
X023814Y020772D01*
X023812Y020819D01*
X000977Y020819D02*
X000979Y020866D01*
X000985Y020912D01*
X000995Y020958D01*
X001008Y021003D01*
X001026Y021046D01*
X001047Y021088D01*
X001071Y021128D01*
X001099Y021165D01*
X001130Y021200D01*
X001164Y021233D01*
X001200Y021262D01*
X001239Y021288D01*
X001280Y021311D01*
X001323Y021330D01*
X001367Y021346D01*
X001412Y021358D01*
X001458Y021366D01*
X001505Y021370D01*
X001551Y021370D01*
X001598Y021366D01*
X001644Y021358D01*
X001689Y021346D01*
X001733Y021330D01*
X001776Y021311D01*
X001817Y021288D01*
X001856Y021262D01*
X001892Y021233D01*
X001926Y021200D01*
X001957Y021165D01*
X001985Y021128D01*
X002009Y021088D01*
X002030Y021046D01*
X002048Y021003D01*
X002061Y020958D01*
X002071Y020912D01*
X002077Y020866D01*
X002079Y020819D01*
X002077Y020772D01*
X002071Y020726D01*
X002061Y020680D01*
X002048Y020635D01*
X002030Y020592D01*
X002009Y020550D01*
X001985Y020510D01*
X001957Y020473D01*
X001926Y020438D01*
X001892Y020405D01*
X001856Y020376D01*
X001817Y020350D01*
X001776Y020327D01*
X001733Y020308D01*
X001689Y020292D01*
X001644Y020280D01*
X001598Y020272D01*
X001551Y020268D01*
X001505Y020268D01*
X001458Y020272D01*
X001412Y020280D01*
X001367Y020292D01*
X001323Y020308D01*
X001280Y020327D01*
X001239Y020350D01*
X001200Y020376D01*
X001164Y020405D01*
X001130Y020438D01*
X001099Y020473D01*
X001071Y020510D01*
X001047Y020550D01*
X001026Y020592D01*
X001008Y020635D01*
X000995Y020680D01*
X000985Y020726D01*
X000979Y020772D01*
X000977Y020819D01*
D11*
X003270Y019495D02*
X003420Y019645D01*
X003420Y019194D01*
X003270Y019194D02*
X003571Y019194D01*
X005670Y011870D02*
X005670Y010460D01*
X009030Y010460D01*
X009030Y011870D01*
X005670Y011870D01*
X006325Y011465D02*
X006325Y011090D01*
X006400Y011015D01*
X006550Y011015D01*
X006625Y011090D01*
X006625Y011465D01*
X006785Y011390D02*
X006860Y011465D01*
X007011Y011465D01*
X007086Y011390D01*
X007011Y011240D02*
X006860Y011240D01*
X006785Y011315D01*
X006785Y011390D01*
X006936Y011540D02*
X006936Y010940D01*
X006860Y011015D02*
X007011Y011015D01*
X007086Y011090D01*
X007086Y011165D01*
X007011Y011240D01*
X007246Y011240D02*
X007396Y011315D01*
X007471Y011315D01*
X007546Y011240D01*
X007546Y011090D01*
X007471Y011015D01*
X007321Y011015D01*
X007246Y011090D01*
X007246Y011240D02*
X007246Y011465D01*
X007546Y011465D01*
X006860Y011015D02*
X006785Y011090D01*
X005760Y010760D02*
X005762Y010789D01*
X005768Y010817D01*
X005777Y010844D01*
X005791Y010869D01*
X005807Y010893D01*
X005827Y010913D01*
X005849Y010932D01*
X005873Y010946D01*
X005900Y010958D01*
X005927Y010966D01*
X005956Y010970D01*
X005984Y010970D01*
X006013Y010966D01*
X006040Y010958D01*
X006067Y010946D01*
X006091Y010932D01*
X006113Y010913D01*
X006133Y010893D01*
X006149Y010869D01*
X006163Y010844D01*
X006172Y010817D01*
X006178Y010789D01*
X006180Y010760D01*
X006178Y010731D01*
X006172Y010703D01*
X006163Y010676D01*
X006149Y010651D01*
X006133Y010627D01*
X006113Y010607D01*
X006091Y010588D01*
X006067Y010574D01*
X006040Y010562D01*
X006013Y010554D01*
X005984Y010550D01*
X005956Y010550D01*
X005927Y010554D01*
X005900Y010562D01*
X005873Y010574D01*
X005849Y010588D01*
X005827Y010607D01*
X005807Y010627D01*
X005791Y010651D01*
X005777Y010676D01*
X005768Y010703D01*
X005762Y010731D01*
X005760Y010760D01*
X005771Y007345D02*
X005696Y007270D01*
X005696Y006970D01*
X005771Y006895D01*
X005921Y006895D01*
X005996Y006970D01*
X005996Y007270D01*
X005921Y007345D01*
X005771Y007345D01*
X005535Y007270D02*
X005460Y007345D01*
X005310Y007345D01*
X005235Y007270D01*
X005235Y007195D01*
X005535Y006895D01*
X005235Y006895D01*
X005696Y006895D02*
X005846Y007045D01*
X001961Y006189D02*
X001961Y005806D01*
X001961Y005648D01*
X001961Y004625D01*
X001961Y004467D01*
X001961Y004034D01*
X001961Y003877D01*
X001961Y003551D01*
X000899Y003551D01*
X000899Y004929D01*
X000899Y005441D01*
X000899Y006189D01*
X001784Y006189D01*
X001961Y006189D01*
X001706Y006189D02*
X001194Y006189D01*
X000899Y006051D02*
X000899Y004850D01*
X000308Y004850D01*
X000308Y004339D01*
X000899Y004339D01*
X000899Y003689D01*
X001194Y003551D02*
X001706Y003551D01*
X000899Y004339D02*
X000899Y004850D01*
X001961Y004752D02*
X001961Y005421D01*
X015303Y017525D02*
X015388Y017525D01*
X015473Y017610D01*
X015473Y018035D01*
X015473Y017695D02*
X015217Y017695D01*
X015132Y017780D01*
X015132Y018035D01*
X014957Y017950D02*
X014957Y017780D01*
X014872Y017695D01*
X014617Y017695D01*
X014617Y018205D01*
X014617Y018035D02*
X014872Y018035D01*
X014957Y017950D01*
X016164Y018205D02*
X016334Y018205D01*
X016249Y018205D02*
X016249Y017695D01*
X016164Y017695D02*
X016334Y017695D01*
X016507Y017695D02*
X016507Y018035D01*
X016507Y017865D02*
X016678Y018035D01*
X016763Y018035D01*
X016937Y017950D02*
X016937Y017780D01*
X017022Y017695D01*
X017277Y017695D01*
X017277Y018205D01*
X017277Y018035D02*
X017022Y018035D01*
X016937Y017950D01*
X017453Y018035D02*
X017453Y017695D01*
X017453Y017865D02*
X017623Y018035D01*
X017708Y018035D01*
X017882Y017950D02*
X017882Y017780D01*
X017968Y017695D01*
X018138Y017695D01*
X018223Y017780D01*
X018223Y017950D01*
X018138Y018035D01*
X017968Y018035D01*
X017882Y017950D01*
X018398Y018035D02*
X018483Y018035D01*
X018483Y017695D01*
X018398Y017695D02*
X018568Y017695D01*
X018742Y017780D02*
X018742Y017950D01*
X018827Y018035D01*
X019082Y018035D01*
X019082Y018205D02*
X019082Y017695D01*
X018827Y017695D01*
X018742Y017780D01*
X018483Y018205D02*
X018483Y018290D01*
X018908Y007944D02*
X019163Y007944D01*
X019163Y007774D02*
X018908Y007774D01*
X018823Y007859D01*
X018908Y007944D01*
X018908Y007774D02*
X018823Y007689D01*
X018823Y007603D01*
X019163Y007603D01*
X019078Y007428D02*
X018908Y007428D01*
X018823Y007343D01*
X018823Y007173D01*
X018908Y007088D01*
X019078Y007088D01*
X019163Y007173D01*
X019163Y007343D01*
X019078Y007428D01*
X019163Y006912D02*
X019163Y006657D01*
X019078Y006572D01*
X018908Y006572D01*
X018823Y006657D01*
X018823Y006912D01*
X019078Y006399D02*
X019163Y006399D01*
X019163Y006314D01*
X019078Y006314D01*
X019078Y006399D01*
X019163Y006139D02*
X019163Y005884D01*
X019078Y005799D01*
X018908Y005799D01*
X018823Y005884D01*
X018823Y006139D01*
X018653Y006139D02*
X019163Y006139D01*
X019163Y005625D02*
X019163Y005455D01*
X019163Y005540D02*
X018823Y005540D01*
X018823Y005455D01*
X018653Y005540D02*
X018567Y005540D01*
X018908Y005280D02*
X018823Y005195D01*
X018823Y005024D01*
X018908Y004939D01*
X019078Y004939D01*
X019163Y005024D01*
X019163Y005195D01*
X019078Y005280D01*
X018908Y005280D01*
X018823Y004765D02*
X018823Y004680D01*
X018993Y004510D01*
X019163Y004510D02*
X018823Y004510D01*
X018823Y004334D02*
X018823Y004079D01*
X018908Y003994D01*
X019078Y003994D01*
X019163Y004079D01*
X019163Y004334D01*
X018653Y004334D01*
X018823Y003819D02*
X018823Y003734D01*
X018993Y003564D01*
X019163Y003564D02*
X018823Y003564D01*
X018823Y003306D02*
X019163Y003306D01*
X019163Y003221D02*
X019163Y003391D01*
X018823Y003306D02*
X018823Y003221D01*
X018653Y003306D02*
X018567Y003306D01*
X019078Y003048D02*
X019163Y003048D01*
X019163Y002963D01*
X019078Y002963D01*
X019078Y003048D01*
X019078Y002787D02*
X018823Y002787D01*
X019078Y002787D02*
X019163Y002702D01*
X019078Y002617D01*
X019163Y002532D01*
X019078Y002447D01*
X018823Y002447D01*
X018823Y002272D02*
X019078Y002272D01*
X019163Y002187D01*
X019078Y002102D01*
X019163Y002016D01*
X019078Y001931D01*
X018823Y001931D01*
X018823Y001756D02*
X019078Y001756D01*
X019163Y001671D01*
X019078Y001586D01*
X019163Y001501D01*
X019078Y001416D01*
X018823Y001416D01*
X020332Y000863D02*
X020332Y000562D01*
X020332Y000713D02*
X020483Y000863D01*
X020558Y000863D01*
X020716Y000788D02*
X020791Y000863D01*
X020941Y000863D01*
X021016Y000788D01*
X021016Y000713D01*
X020716Y000713D01*
X020716Y000788D02*
X020716Y000637D01*
X020791Y000562D01*
X020941Y000562D01*
X021177Y000863D02*
X021327Y000562D01*
X021477Y000863D01*
X021637Y000637D02*
X021712Y000637D01*
X021712Y000562D01*
X021637Y000562D01*
X021637Y000637D01*
X021867Y000562D02*
X022167Y000562D01*
X022017Y000562D02*
X022017Y001013D01*
X021867Y000863D01*
X022328Y000637D02*
X022403Y000637D01*
X022403Y000562D01*
X022328Y000562D01*
X022328Y000637D01*
X022558Y000637D02*
X022858Y000938D01*
X022858Y000637D01*
X022783Y000562D01*
X022633Y000562D01*
X022558Y000637D01*
X022558Y000938D01*
X022633Y001013D01*
X022783Y001013D01*
X022858Y000938D01*
D12*
X022262Y018525D02*
X022262Y019016D01*
X022508Y019016D01*
X022589Y018934D01*
X022589Y018771D01*
X022508Y018689D01*
X022262Y018689D01*
X022074Y018689D02*
X021910Y018852D01*
X021992Y018852D02*
X021747Y018852D01*
X021747Y018689D02*
X021747Y019179D01*
X021992Y019179D01*
X022074Y019098D01*
X022074Y018934D01*
X021992Y018852D01*
X022778Y018689D02*
X022942Y018689D01*
X022860Y018689D02*
X022860Y019016D01*
X022778Y019016D01*
X022860Y019179D02*
X022860Y019261D01*
X021047Y019016D02*
X020965Y019016D01*
X020801Y018852D01*
X020801Y018689D02*
X020801Y019016D01*
X020613Y018934D02*
X020531Y019016D01*
X020368Y019016D01*
X020286Y018934D01*
X020286Y018771D01*
X020368Y018689D01*
X020531Y018689D01*
X020613Y018771D01*
X020613Y018934D01*
X020106Y018934D02*
X019942Y018934D01*
X020024Y019098D02*
X020024Y018689D01*
X020024Y019098D02*
X020106Y019179D01*
X019238Y019179D02*
X018911Y019179D01*
X019074Y019179D02*
X019074Y018689D01*
X018722Y018689D02*
X018722Y019016D01*
X018559Y019179D01*
X018395Y019016D01*
X018395Y018689D01*
X018206Y018689D02*
X018206Y019179D01*
X018206Y018934D02*
X017880Y018934D01*
X017880Y018689D02*
X017880Y019179D01*
X017618Y019179D02*
X017618Y019261D01*
X017618Y019016D02*
X017618Y018689D01*
X017699Y018689D02*
X017536Y018689D01*
X017347Y018771D02*
X017347Y018934D01*
X017265Y019016D01*
X017020Y019016D01*
X017020Y018525D01*
X017020Y018689D02*
X017265Y018689D01*
X017347Y018771D01*
X017536Y019016D02*
X017618Y019016D01*
X018395Y018934D02*
X018722Y018934D01*
X016316Y018934D02*
X015989Y018934D01*
X015989Y019016D02*
X015989Y018689D01*
X015800Y018771D02*
X015800Y019098D01*
X015718Y019179D01*
X015473Y019179D01*
X015473Y018689D01*
X015718Y018689D01*
X015800Y018771D01*
X015989Y019016D02*
X016152Y019179D01*
X016316Y019016D01*
X016316Y018689D01*
X015285Y018689D02*
X015121Y018852D01*
X015203Y018852D02*
X014958Y018852D01*
X014958Y018689D02*
X014958Y019179D01*
X015203Y019179D01*
X015285Y019098D01*
X015285Y018934D01*
X015203Y018852D01*
X014777Y018689D02*
X014614Y018689D01*
X014696Y018689D02*
X014696Y019179D01*
X014777Y019179D02*
X014614Y019179D01*
D13*
X014695Y019819D02*
X014195Y019819D01*
X013945Y020069D01*
X013695Y019819D01*
X013195Y019819D01*
X012945Y020069D01*
X012695Y019819D01*
X012195Y019819D01*
X011945Y020069D01*
X011695Y019819D01*
X011195Y019819D01*
X010945Y020069D01*
X010695Y019819D01*
X010195Y019819D01*
X009945Y020069D01*
X009695Y019819D01*
X009195Y019819D01*
X008945Y020069D01*
X008695Y019819D01*
X008195Y019819D01*
X007945Y020069D01*
X007695Y019819D01*
X007195Y019819D01*
X006945Y020069D01*
X006695Y019819D01*
X006195Y019819D01*
X005945Y020069D01*
X005695Y019819D01*
X005195Y019819D01*
X004945Y020069D01*
X004695Y019819D01*
X004195Y019819D01*
X003945Y020069D01*
X003695Y019819D01*
X003195Y019819D01*
X002945Y020069D01*
X002945Y021569D01*
X003195Y021819D01*
X003695Y021819D01*
X003945Y021569D01*
X004195Y021819D01*
X004695Y021819D01*
X004945Y021569D01*
X005195Y021819D01*
X005695Y021819D01*
X005945Y021569D01*
X006195Y021819D01*
X006695Y021819D01*
X006945Y021569D01*
X007195Y021819D01*
X007695Y021819D01*
X007945Y021569D01*
X008195Y021819D01*
X008695Y021819D01*
X008945Y021569D01*
X009195Y021819D01*
X009695Y021819D01*
X009945Y021569D01*
X010195Y021819D01*
X010695Y021819D01*
X010945Y021569D01*
X011195Y021819D01*
X011695Y021819D01*
X011945Y021569D01*
X012195Y021819D01*
X012695Y021819D01*
X012945Y021569D01*
X013195Y021819D01*
X013695Y021819D01*
X013945Y021569D01*
X014195Y021819D01*
X014695Y021819D01*
X014945Y021569D01*
X015195Y021819D01*
X015695Y021819D01*
X015945Y021569D01*
X016195Y021819D01*
X016695Y021819D01*
X016945Y021569D01*
X017195Y021819D01*
X017695Y021819D01*
X017945Y021569D01*
X018195Y021819D01*
X018695Y021819D01*
X018945Y021569D01*
X019195Y021819D01*
X019695Y021819D01*
X019945Y021569D01*
X020195Y021819D01*
X020695Y021819D01*
X020945Y021569D01*
X021195Y021819D01*
X021695Y021819D01*
X021945Y021569D01*
X022195Y021819D01*
X022695Y021819D01*
X022945Y021569D01*
X022945Y020069D01*
X022695Y019819D01*
X022195Y019819D01*
X021945Y020069D01*
X021695Y019819D01*
X021195Y019819D01*
X020945Y020069D01*
X020695Y019819D01*
X020195Y019819D01*
X019945Y020069D01*
X019695Y019819D01*
X019195Y019819D01*
X018945Y020069D01*
X018695Y019819D01*
X018195Y019819D01*
X017945Y020069D01*
X017695Y019819D01*
X017195Y019819D01*
X016945Y020069D01*
X016695Y019819D01*
X016195Y019819D01*
X015945Y020069D01*
X015695Y019819D01*
X015195Y019819D01*
X014945Y020069D01*
X014695Y019819D01*
X021915Y013194D02*
X022475Y013194D01*
X022475Y012694D02*
X021915Y012694D01*
X023069Y012105D02*
X023319Y012355D01*
X023819Y012355D01*
X024069Y012105D01*
X024319Y012355D01*
X024819Y012355D01*
X025069Y012105D01*
X025069Y011605D01*
X024819Y011355D01*
X024319Y011355D01*
X024069Y011605D01*
X023819Y011355D01*
X023319Y011355D01*
X023069Y011605D01*
X023069Y012105D01*
X023915Y016444D02*
X024475Y016444D01*
X024475Y016944D02*
X023915Y016944D01*
X023915Y017444D02*
X024475Y017444D01*
X024475Y017944D02*
X023915Y017944D01*
D14*
X022445Y020319D03*
X021445Y020319D03*
X020445Y020319D03*
X019445Y020319D03*
X018445Y020319D03*
X017445Y020319D03*
X016445Y020319D03*
X015445Y020319D03*
X014445Y020319D03*
X013445Y020319D03*
X012445Y020319D03*
X011445Y020319D03*
X010445Y020319D03*
X009445Y020319D03*
X008445Y020319D03*
X007445Y020319D03*
X006445Y020319D03*
X005445Y020319D03*
X004445Y020319D03*
X003445Y020319D03*
X003445Y021319D03*
X004445Y021319D03*
X005445Y021319D03*
X006445Y021319D03*
X007445Y021319D03*
X008445Y021319D03*
X009445Y021319D03*
X010445Y021319D03*
X011445Y021319D03*
X012445Y021319D03*
X013445Y021319D03*
X014445Y021319D03*
X015445Y021319D03*
X016445Y021319D03*
X017445Y021319D03*
X018445Y021319D03*
X019445Y021319D03*
X020445Y021319D03*
X021445Y021319D03*
X022445Y021319D03*
X023569Y011855D03*
X024569Y011855D03*
D15*
X024492Y011122D02*
X024412Y011042D01*
X024412Y010722D01*
X024492Y010642D01*
X024652Y010642D01*
X024732Y010722D01*
X024732Y010882D01*
X024572Y010882D01*
X024732Y011042D02*
X024652Y011122D01*
X024492Y011122D01*
X024216Y011122D02*
X023896Y011122D01*
X023896Y010642D01*
X023701Y010722D02*
X023620Y010642D01*
X023460Y010642D01*
X023380Y010722D01*
X023380Y011042D01*
X023460Y011122D01*
X023620Y011122D01*
X023701Y011042D01*
X023896Y010882D02*
X024056Y010882D01*
X024152Y013874D02*
X023955Y013874D01*
X023955Y015764D01*
X024152Y015764D01*
X024152Y013874D01*
X023955Y013874D02*
X022239Y013874D01*
X022239Y015764D01*
X023955Y015764D01*
D16*
X024491Y015569D03*
X024491Y015069D03*
X024491Y014569D03*
X024491Y014069D03*
X021900Y014069D03*
X021900Y014569D03*
X021900Y015069D03*
X021900Y015569D03*
D17*
X021900Y015889D02*
X022020Y015889D01*
X022080Y015949D01*
X022080Y016250D01*
X022209Y016129D02*
X022329Y016250D01*
X022329Y015889D01*
X022209Y015889D02*
X022449Y015889D01*
X021900Y015889D02*
X021840Y015949D01*
X021840Y016250D01*
X023525Y013762D02*
X023465Y013702D01*
X023465Y013462D01*
X023525Y013402D01*
X023645Y013402D01*
X023705Y013462D01*
X023834Y013402D02*
X024074Y013402D01*
X023954Y013402D02*
X023954Y013762D01*
X023834Y013642D01*
X023705Y013702D02*
X023645Y013762D01*
X023525Y013762D01*
X023831Y013181D02*
X024559Y013181D01*
X024559Y012708D02*
X023831Y012708D01*
X021411Y012862D02*
X021351Y012802D01*
X021231Y012802D01*
X021171Y012862D01*
X021043Y012802D02*
X020923Y012922D01*
X020983Y012922D02*
X020803Y012922D01*
X020803Y012802D02*
X020803Y013162D01*
X020983Y013162D01*
X021043Y013102D01*
X021043Y012982D01*
X020983Y012922D01*
X021171Y013102D02*
X021231Y013162D01*
X021351Y013162D01*
X021411Y013102D01*
X021411Y013042D01*
X021351Y012982D01*
X021411Y012922D01*
X021411Y012862D01*
X021351Y012982D02*
X021291Y012982D01*
X025003Y016677D02*
X025003Y017037D01*
X025183Y017037D01*
X025243Y016977D01*
X025243Y016857D01*
X025183Y016797D01*
X025003Y016797D01*
X025123Y016797D02*
X025243Y016677D01*
X025371Y016677D02*
X025611Y016677D01*
X025491Y016677D02*
X025491Y017037D01*
X025371Y016917D01*
X025371Y017677D02*
X025611Y017917D01*
X025611Y017977D01*
X025551Y018037D01*
X025431Y018037D01*
X025371Y017977D01*
X025243Y017977D02*
X025243Y017857D01*
X025183Y017797D01*
X025003Y017797D01*
X025123Y017797D02*
X025243Y017677D01*
X025371Y017677D02*
X025611Y017677D01*
X025243Y017977D02*
X025183Y018037D01*
X025003Y018037D01*
X025003Y017677D01*
X008830Y008520D02*
X008830Y008366D01*
X008753Y008290D01*
X008753Y008136D02*
X008830Y008059D01*
X008830Y007906D01*
X008753Y007829D01*
X008446Y007829D01*
X008370Y007906D01*
X008370Y008059D01*
X008446Y008136D01*
X008446Y008290D02*
X008370Y008366D01*
X008370Y008520D01*
X008446Y008597D01*
X008523Y008597D01*
X008600Y008520D01*
X008677Y008597D01*
X008753Y008597D01*
X008830Y008520D01*
X008600Y008520D02*
X008600Y008443D01*
X008120Y008570D02*
X008120Y008290D01*
X007785Y008290D02*
X007785Y008570D01*
X007630Y008597D02*
X007630Y008290D01*
X007323Y008597D01*
X007246Y008597D01*
X007170Y008520D01*
X007170Y008366D01*
X007246Y008290D01*
X007246Y008136D02*
X007170Y008059D01*
X007170Y007906D01*
X007246Y007829D01*
X007553Y007829D01*
X007630Y007906D01*
X007630Y008059D01*
X007553Y008136D01*
X006920Y008290D02*
X006920Y008570D01*
X006585Y008570D02*
X006585Y008290D01*
X004102Y009300D02*
X003394Y009261D01*
X003394Y009615D01*
X003394Y012765D01*
X003394Y013119D01*
X004102Y013080D01*
X004102Y012765D01*
X004102Y009615D01*
X004102Y009300D01*
X003394Y009261D02*
X002961Y009261D01*
X002961Y013119D01*
X003394Y013119D01*
X004240Y012793D02*
X004394Y012639D01*
X004470Y012486D02*
X004317Y012486D01*
X004240Y012409D01*
X004240Y012179D01*
X004701Y012179D01*
X004701Y012026D02*
X004240Y011719D01*
X004240Y012026D02*
X004701Y011719D01*
X004547Y012179D02*
X004547Y012409D01*
X004470Y012486D01*
X004547Y012332D02*
X004701Y012486D01*
X004701Y012639D02*
X004701Y012946D01*
X004701Y012793D02*
X004240Y012793D01*
X002961Y012961D02*
X002911Y012959D01*
X002861Y012954D01*
X002812Y012944D01*
X002764Y012931D01*
X002717Y012915D01*
X002671Y012895D01*
X002627Y012871D01*
X002584Y012845D01*
X002544Y012815D01*
X002506Y012782D01*
X002471Y012747D01*
X002438Y012709D01*
X002408Y012669D01*
X002382Y012627D01*
X002358Y012582D01*
X002338Y012536D01*
X002322Y012489D01*
X002309Y012441D01*
X002299Y012392D01*
X002294Y012342D01*
X002292Y012292D01*
X002294Y012242D01*
X002299Y012192D01*
X002309Y012143D01*
X002322Y012095D01*
X002338Y012048D01*
X002358Y012002D01*
X002382Y011958D01*
X002408Y011915D01*
X002438Y011875D01*
X002471Y011837D01*
X002506Y011802D01*
X002544Y011769D01*
X002584Y011739D01*
X002626Y011713D01*
X002671Y011689D01*
X002717Y011669D01*
X002764Y011653D01*
X002812Y011640D01*
X002861Y011630D01*
X002911Y011625D01*
X002961Y011623D01*
X002961Y010639D02*
X002911Y010637D01*
X002861Y010632D01*
X002812Y010622D01*
X002764Y010609D01*
X002717Y010593D01*
X002671Y010573D01*
X002627Y010549D01*
X002584Y010523D01*
X002544Y010493D01*
X002506Y010460D01*
X002471Y010425D01*
X002438Y010387D01*
X002408Y010347D01*
X002382Y010305D01*
X002358Y010260D01*
X002338Y010214D01*
X002322Y010167D01*
X002309Y010119D01*
X002299Y010070D01*
X002294Y010020D01*
X002292Y009970D01*
X002294Y009920D01*
X002299Y009870D01*
X002309Y009821D01*
X002322Y009773D01*
X002338Y009726D01*
X002358Y009680D01*
X002382Y009636D01*
X002408Y009593D01*
X002438Y009553D01*
X002471Y009515D01*
X002506Y009480D01*
X002544Y009447D01*
X002584Y009417D01*
X002626Y009391D01*
X002671Y009367D01*
X002717Y009347D01*
X002764Y009331D01*
X002812Y009318D01*
X002861Y009308D01*
X002911Y009303D01*
X002961Y009301D01*
D18*
X021855Y012944D03*
X022535Y012944D03*
X023855Y016694D03*
X024535Y016694D03*
X024535Y017694D03*
X023855Y017694D03*
D19*
X023900Y012944D03*
X024491Y012944D03*
D20*
X006315Y000544D03*
D21*
X006315Y000559D03*
X006315Y000574D03*
D22*
X003315Y000589D03*
X003315Y000604D03*
X003315Y000619D03*
X003315Y000634D03*
X003315Y000649D03*
X003315Y000664D03*
X003315Y000679D03*
X003315Y000694D03*
X003315Y000709D03*
X003315Y000724D03*
X003315Y000739D03*
X003315Y000754D03*
X003315Y000769D03*
X003315Y000784D03*
X003315Y000799D03*
X003315Y000814D03*
X003315Y000829D03*
X003315Y000844D03*
X003315Y000859D03*
X003315Y000874D03*
X003315Y000889D03*
X003315Y000904D03*
X003315Y000919D03*
X003315Y000934D03*
X003315Y000949D03*
X003315Y000964D03*
X003315Y000979D03*
X003315Y000994D03*
X003315Y001009D03*
X003315Y001024D03*
X003315Y001039D03*
X003315Y001054D03*
X003315Y001069D03*
X003315Y001084D03*
X003315Y001099D03*
X003315Y001114D03*
X003315Y001129D03*
X003315Y001144D03*
X003315Y001159D03*
X003315Y001174D03*
X003315Y001189D03*
X003315Y001204D03*
X003315Y001219D03*
X003315Y001234D03*
X003315Y001249D03*
X003315Y001264D03*
X003315Y001279D03*
X003315Y001294D03*
X003315Y001309D03*
X003315Y001324D03*
X003315Y001339D03*
X003315Y001354D03*
X003315Y001369D03*
X003315Y001384D03*
X003315Y001399D03*
X003315Y001414D03*
X003315Y001429D03*
X003315Y001444D03*
X003315Y001459D03*
X003315Y001474D03*
X003315Y001489D03*
X003315Y001504D03*
X003315Y001519D03*
X003315Y001534D03*
X003315Y001549D03*
X003315Y001564D03*
X003315Y001579D03*
X003315Y001594D03*
X003315Y001609D03*
X003315Y001624D03*
X003315Y001639D03*
X003315Y001654D03*
X003315Y001669D03*
X003315Y001684D03*
X003315Y001699D03*
X003315Y001714D03*
X003315Y001729D03*
X003315Y001744D03*
X003315Y001759D03*
X003315Y001774D03*
X003315Y001789D03*
X003315Y001804D03*
X003315Y001819D03*
X003315Y001834D03*
X003315Y001849D03*
X003315Y001864D03*
X003315Y001879D03*
X003315Y001894D03*
X003315Y001909D03*
X003315Y001924D03*
X003315Y001939D03*
X003315Y001954D03*
X003315Y001969D03*
X003315Y001984D03*
X003315Y001999D03*
X003315Y002014D03*
X003315Y002029D03*
X003315Y002044D03*
X003315Y002059D03*
X003315Y002074D03*
X003315Y002089D03*
X003315Y002104D03*
X003315Y002119D03*
X003315Y002134D03*
X003315Y002149D03*
X003315Y002164D03*
X003315Y002179D03*
X003315Y002194D03*
X003315Y002209D03*
X003315Y002224D03*
X003315Y002239D03*
X003315Y002254D03*
X003315Y002269D03*
X003315Y002284D03*
X003315Y002299D03*
X003315Y002314D03*
X003315Y002329D03*
X003315Y002344D03*
X003315Y002359D03*
X003315Y002374D03*
X003315Y002389D03*
X003315Y002404D03*
X003315Y002419D03*
X003315Y002434D03*
X003315Y002449D03*
X003315Y002464D03*
X003315Y002479D03*
X003315Y002494D03*
X003315Y002509D03*
X003315Y002524D03*
X003315Y002539D03*
X003315Y002554D03*
X003315Y002569D03*
D23*
X004440Y001369D03*
X006255Y001459D03*
X006690Y001234D03*
X006690Y001219D03*
X006690Y001204D03*
X006915Y001234D03*
X006915Y001249D03*
X006915Y001264D03*
X007320Y001339D03*
X007935Y001294D03*
X007935Y001279D03*
X008055Y001339D03*
X008055Y001354D03*
X009315Y000859D03*
X009315Y000844D03*
X009315Y000829D03*
X009315Y000814D03*
X009315Y000799D03*
X009315Y000784D03*
X009315Y000769D03*
X009315Y000754D03*
X009315Y000739D03*
X009315Y000724D03*
X009315Y000709D03*
X009315Y000694D03*
X009315Y000679D03*
X009315Y000664D03*
X009315Y000649D03*
X009315Y000634D03*
X009315Y000619D03*
X009315Y000604D03*
X009315Y000589D03*
X009315Y002389D03*
X009315Y002404D03*
X009315Y002419D03*
X009315Y002434D03*
X009315Y002449D03*
X009315Y002464D03*
X009315Y002479D03*
X009315Y002494D03*
X009315Y002509D03*
X009315Y002524D03*
X009315Y002539D03*
X009315Y002554D03*
X009315Y002569D03*
D24*
X007995Y001534D03*
X007740Y001834D03*
X007740Y002029D03*
X007515Y002119D03*
X007515Y001744D03*
X007515Y001399D03*
X007515Y001384D03*
X007515Y001369D03*
X007320Y001174D03*
X007125Y001384D03*
X007125Y001399D03*
X007125Y001414D03*
X006795Y001519D03*
X006855Y001714D03*
X006675Y001834D03*
X006675Y001849D03*
X006675Y001864D03*
X006405Y001729D03*
X006195Y001849D03*
X006195Y001864D03*
X006195Y001879D03*
X006195Y001894D03*
X006195Y001909D03*
X006195Y001924D03*
X006195Y001939D03*
X006195Y001954D03*
X006195Y001969D03*
X006195Y001984D03*
X006195Y001999D03*
X006195Y002014D03*
X006195Y002029D03*
X006195Y002044D03*
X006195Y002059D03*
X006195Y002074D03*
X006195Y002089D03*
X006195Y002104D03*
X006195Y002119D03*
X006195Y002134D03*
X006195Y002149D03*
X005925Y002149D03*
X005775Y001399D03*
X005775Y001384D03*
X005775Y001369D03*
X005775Y001354D03*
X005775Y001279D03*
X005775Y001264D03*
X005775Y001249D03*
X006015Y001159D03*
X006255Y001219D03*
X006480Y001129D03*
X004965Y001279D03*
X004950Y001264D03*
X004950Y001249D03*
X004935Y001234D03*
X004920Y001204D03*
X004305Y000799D03*
X003705Y001189D03*
X003675Y001234D03*
X003660Y001249D03*
X003660Y001264D03*
X003645Y001294D03*
X003630Y001324D03*
X003675Y001969D03*
X003705Y002014D03*
X004305Y002404D03*
X004920Y001999D03*
X004935Y001969D03*
X004950Y001954D03*
X004950Y001939D03*
X004965Y001924D03*
X004965Y001909D03*
X004980Y001879D03*
D25*
X005415Y001984D03*
X005415Y001999D03*
X005865Y001759D03*
X005415Y001219D03*
X005415Y001204D03*
X004305Y000814D03*
X003735Y001894D03*
X004305Y002389D03*
D26*
X004305Y002374D03*
X003990Y001789D03*
X004170Y001669D03*
X004305Y000829D03*
D27*
X004305Y000844D03*
X004305Y002359D03*
D28*
X004312Y002344D03*
X004312Y000859D03*
D29*
X004305Y000874D03*
X004305Y002329D03*
D30*
X007170Y002329D03*
X007170Y000874D03*
D31*
X004305Y000889D03*
X004305Y002314D03*
D32*
X007177Y002314D03*
X007177Y000889D03*
D33*
X004305Y000904D03*
X004305Y002299D03*
D34*
X007185Y002299D03*
X007185Y000904D03*
D35*
X004305Y000919D03*
X004305Y002284D03*
D36*
X007192Y002284D03*
X007192Y000919D03*
D37*
X004305Y000934D03*
X004305Y002269D03*
D38*
X007200Y002269D03*
X007200Y000934D03*
D39*
X005992Y001099D03*
X005407Y001174D03*
X005407Y001189D03*
X005872Y001744D03*
X005407Y002014D03*
X005407Y002029D03*
X004597Y002254D03*
X004012Y002254D03*
X004417Y001579D03*
X004717Y001444D03*
X004597Y000949D03*
X004012Y000949D03*
D40*
X007207Y000949D03*
X007207Y002254D03*
D41*
X005850Y001849D03*
X005850Y001834D03*
X005850Y001819D03*
X005430Y001909D03*
X005430Y001924D03*
X005430Y001939D03*
X005430Y001294D03*
X005430Y001279D03*
X005430Y001264D03*
X004635Y000964D03*
X004320Y001219D03*
X004140Y001369D03*
X003975Y000964D03*
X003975Y002239D03*
X004635Y002239D03*
D42*
X007215Y002239D03*
X007215Y000964D03*
D43*
X006007Y001534D03*
X005437Y001354D03*
X005437Y001339D03*
X005437Y001324D03*
X005437Y001309D03*
X004912Y001339D03*
X004672Y000979D03*
X003937Y000979D03*
X003712Y001909D03*
X003937Y002224D03*
X005437Y001894D03*
X005437Y001879D03*
X005437Y001864D03*
X005437Y001849D03*
D44*
X007222Y002209D03*
X007222Y002224D03*
X007222Y000994D03*
X007222Y000979D03*
D45*
X007192Y001804D03*
X007192Y001819D03*
X007192Y001834D03*
X007192Y001849D03*
X007192Y001864D03*
X007192Y001879D03*
X007192Y001894D03*
X007192Y001909D03*
X007192Y001924D03*
X007192Y001939D03*
X007192Y001954D03*
X007192Y001969D03*
X007192Y001984D03*
X007192Y001999D03*
X007192Y002014D03*
X007192Y002029D03*
X007192Y002044D03*
X007192Y002059D03*
X007192Y002074D03*
X007192Y002089D03*
X007192Y002104D03*
X007192Y002119D03*
X007192Y002134D03*
X007192Y002149D03*
X006007Y001114D03*
X005452Y001444D03*
X005452Y001459D03*
X005452Y001474D03*
X005452Y001489D03*
X005452Y001504D03*
X005452Y001519D03*
X005452Y001534D03*
X005452Y001714D03*
X005452Y001729D03*
X005452Y001744D03*
X005452Y001759D03*
X004927Y001324D03*
X004702Y000994D03*
X004102Y001414D03*
X003907Y000994D03*
X004327Y001999D03*
X003907Y002209D03*
X004702Y002209D03*
D46*
X004725Y002194D03*
X004080Y001459D03*
X004080Y001444D03*
X004095Y001429D03*
X003885Y001009D03*
X004725Y001009D03*
X003705Y001924D03*
X003885Y002194D03*
D47*
X007230Y002194D03*
X007230Y001009D03*
D48*
X006007Y001129D03*
X006007Y001519D03*
X004747Y001024D03*
X004327Y001204D03*
X004072Y001474D03*
X004072Y001489D03*
X004057Y001504D03*
X004057Y001519D03*
X004057Y001534D03*
X004057Y001549D03*
X004057Y001564D03*
X003862Y001024D03*
X003862Y002179D03*
X004747Y002179D03*
D49*
X007237Y002179D03*
X007237Y001024D03*
D50*
X007485Y001534D03*
X007545Y002149D03*
X006450Y001099D03*
X006255Y001309D03*
X006255Y001324D03*
X004785Y001054D03*
X004770Y001039D03*
X004050Y001579D03*
X004050Y001594D03*
X003690Y001939D03*
X003810Y002134D03*
X003825Y002149D03*
X003840Y002164D03*
X004770Y002164D03*
X004785Y002149D03*
X003810Y001069D03*
X003825Y001054D03*
X003840Y001039D03*
D51*
X007245Y001039D03*
X007245Y001054D03*
D52*
X007312Y001099D03*
X007312Y001114D03*
X007492Y001489D03*
X007492Y001504D03*
X007492Y001519D03*
X007537Y001714D03*
X007147Y001534D03*
X007147Y001519D03*
X007147Y001504D03*
X006262Y001369D03*
X006262Y001354D03*
X006262Y001339D03*
X006262Y001294D03*
X006262Y001279D03*
X006262Y001264D03*
X006007Y001504D03*
X004942Y001309D03*
X004822Y001084D03*
X004807Y001069D03*
X003787Y001084D03*
X003787Y002119D03*
X004807Y002134D03*
X004822Y002119D03*
D53*
X007252Y001069D03*
D54*
X007260Y001084D03*
D55*
X007320Y001129D03*
X007500Y001444D03*
X007500Y001459D03*
X007500Y001474D03*
X007140Y001474D03*
X007140Y001489D03*
X007740Y001879D03*
X007530Y002134D03*
X006390Y001714D03*
X006465Y001534D03*
X006255Y001384D03*
X006255Y001249D03*
X006465Y001114D03*
X006015Y001144D03*
X004875Y001144D03*
X004860Y001129D03*
X004845Y001114D03*
X004830Y001099D03*
X003780Y001099D03*
X003765Y001114D03*
X003750Y001129D03*
X003735Y001144D03*
X003675Y001954D03*
X003735Y002059D03*
X003750Y002074D03*
X003765Y002089D03*
X003780Y002104D03*
X004830Y002104D03*
X004845Y002089D03*
X004860Y002074D03*
X004875Y002059D03*
D56*
X005385Y002104D03*
X005385Y002119D03*
X005895Y001714D03*
X005385Y001099D03*
X004875Y001384D03*
X004005Y001774D03*
D57*
X004320Y001189D03*
X005745Y001444D03*
X005745Y001954D03*
X005745Y002059D03*
X005955Y002104D03*
X005955Y001909D03*
X006195Y001804D03*
X006435Y001804D03*
X006435Y001819D03*
X006435Y001834D03*
X006435Y001849D03*
X006435Y001864D03*
X006435Y001879D03*
X006435Y001894D03*
X006435Y001909D03*
X006435Y001924D03*
X006435Y001939D03*
X006435Y001954D03*
X006435Y001969D03*
X006435Y001984D03*
X006435Y001999D03*
X006435Y002014D03*
X006435Y002029D03*
X006435Y002044D03*
X006435Y002059D03*
X006435Y002074D03*
X006435Y002089D03*
X006435Y002104D03*
X006435Y002119D03*
X006435Y002134D03*
X006435Y002149D03*
X006885Y002104D03*
X006885Y002089D03*
X006885Y001999D03*
X006885Y001984D03*
X006885Y001924D03*
X006885Y001759D03*
X006795Y001429D03*
X006510Y001429D03*
X006510Y001444D03*
X006510Y001414D03*
X006510Y001219D03*
X006510Y001204D03*
X006705Y001099D03*
X006885Y001099D03*
X007095Y001234D03*
X007095Y001249D03*
X007545Y001234D03*
X007545Y001219D03*
X007545Y001204D03*
X007755Y001204D03*
X007755Y001219D03*
X007755Y001234D03*
X007755Y001249D03*
X007755Y001264D03*
X007755Y001279D03*
X007755Y001294D03*
X007755Y001309D03*
X007755Y001324D03*
X007755Y001339D03*
X007755Y001354D03*
X007755Y001369D03*
X007755Y001384D03*
X007755Y001399D03*
X007755Y001414D03*
X007755Y001429D03*
X007755Y001444D03*
X007755Y001459D03*
X007755Y001474D03*
X007755Y001489D03*
X007755Y001504D03*
X007755Y001519D03*
X007755Y001534D03*
X008025Y001444D03*
X007965Y001189D03*
X007755Y001189D03*
X007755Y001174D03*
X007755Y001159D03*
X007755Y001144D03*
X007755Y001129D03*
X007755Y001114D03*
X007755Y001099D03*
X007740Y001804D03*
X007485Y001819D03*
X007485Y001834D03*
X007485Y001849D03*
X007485Y002014D03*
X007485Y002029D03*
X007485Y002044D03*
D58*
X007297Y001789D03*
X007297Y001774D03*
X007297Y001759D03*
X007297Y001744D03*
X007297Y001729D03*
X007297Y001714D03*
X007312Y001324D03*
X007312Y001309D03*
X007072Y001144D03*
X007072Y001129D03*
X007072Y001114D03*
X007072Y001099D03*
X006907Y001189D03*
X006907Y001204D03*
X006907Y001219D03*
X006802Y001339D03*
X006802Y001354D03*
X006802Y001369D03*
X006697Y001189D03*
X006697Y001174D03*
X006697Y001159D03*
X006007Y001264D03*
X006007Y001279D03*
X006007Y001294D03*
X006007Y001309D03*
X006007Y001324D03*
X006007Y001339D03*
X006007Y001354D03*
X006007Y001369D03*
X007567Y001114D03*
X007942Y001249D03*
X007942Y001264D03*
X008047Y001369D03*
X009307Y002584D03*
X009307Y002599D03*
X003337Y002599D03*
D59*
X003345Y002614D03*
X004440Y001834D03*
X005970Y001939D03*
X005970Y001954D03*
X005970Y001969D03*
X005970Y001984D03*
X005970Y001999D03*
X005970Y002014D03*
X005970Y002029D03*
X005970Y002044D03*
X005970Y002059D03*
X005970Y002074D03*
X006015Y001384D03*
X006255Y001189D03*
X006705Y001144D03*
X006705Y001129D03*
X006900Y001144D03*
X006900Y001159D03*
X006900Y001174D03*
X007080Y001174D03*
X007080Y001159D03*
X006795Y001384D03*
X006900Y001789D03*
X006900Y001804D03*
X006900Y001819D03*
X006900Y001834D03*
X006900Y001849D03*
X006900Y001864D03*
X006900Y001879D03*
X007560Y001144D03*
X007560Y001129D03*
X007560Y001099D03*
X007950Y001234D03*
X008040Y001384D03*
X008040Y001399D03*
X009285Y002614D03*
D60*
X007732Y002014D03*
X007732Y001999D03*
X007732Y001864D03*
X007732Y001849D03*
X007522Y001729D03*
X007507Y001429D03*
X007507Y001414D03*
X007312Y001159D03*
X007312Y001144D03*
X007132Y001429D03*
X007132Y001444D03*
X007132Y001459D03*
X006802Y001534D03*
X006472Y001519D03*
X006262Y001414D03*
X006262Y001399D03*
X006262Y001234D03*
X006007Y001489D03*
X005782Y001339D03*
X005782Y001324D03*
X005782Y001309D03*
X005782Y001294D03*
X005917Y001864D03*
X004957Y001294D03*
X004927Y001219D03*
X004912Y001189D03*
X004897Y001174D03*
X004882Y001159D03*
X004927Y001984D03*
X004912Y002014D03*
X004897Y002029D03*
X004882Y002044D03*
X003727Y002044D03*
X003712Y002029D03*
X003697Y001999D03*
X003682Y001984D03*
X003682Y001219D03*
X003697Y001204D03*
X003712Y001174D03*
X003727Y001159D03*
X006847Y002149D03*
X007987Y001099D03*
D61*
X008760Y001099D03*
X008760Y001114D03*
X008760Y001129D03*
X008760Y001144D03*
X008760Y001159D03*
X008760Y001174D03*
X008760Y001189D03*
X008760Y001204D03*
X008760Y001219D03*
X008760Y001234D03*
X008760Y001249D03*
X008760Y001264D03*
X008760Y001279D03*
X008760Y001294D03*
X008760Y001309D03*
X008760Y001324D03*
X008760Y001339D03*
X008760Y001354D03*
X008760Y001369D03*
X008760Y001384D03*
X008760Y001399D03*
X008760Y001414D03*
X008760Y001429D03*
X008760Y001444D03*
X008760Y001459D03*
X008760Y001474D03*
X008760Y001489D03*
X008760Y001504D03*
X008760Y001519D03*
X008760Y001534D03*
D62*
X005392Y001129D03*
X005392Y001114D03*
X004327Y001969D03*
X004147Y001699D03*
X003742Y001879D03*
X005392Y002074D03*
X005392Y002089D03*
D63*
X005962Y002089D03*
X005962Y001924D03*
X006007Y001429D03*
X006007Y001414D03*
X006007Y001399D03*
X006007Y001249D03*
X006007Y001234D03*
X006007Y001219D03*
X006517Y001234D03*
X006517Y001249D03*
X006517Y001264D03*
X006517Y001279D03*
X006517Y001294D03*
X006517Y001309D03*
X006517Y001324D03*
X006517Y001339D03*
X006517Y001354D03*
X006517Y001369D03*
X006517Y001384D03*
X006517Y001399D03*
X006802Y001399D03*
X006802Y001414D03*
X006892Y001129D03*
X006892Y001114D03*
X006712Y001114D03*
X007087Y001189D03*
X007087Y001204D03*
X007087Y001219D03*
X007312Y001294D03*
X007552Y001189D03*
X007552Y001174D03*
X007552Y001159D03*
X007957Y001204D03*
X007957Y001219D03*
X008032Y001414D03*
X008032Y001429D03*
X007477Y001864D03*
X007477Y001879D03*
X007477Y001894D03*
X007477Y001909D03*
X007477Y001924D03*
X007477Y001939D03*
X007477Y001954D03*
X007477Y001969D03*
X007477Y001984D03*
X007477Y001999D03*
X007732Y002059D03*
X006892Y002059D03*
X006892Y002074D03*
X006892Y002044D03*
X006892Y002029D03*
X006892Y002014D03*
X006892Y001909D03*
X006892Y001894D03*
X006892Y001774D03*
D64*
X006667Y001819D03*
X006667Y001879D03*
X006667Y002014D03*
X006667Y002029D03*
X006412Y001744D03*
X006202Y001834D03*
X006007Y001474D03*
X005767Y001414D03*
X005767Y001234D03*
X005767Y001219D03*
X006007Y001174D03*
X006262Y001429D03*
X006487Y001504D03*
X006487Y001144D03*
X006802Y001489D03*
X006802Y001504D03*
X007117Y001369D03*
X007117Y001354D03*
X007312Y001189D03*
X007522Y001324D03*
X007522Y001339D03*
X007522Y001354D03*
X007507Y001759D03*
X007507Y002104D03*
X008002Y001519D03*
X008002Y001504D03*
X007987Y001114D03*
X005032Y001504D03*
X005032Y001519D03*
X005032Y001534D03*
X005032Y001549D03*
X005032Y001564D03*
X005032Y001579D03*
X005032Y001594D03*
X005032Y001609D03*
X005032Y001624D03*
X005032Y001639D03*
X005032Y001654D03*
X005032Y001669D03*
X005032Y001684D03*
X005032Y001699D03*
X005017Y001744D03*
X005017Y001759D03*
X005017Y001774D03*
X005017Y001789D03*
X005002Y001804D03*
X005002Y001819D03*
X005002Y001834D03*
X004987Y001849D03*
X004987Y001864D03*
X004972Y001894D03*
X005017Y001459D03*
X005017Y001444D03*
X003652Y001279D03*
X003637Y001309D03*
X003622Y001339D03*
X003622Y001354D03*
X003607Y001369D03*
X003607Y001384D03*
X003607Y001399D03*
X003592Y001429D03*
X003592Y001444D03*
X003592Y001459D03*
X003577Y001504D03*
X003577Y001519D03*
X003577Y001534D03*
X003577Y001549D03*
X003577Y001564D03*
X003577Y001579D03*
X003577Y001594D03*
X003577Y001609D03*
X003577Y001624D03*
X003577Y001639D03*
X003577Y001654D03*
X003577Y001669D03*
X003577Y001684D03*
X003577Y001699D03*
X003592Y001744D03*
X003592Y001759D03*
X003592Y001774D03*
X003607Y001804D03*
D65*
X003600Y001789D03*
X003585Y001729D03*
X003585Y001714D03*
X003585Y001489D03*
X003585Y001474D03*
X003600Y001414D03*
X005025Y001474D03*
X005025Y001489D03*
X005025Y001714D03*
X005025Y001729D03*
X005760Y001984D03*
X005760Y001999D03*
X005760Y002014D03*
X005760Y002029D03*
X005760Y002044D03*
X005940Y002134D03*
X005940Y001879D03*
X006195Y001819D03*
X006420Y001759D03*
X006660Y001804D03*
X006660Y001894D03*
X006660Y001999D03*
X006660Y002044D03*
X006870Y002134D03*
X006870Y001954D03*
X006870Y001729D03*
X006795Y001474D03*
X006495Y001474D03*
X006495Y001489D03*
X006495Y001159D03*
X006255Y001204D03*
X006015Y001459D03*
X005760Y001429D03*
X007110Y001339D03*
X007110Y001324D03*
X007110Y001309D03*
X007530Y001309D03*
X007530Y001294D03*
X007530Y001279D03*
X007980Y001144D03*
X007980Y001129D03*
X008010Y001489D03*
X007740Y001819D03*
X007740Y002044D03*
X007500Y002074D03*
X007500Y002089D03*
X007500Y001774D03*
D66*
X005880Y001729D03*
X005400Y002044D03*
X005400Y002059D03*
X004890Y001369D03*
X004680Y001459D03*
X004650Y001474D03*
X004620Y001489D03*
X004590Y001504D03*
X004545Y001519D03*
X004515Y001534D03*
X004485Y001549D03*
X004455Y001564D03*
X004380Y001594D03*
X004110Y001714D03*
X004080Y001729D03*
X004050Y001744D03*
X004020Y001759D03*
X004320Y001234D03*
X005400Y001159D03*
X005400Y001144D03*
D67*
X005752Y001204D03*
X006007Y001204D03*
X006007Y001189D03*
X006007Y001444D03*
X006262Y001444D03*
X006502Y001459D03*
X006502Y001189D03*
X006502Y001174D03*
X006802Y001444D03*
X006802Y001459D03*
X006877Y001744D03*
X006877Y001939D03*
X006877Y001969D03*
X006877Y002119D03*
X006652Y002059D03*
X006652Y001984D03*
X006427Y001789D03*
X006427Y001774D03*
X005947Y001894D03*
X005752Y001969D03*
X005947Y002119D03*
X007102Y001294D03*
X007102Y001279D03*
X007102Y001264D03*
X007537Y001264D03*
X007537Y001249D03*
X007972Y001174D03*
X007972Y001159D03*
X008017Y001459D03*
X008017Y001474D03*
X007492Y001789D03*
X007492Y001804D03*
X007492Y002059D03*
X004327Y002014D03*
D68*
X004327Y001984D03*
X004897Y001354D03*
X005422Y001249D03*
X005422Y001234D03*
X005857Y001774D03*
X005857Y001789D03*
X005857Y001804D03*
X005422Y001954D03*
X005422Y001969D03*
D69*
X005370Y002149D03*
X004155Y001684D03*
X004320Y001249D03*
D70*
X004447Y001819D03*
X006682Y001279D03*
X006682Y001264D03*
X006682Y001249D03*
X006802Y001294D03*
X006802Y001309D03*
X006802Y001324D03*
X006922Y001309D03*
X006922Y001294D03*
X006922Y001279D03*
X007312Y001354D03*
X007312Y001369D03*
X007927Y001309D03*
X008062Y001309D03*
X008062Y001324D03*
D71*
X004327Y001264D03*
X004252Y001339D03*
X004237Y001354D03*
X004327Y001939D03*
D72*
X004290Y001894D03*
X004275Y001879D03*
X004260Y001864D03*
X004185Y001654D03*
X004260Y001324D03*
X004275Y001309D03*
X004290Y001294D03*
X004305Y001279D03*
X004845Y001414D03*
D73*
X004455Y001804D03*
X006675Y001324D03*
X006675Y001309D03*
X006675Y001294D03*
X006930Y001324D03*
X006930Y001339D03*
X007320Y001384D03*
X007920Y001339D03*
X007920Y001324D03*
X008070Y001294D03*
D74*
X005445Y001369D03*
X005445Y001384D03*
X005445Y001399D03*
X005445Y001414D03*
X005445Y001429D03*
X005445Y001774D03*
X005445Y001789D03*
X005445Y001804D03*
X005445Y001819D03*
X005445Y001834D03*
X004680Y002224D03*
X004110Y001399D03*
X004125Y001384D03*
D75*
X004327Y001954D03*
X004852Y001399D03*
D76*
X004830Y001429D03*
X004200Y001639D03*
D77*
X005760Y001549D03*
D78*
X007830Y001549D03*
D79*
X007327Y001564D03*
X007327Y001579D03*
X007327Y001594D03*
X007327Y001609D03*
X007327Y001624D03*
X007327Y001639D03*
X007327Y001654D03*
X007327Y001669D03*
X007327Y001684D03*
D80*
X004237Y001609D03*
D81*
X004222Y001624D03*
D82*
X005730Y001699D03*
D83*
X006967Y001699D03*
X008617Y001759D03*
X008617Y001774D03*
X008617Y002089D03*
X008617Y002104D03*
D84*
X008565Y001699D03*
D85*
X008587Y001714D03*
D86*
X008595Y001729D03*
X008595Y002134D03*
D87*
X008610Y002119D03*
X008610Y001744D03*
D88*
X008625Y001789D03*
X008625Y001804D03*
X008625Y002074D03*
D89*
X004312Y001924D03*
X004297Y001909D03*
X003982Y001804D03*
D90*
X003892Y001819D03*
D91*
X008632Y001819D03*
X008632Y001834D03*
X008632Y001849D03*
X008632Y001999D03*
X008632Y002014D03*
X008632Y002029D03*
X008632Y002044D03*
X008632Y002059D03*
D92*
X003907Y001834D03*
D93*
X004020Y001849D03*
D94*
X003757Y001864D03*
X005377Y002134D03*
D95*
X008640Y001879D03*
X008640Y001864D03*
D96*
X008482Y001894D03*
X008482Y001909D03*
X008482Y001924D03*
X008482Y001939D03*
X008482Y001954D03*
X008482Y001969D03*
D97*
X008490Y001984D03*
D98*
X008580Y002149D03*
D99*
X006435Y002164D03*
D100*
X008550Y002164D03*
D101*
X007162Y002344D03*
D102*
X007155Y002359D03*
D103*
X007140Y002374D03*
D104*
X003322Y002584D03*
D105*
X006315Y002629D03*
D106*
X006315Y002644D03*
D107*
X006322Y002659D03*
D108*
X010121Y001207D03*
X010621Y001047D03*
D109*
X010641Y001057D03*
X010681Y002147D03*
D110*
X010631Y001067D03*
D111*
X010636Y001077D03*
D112*
X010631Y001087D03*
D113*
X010636Y001097D03*
D114*
X010631Y001107D03*
D115*
X010641Y001117D03*
X010641Y001997D03*
D116*
X010641Y001127D03*
D117*
X010641Y001137D03*
D118*
X010636Y001147D03*
D119*
X010636Y001157D03*
D120*
X010641Y001167D03*
D121*
X010641Y001177D03*
D122*
X010641Y001187D03*
D123*
X010231Y001197D03*
D124*
X011046Y001197D03*
X010676Y002247D03*
D125*
X010691Y002317D03*
X011171Y001927D03*
X011151Y001207D03*
X010161Y001937D03*
D126*
X010096Y001917D03*
X010086Y001217D03*
X011206Y001227D03*
D127*
X011191Y001217D03*
X011201Y001917D03*
X010661Y002327D03*
X010121Y001927D03*
D128*
X010071Y001227D03*
X011231Y001907D03*
D129*
X011261Y001887D03*
X010691Y002207D03*
X010071Y001907D03*
X010051Y001237D03*
X011241Y001247D03*
D130*
X011221Y001237D03*
X011251Y001897D03*
D131*
X011281Y001867D03*
X011291Y001857D03*
X010681Y002337D03*
X010031Y001257D03*
X010041Y001247D03*
D132*
X010056Y001897D03*
X010686Y002177D03*
X010686Y002187D03*
X010686Y002197D03*
X011276Y001877D03*
X011246Y001257D03*
D133*
X011271Y001287D03*
X011301Y001847D03*
X010031Y001877D03*
X010021Y001267D03*
D134*
X010046Y001887D03*
X011256Y001267D03*
X011266Y001277D03*
D135*
X011276Y001297D03*
X011286Y001307D03*
X011286Y001317D03*
X011316Y001807D03*
X011316Y001817D03*
X011306Y001827D03*
X011306Y001837D03*
X010026Y001867D03*
X010016Y001277D03*
D136*
X010011Y001287D03*
X010011Y001857D03*
X010971Y002097D03*
X011321Y001797D03*
X011321Y001787D03*
X011291Y001327D03*
D137*
X011296Y001337D03*
X011296Y001347D03*
X011296Y001357D03*
X011306Y001377D03*
X011306Y001387D03*
X011326Y001727D03*
X011326Y001737D03*
X011326Y001747D03*
X011326Y001757D03*
X011326Y001767D03*
X011326Y001777D03*
X010006Y001837D03*
X010006Y001847D03*
X009996Y001317D03*
X010006Y001307D03*
X010006Y001297D03*
D138*
X009991Y001327D03*
X009991Y001337D03*
X009991Y001347D03*
X009981Y001387D03*
X010001Y001827D03*
X010401Y002157D03*
X011331Y001717D03*
X011331Y001707D03*
X011331Y001697D03*
X011331Y001687D03*
X011331Y001677D03*
X011331Y001667D03*
X011331Y001657D03*
X011331Y001647D03*
X011331Y001637D03*
X011331Y001627D03*
X011331Y001617D03*
X011331Y001607D03*
X011331Y001597D03*
X011331Y001587D03*
X011321Y001557D03*
X011321Y001547D03*
X011321Y001537D03*
X011321Y001527D03*
X011321Y001517D03*
X011321Y001507D03*
X011321Y001497D03*
X011321Y001487D03*
X011321Y001477D03*
X011321Y001467D03*
X011311Y001437D03*
X011311Y001427D03*
X011311Y001417D03*
X011311Y001407D03*
X011311Y001397D03*
X011301Y001367D03*
D139*
X011316Y001447D03*
X011316Y001457D03*
X011326Y001567D03*
X011326Y001577D03*
X009996Y001817D03*
X009986Y001807D03*
X009986Y001797D03*
X009976Y001767D03*
X009976Y001437D03*
X009976Y001427D03*
X009976Y001417D03*
X009976Y001407D03*
X009976Y001397D03*
X009986Y001377D03*
X009986Y001367D03*
X009986Y001357D03*
D140*
X009971Y001447D03*
X009971Y001457D03*
X009971Y001467D03*
X009971Y001477D03*
X009971Y001487D03*
X009971Y001497D03*
X009971Y001507D03*
X009971Y001517D03*
X009971Y001527D03*
X009971Y001537D03*
X009971Y001547D03*
X009971Y001557D03*
X009971Y001567D03*
X009971Y001577D03*
X009971Y001697D03*
X009971Y001707D03*
X009971Y001717D03*
X009971Y001727D03*
X009971Y001737D03*
X009971Y001747D03*
X009971Y001757D03*
X009981Y001777D03*
X009981Y001787D03*
D141*
X009966Y001687D03*
X009966Y001677D03*
X009966Y001667D03*
X009966Y001657D03*
X009966Y001647D03*
X009966Y001637D03*
X009966Y001627D03*
X009966Y001617D03*
X009966Y001607D03*
X009966Y001597D03*
X009966Y001587D03*
X010396Y002167D03*
X010976Y002157D03*
D142*
X010771Y002227D03*
X011131Y001937D03*
D143*
X010656Y001947D03*
D144*
X010656Y001957D03*
D145*
X010651Y001967D03*
D146*
X010646Y001977D03*
D147*
X010646Y001987D03*
D148*
X010636Y002007D03*
D149*
X010631Y002017D03*
D150*
X010616Y002027D03*
D151*
X010596Y002037D03*
D152*
X010571Y002047D03*
D153*
X010551Y002057D03*
D154*
X011056Y002087D03*
D155*
X010686Y002107D03*
D156*
X010681Y002117D03*
D157*
X010681Y002127D03*
X010681Y002137D03*
D158*
X010676Y002157D03*
D159*
X010686Y002167D03*
X010696Y002217D03*
D160*
X010976Y002177D03*
X010976Y002167D03*
X010396Y002187D03*
D161*
X010391Y002177D03*
X010681Y002347D03*
D162*
X010421Y002227D03*
X010411Y002217D03*
X010401Y002207D03*
X010401Y002197D03*
X010971Y002187D03*
D163*
X010966Y002197D03*
X010966Y002207D03*
X010956Y002217D03*
D164*
X010681Y002237D03*
D165*
X010676Y002257D03*
D166*
X010681Y002267D03*
D167*
X010681Y002277D03*
D168*
X010681Y002287D03*
D169*
X010676Y002297D03*
D170*
X010686Y002307D03*
D171*
X010886Y002327D03*
X010926Y002377D03*
X010946Y002407D03*
X010486Y002347D03*
X010476Y002367D03*
X010456Y002397D03*
X010446Y002407D03*
X010436Y002427D03*
D172*
X010441Y002417D03*
X010461Y002387D03*
X010471Y002377D03*
X010481Y002357D03*
X010491Y002337D03*
X010891Y002337D03*
X010901Y002347D03*
X010911Y002357D03*
X010921Y002367D03*
X010931Y002387D03*
X010941Y002397D03*
D173*
X010951Y002417D03*
D174*
X021175Y007170D03*
X021175Y007186D03*
X021175Y007201D03*
X021175Y007217D03*
X021175Y007233D03*
X021175Y007249D03*
X021175Y007264D03*
X021175Y007280D03*
X021175Y007296D03*
X021175Y007312D03*
X021175Y007327D03*
X021175Y007343D03*
X021175Y007359D03*
X021175Y007375D03*
X021175Y007390D03*
X021175Y007406D03*
X021175Y007422D03*
X021175Y007438D03*
X021175Y007453D03*
X021175Y007469D03*
X021175Y007485D03*
X021175Y007501D03*
X021175Y007516D03*
X021175Y007532D03*
D175*
X020301Y007941D03*
X021498Y008319D03*
X022112Y009816D03*
X020254Y009816D03*
D176*
X020246Y009831D03*
X022120Y009831D03*
X021994Y007941D03*
D177*
X021986Y007973D03*
X021970Y007989D03*
X021954Y008004D03*
X021939Y008020D03*
X021923Y008036D03*
X021907Y008052D03*
X021891Y008067D03*
X021876Y008083D03*
X021860Y008099D03*
X021844Y008115D03*
X021828Y008130D03*
X021813Y008146D03*
X021797Y008162D03*
X021781Y008193D03*
X021765Y008209D03*
X021750Y008225D03*
X021734Y008241D03*
X021718Y008256D03*
X021702Y008272D03*
X021498Y008225D03*
X021498Y008115D03*
X021513Y008461D03*
X021513Y008477D03*
X021435Y008556D03*
X021419Y008571D03*
X021403Y008587D03*
X021387Y008603D03*
X021372Y008619D03*
X021356Y008634D03*
X021340Y008650D03*
X021324Y008666D03*
X021309Y008682D03*
X021293Y008697D03*
X021277Y008713D03*
X021261Y008729D03*
X021167Y008839D03*
X021120Y008792D03*
X021104Y008776D03*
X021088Y008760D03*
X021073Y008745D03*
X021057Y008729D03*
X021041Y008713D03*
X021025Y008697D03*
X021010Y008682D03*
X020994Y008666D03*
X020978Y008650D03*
X020962Y008634D03*
X020947Y008619D03*
X020931Y008603D03*
X020852Y008524D03*
X020789Y008461D03*
X020773Y008445D03*
X020758Y008430D03*
X020742Y008414D03*
X020710Y008382D03*
X020695Y008367D03*
X020647Y008304D03*
X020632Y008288D03*
X020616Y008272D03*
X020600Y008256D03*
X020584Y008241D03*
X020569Y008225D03*
X020553Y008209D03*
X020537Y008193D03*
X020521Y008178D03*
X020506Y008162D03*
X020490Y008146D03*
X020474Y008130D03*
X020458Y008115D03*
X020443Y008099D03*
X020427Y008083D03*
X020411Y008067D03*
X020395Y008052D03*
X020380Y008036D03*
X020364Y008020D03*
X020348Y008004D03*
X020332Y007989D03*
X020317Y007973D03*
X020301Y007957D03*
X020868Y008335D03*
X020868Y008351D03*
X020868Y008367D03*
X020868Y008382D03*
X020868Y008398D03*
X020868Y008414D03*
X020836Y008697D03*
X020836Y008713D03*
X020836Y008729D03*
X020836Y008745D03*
X020836Y008760D03*
X020836Y008776D03*
X020821Y008886D03*
X020821Y008902D03*
X020821Y008918D03*
X020821Y008934D03*
X020821Y008949D03*
X020821Y008965D03*
X020805Y009075D03*
X020805Y009091D03*
X020805Y009107D03*
X020805Y009123D03*
X020805Y009138D03*
X020868Y009154D03*
X020884Y009138D03*
X020899Y009123D03*
X020915Y009107D03*
X020978Y009028D03*
X020994Y009012D03*
X021010Y008997D03*
X021025Y008981D03*
X021041Y008965D03*
X021057Y008949D03*
X021073Y008934D03*
X021088Y008918D03*
X021104Y008902D03*
X021120Y008886D03*
X021214Y008886D03*
X021230Y008902D03*
X021246Y008918D03*
X021261Y008934D03*
X021277Y008949D03*
X021293Y008965D03*
X021309Y008981D03*
X021324Y008997D03*
X021340Y009012D03*
X021356Y009028D03*
X021372Y009044D03*
X021387Y009060D03*
X021403Y009075D03*
X021482Y009170D03*
X021498Y009186D03*
X021576Y009170D03*
X021576Y009264D03*
X021592Y009375D03*
X021592Y009390D03*
X021687Y009375D03*
X021702Y009390D03*
X021718Y009406D03*
X021734Y009422D03*
X021750Y009438D03*
X021765Y009453D03*
X021781Y009469D03*
X021797Y009485D03*
X021813Y009501D03*
X021828Y009516D03*
X021844Y009532D03*
X021860Y009548D03*
X021876Y009564D03*
X021891Y009579D03*
X021907Y009595D03*
X021923Y009611D03*
X021939Y009627D03*
X021954Y009642D03*
X021970Y009658D03*
X021986Y009674D03*
X022002Y009690D03*
X022017Y009705D03*
X022033Y009721D03*
X022049Y009737D03*
X022065Y009753D03*
X022080Y009768D03*
X022096Y009784D03*
X021561Y009044D03*
X021561Y009028D03*
X021561Y009012D03*
X021561Y008997D03*
X021545Y008886D03*
X021545Y008871D03*
X021545Y008855D03*
X021545Y008839D03*
X021545Y008823D03*
X021529Y008713D03*
X021529Y008697D03*
X021529Y008682D03*
X021529Y008666D03*
X021529Y008650D03*
X020805Y009217D03*
X020789Y009233D03*
X020789Y009312D03*
X020789Y009327D03*
X020710Y009312D03*
X020632Y009406D03*
X020616Y009422D03*
X020600Y009438D03*
X020584Y009453D03*
X020569Y009469D03*
X020553Y009485D03*
X020537Y009501D03*
X020521Y009516D03*
X020506Y009532D03*
X020490Y009548D03*
X020474Y009564D03*
X020458Y009579D03*
X020443Y009595D03*
X020380Y009674D03*
X020348Y009705D03*
X020332Y009721D03*
X020317Y009737D03*
X020301Y009753D03*
X020285Y009768D03*
X020269Y009784D03*
X020773Y009516D03*
X020789Y009532D03*
X020773Y009438D03*
D178*
X020781Y009422D03*
X020781Y009406D03*
X020781Y009390D03*
X020781Y009375D03*
X020781Y009359D03*
X020781Y009343D03*
X020702Y009327D03*
X020687Y009343D03*
X020671Y009359D03*
X020655Y009375D03*
X020639Y009390D03*
X020435Y009611D03*
X020419Y009627D03*
X020403Y009642D03*
X020387Y009658D03*
X020356Y009690D03*
X020261Y009800D03*
X020797Y009154D03*
X020813Y009060D03*
X020813Y009044D03*
X020813Y009028D03*
X020813Y009012D03*
X020813Y008997D03*
X020813Y008981D03*
X020828Y008871D03*
X020828Y008855D03*
X020828Y008839D03*
X020828Y008823D03*
X020828Y008808D03*
X020828Y008792D03*
X020844Y008682D03*
X020844Y008666D03*
X020844Y008650D03*
X020844Y008634D03*
X020844Y008619D03*
X020844Y008603D03*
X020860Y008461D03*
X020860Y008445D03*
X020860Y008430D03*
X020876Y008319D03*
X020876Y008304D03*
X020876Y008288D03*
X020876Y008272D03*
X020876Y008256D03*
X020734Y008398D03*
X020687Y008351D03*
X020671Y008335D03*
X020655Y008319D03*
X021206Y008792D03*
X021222Y008776D03*
X021238Y008760D03*
X021254Y008745D03*
X021537Y008745D03*
X021537Y008760D03*
X021537Y008776D03*
X021537Y008792D03*
X021537Y008808D03*
X021537Y008729D03*
X021521Y008634D03*
X021521Y008619D03*
X021521Y008603D03*
X021521Y008587D03*
X021521Y008571D03*
X021521Y008556D03*
X021553Y008902D03*
X021553Y008918D03*
X021553Y008934D03*
X021553Y008949D03*
X021553Y008965D03*
X021553Y008981D03*
X021569Y009060D03*
X021569Y009075D03*
X021569Y009091D03*
X021569Y009107D03*
X021569Y009123D03*
X021569Y009138D03*
X021569Y009154D03*
X021474Y009154D03*
X021458Y009138D03*
X021695Y009233D03*
X021695Y009249D03*
X021695Y009264D03*
X021695Y009280D03*
X021695Y009296D03*
X021695Y009312D03*
X021600Y009406D03*
X021600Y009422D03*
X021600Y009438D03*
X022104Y009800D03*
X020970Y009044D03*
X020954Y009060D03*
X020939Y009075D03*
X020923Y009091D03*
X021789Y008178D03*
X021994Y007957D03*
D179*
X021592Y008209D03*
X021498Y008241D03*
X021498Y008256D03*
X021498Y008272D03*
X021498Y008288D03*
X021403Y008335D03*
X021529Y008430D03*
X021498Y008508D03*
X021167Y008823D03*
X021167Y008855D03*
X020868Y008556D03*
X020836Y008493D03*
X020931Y008193D03*
X020931Y008178D03*
X020931Y008162D03*
X020931Y008146D03*
X020931Y008130D03*
X020931Y008115D03*
X020821Y009186D03*
X020773Y009264D03*
X020899Y009516D03*
X020899Y009532D03*
X020899Y009548D03*
X021561Y009233D03*
X021592Y009296D03*
X021655Y009579D03*
X024222Y008508D03*
X024537Y008052D03*
X024521Y008036D03*
X024521Y008020D03*
X024506Y008004D03*
X024490Y007989D03*
X024474Y007973D03*
D180*
X024443Y007863D03*
X024458Y007847D03*
X024490Y007816D03*
X024506Y007800D03*
X024537Y007768D03*
X024553Y007753D03*
X024584Y007721D03*
X024600Y007705D03*
X024695Y007595D03*
X024789Y007705D03*
X024836Y007768D03*
X024317Y007989D03*
X024301Y008004D03*
X024269Y008036D03*
X024254Y008052D03*
X024112Y007989D03*
X024112Y008193D03*
X024080Y008225D03*
X023923Y008382D03*
X023907Y008398D03*
X023876Y008430D03*
X023860Y008445D03*
X024112Y008461D03*
X024537Y008445D03*
X024553Y008430D03*
X024553Y008414D03*
X024569Y008382D03*
X024080Y008949D03*
X023545Y008760D03*
X023529Y008776D03*
X023513Y008792D03*
X023498Y008808D03*
X023482Y008823D03*
X023466Y008839D03*
X023450Y008855D03*
X023340Y008965D03*
X023324Y008981D03*
X023309Y008997D03*
X023293Y009012D03*
X023277Y009028D03*
X023261Y009044D03*
X023246Y009060D03*
X023214Y009091D03*
X023199Y009107D03*
X023183Y009123D03*
X023167Y009138D03*
X023151Y009154D03*
X023136Y009170D03*
X022962Y009170D03*
X022947Y009154D03*
X023277Y008855D03*
X022962Y007690D03*
X022978Y007674D03*
X022994Y007658D03*
X023010Y007642D03*
X021498Y008130D03*
X021513Y008414D03*
X020868Y009579D03*
X020884Y009595D03*
X024695Y009264D03*
X024710Y009249D03*
X024726Y009233D03*
X024742Y009217D03*
X024758Y009201D03*
X024758Y009186D03*
X024789Y009154D03*
X024836Y009091D03*
D181*
X024616Y009327D03*
X024600Y009343D03*
X024584Y009359D03*
X024380Y008603D03*
X024506Y008493D03*
X024521Y008477D03*
X024128Y008493D03*
X023750Y008540D03*
X023750Y008556D03*
X023750Y008571D03*
X023671Y008445D03*
X024065Y008256D03*
X024128Y008162D03*
X024143Y007957D03*
X024584Y007501D03*
X024600Y007516D03*
X024616Y007532D03*
X023277Y007957D03*
X023136Y007516D03*
X023183Y007485D03*
X023750Y008745D03*
X023702Y008823D03*
X023671Y008855D03*
X023183Y009375D03*
X023151Y009359D03*
X023136Y009343D03*
X023120Y009327D03*
X023041Y009249D03*
X021513Y008398D03*
X021498Y008146D03*
D182*
X021498Y008162D03*
X021608Y009201D03*
X021608Y009217D03*
X020947Y009611D03*
X023041Y009233D03*
X023277Y009438D03*
X024458Y009438D03*
X024490Y009422D03*
X024537Y009390D03*
X024049Y008288D03*
X024143Y008130D03*
X023876Y007201D03*
X023261Y007438D03*
D183*
X023309Y007406D03*
X023340Y007390D03*
X024159Y008099D03*
X024033Y008319D03*
X023718Y008634D03*
X023041Y009217D03*
X023324Y009469D03*
X024411Y009469D03*
X024443Y009453D03*
X024695Y007658D03*
X024695Y007642D03*
X024411Y007390D03*
X021498Y008178D03*
D184*
X021584Y008193D03*
X021411Y008193D03*
X021490Y008524D03*
X020876Y008571D03*
X020828Y008477D03*
X020828Y009170D03*
X020765Y009280D03*
X021537Y009579D03*
X021600Y009312D03*
X022781Y008871D03*
X022750Y008776D03*
X022734Y008729D03*
X022718Y008650D03*
X022702Y008571D03*
X022702Y008556D03*
X022702Y008540D03*
X022702Y008524D03*
X022702Y008508D03*
X022702Y008493D03*
X022702Y008477D03*
X022702Y008461D03*
X022702Y008445D03*
X022702Y008430D03*
X022702Y008414D03*
X022702Y008398D03*
X022702Y008382D03*
X022702Y008367D03*
X022702Y008351D03*
X022702Y008335D03*
X022702Y008319D03*
X022702Y008304D03*
X022702Y008288D03*
X022718Y008209D03*
X022734Y008146D03*
X022734Y008130D03*
X022750Y008099D03*
X022750Y008083D03*
X022781Y007989D03*
X024104Y008965D03*
X024970Y008839D03*
X025002Y008745D03*
X025002Y008729D03*
X025017Y008682D03*
X025017Y008666D03*
X025033Y008587D03*
X025033Y008571D03*
X025033Y008288D03*
X025033Y008272D03*
X025017Y008193D03*
X025017Y008178D03*
X025002Y008130D03*
X024970Y008020D03*
X024576Y008130D03*
X024576Y008146D03*
X024576Y008162D03*
X024576Y008178D03*
X024561Y008115D03*
X024561Y008099D03*
X024561Y008083D03*
X024545Y008067D03*
D185*
X023868Y009627D03*
X021143Y008209D03*
D186*
X021136Y008225D03*
X021136Y008241D03*
X023340Y008934D03*
D187*
X024120Y008981D03*
X021584Y009280D03*
X021569Y009249D03*
X020813Y009201D03*
X020781Y009249D03*
X020797Y009548D03*
X020860Y008540D03*
X020844Y008508D03*
X021380Y008304D03*
X021380Y008288D03*
X021380Y008272D03*
X021380Y008256D03*
X021395Y008319D03*
X021490Y008304D03*
X021616Y008272D03*
X021616Y008256D03*
X021616Y008241D03*
X021600Y008225D03*
X021521Y008445D03*
X021506Y008493D03*
D188*
X021632Y008304D03*
X021647Y008288D03*
X022765Y008036D03*
X022813Y007926D03*
X022844Y007863D03*
X022860Y007831D03*
X022876Y007816D03*
X022876Y007800D03*
X022891Y007784D03*
X022907Y007768D03*
X022907Y007753D03*
X022923Y007737D03*
X022939Y007721D03*
X022954Y007705D03*
X023285Y008020D03*
X023285Y008036D03*
X023285Y008052D03*
X023285Y008067D03*
X023285Y008083D03*
X023285Y008099D03*
X023285Y008115D03*
X023285Y008130D03*
X023285Y008146D03*
X023285Y008162D03*
X023285Y008178D03*
X023285Y008193D03*
X023285Y008209D03*
X023285Y008225D03*
X023285Y008241D03*
X023285Y008256D03*
X023285Y008272D03*
X023285Y008288D03*
X023285Y008304D03*
X023285Y008319D03*
X023285Y008335D03*
X023285Y008351D03*
X023285Y008367D03*
X023285Y008382D03*
X023285Y008445D03*
X023285Y008461D03*
X023285Y008477D03*
X023285Y008493D03*
X023285Y008508D03*
X023285Y008524D03*
X023285Y008540D03*
X023285Y008556D03*
X023285Y008571D03*
X023285Y008587D03*
X023285Y008603D03*
X023285Y008619D03*
X023285Y008634D03*
X023285Y008650D03*
X023285Y008666D03*
X023285Y008682D03*
X023285Y008697D03*
X023285Y008713D03*
X023285Y008729D03*
X023285Y008745D03*
X023285Y008760D03*
X023285Y008776D03*
X023285Y008792D03*
X023285Y008808D03*
X023285Y008823D03*
X023285Y008839D03*
X022907Y009091D03*
X022907Y009107D03*
X022923Y009123D03*
X022939Y009138D03*
X022891Y009075D03*
X022876Y009060D03*
X022860Y009028D03*
X022844Y008997D03*
X022765Y008823D03*
X023537Y008367D03*
X024104Y008445D03*
X024088Y008871D03*
X024088Y008886D03*
X024561Y008398D03*
X024576Y008367D03*
X024576Y008351D03*
X024576Y008335D03*
X024986Y008067D03*
X024939Y007941D03*
X024907Y007879D03*
X024891Y007863D03*
X024891Y007847D03*
X024860Y007800D03*
X024844Y007784D03*
X024828Y007753D03*
X024813Y007737D03*
X024797Y007721D03*
X024781Y007690D03*
X024104Y008004D03*
X024939Y008918D03*
X024923Y008949D03*
X024907Y008981D03*
X024891Y008997D03*
X024891Y009012D03*
X024860Y009060D03*
X024844Y009075D03*
X024828Y009107D03*
X024813Y009123D03*
X024797Y009138D03*
X024781Y009170D03*
D189*
X024868Y009044D03*
X024884Y009028D03*
X024915Y008965D03*
X024931Y008934D03*
X024947Y008902D03*
X024947Y008886D03*
X024962Y008871D03*
X024962Y008855D03*
X024978Y008823D03*
X024978Y008808D03*
X024994Y008792D03*
X024994Y008776D03*
X024994Y008760D03*
X025010Y008713D03*
X025010Y008697D03*
X025025Y008650D03*
X025025Y008634D03*
X025025Y008619D03*
X025025Y008603D03*
X025041Y008556D03*
X025041Y008540D03*
X025041Y008524D03*
X025041Y008508D03*
X025041Y008493D03*
X025041Y008477D03*
X025041Y008461D03*
X025041Y008445D03*
X025041Y008430D03*
X025041Y008414D03*
X025041Y008398D03*
X025041Y008382D03*
X025041Y008367D03*
X025041Y008351D03*
X025041Y008335D03*
X025041Y008319D03*
X025041Y008304D03*
X025025Y008256D03*
X025025Y008241D03*
X025025Y008225D03*
X025025Y008209D03*
X025010Y008162D03*
X025010Y008146D03*
X024994Y008115D03*
X024994Y008099D03*
X024994Y008083D03*
X024978Y008052D03*
X024978Y008036D03*
X024962Y008004D03*
X024962Y007989D03*
X024947Y007973D03*
X024947Y007957D03*
X024931Y007926D03*
X024915Y007910D03*
X024915Y007894D03*
X024884Y007831D03*
X024868Y007816D03*
X024584Y008193D03*
X024584Y008209D03*
X024584Y008225D03*
X024584Y008241D03*
X024584Y008256D03*
X024584Y008272D03*
X024584Y008288D03*
X024584Y008304D03*
X024584Y008319D03*
X024380Y008619D03*
X024096Y008619D03*
X024096Y008634D03*
X024096Y008650D03*
X024096Y008666D03*
X024096Y008682D03*
X024096Y008697D03*
X024096Y008713D03*
X024096Y008729D03*
X024096Y008745D03*
X024096Y008760D03*
X024096Y008776D03*
X024096Y008792D03*
X024096Y008808D03*
X024096Y008823D03*
X024096Y008839D03*
X024096Y008855D03*
X024096Y008603D03*
X024096Y008587D03*
X024096Y008571D03*
X024096Y008556D03*
X024096Y008540D03*
X024096Y008524D03*
X024096Y008508D03*
X024096Y008430D03*
X024096Y008414D03*
X024096Y008398D03*
X024096Y008382D03*
X024096Y008367D03*
X024096Y008052D03*
X024096Y008036D03*
X024096Y008020D03*
X022852Y007847D03*
X022836Y007879D03*
X022821Y007894D03*
X022821Y007910D03*
X022805Y007941D03*
X022805Y007957D03*
X022789Y007973D03*
X022773Y008004D03*
X022773Y008020D03*
X022758Y008052D03*
X022758Y008067D03*
X022742Y008115D03*
X022726Y008162D03*
X022726Y008178D03*
X022726Y008193D03*
X022710Y008225D03*
X022710Y008241D03*
X022710Y008256D03*
X022710Y008272D03*
X022710Y008587D03*
X022710Y008603D03*
X022710Y008619D03*
X022710Y008634D03*
X022726Y008666D03*
X022726Y008682D03*
X022726Y008697D03*
X022726Y008713D03*
X022742Y008745D03*
X022742Y008760D03*
X022758Y008792D03*
X022758Y008808D03*
X022773Y008839D03*
X022773Y008855D03*
X022789Y008886D03*
X022805Y008902D03*
X022805Y008918D03*
X022805Y008934D03*
X022821Y008949D03*
X022821Y008965D03*
X022836Y008981D03*
X022852Y009012D03*
X022868Y009044D03*
X021624Y008319D03*
X021608Y008335D03*
X021482Y008540D03*
X021167Y008808D03*
X021167Y008871D03*
X020884Y008587D03*
X020758Y009296D03*
X021498Y009595D03*
D190*
X021513Y008351D03*
X023513Y008382D03*
X023702Y008650D03*
X023702Y008666D03*
X024017Y008351D03*
X024175Y008067D03*
X024695Y007674D03*
X024364Y007375D03*
X023372Y007375D03*
X023372Y009485D03*
X024332Y009501D03*
D191*
X024372Y009485D03*
X023868Y009658D03*
X023049Y009201D03*
X023758Y008493D03*
X024025Y008335D03*
X024167Y008083D03*
X024372Y007879D03*
X024387Y008587D03*
X021506Y008367D03*
X021222Y009564D03*
X021222Y009579D03*
X021222Y009595D03*
X021222Y009674D03*
X021222Y009690D03*
D192*
X021506Y008382D03*
X023285Y007941D03*
X023285Y007422D03*
X024151Y008115D03*
X024041Y008304D03*
X023758Y008508D03*
X023726Y008603D03*
X023726Y008619D03*
X024041Y008902D03*
X024041Y008918D03*
X023301Y009453D03*
X023254Y009422D03*
X024387Y007957D03*
X024482Y007438D03*
X024450Y007422D03*
X024435Y007406D03*
D193*
X024387Y008540D03*
X021269Y009091D03*
X021269Y009107D03*
D194*
X021277Y009123D03*
X023513Y009532D03*
X024380Y008524D03*
X024285Y007926D03*
D195*
X024309Y007910D03*
X024293Y007343D03*
X023443Y007343D03*
X023679Y008697D03*
X023679Y008713D03*
X024387Y008556D03*
X023443Y009516D03*
X021254Y009170D03*
X021254Y009154D03*
X021254Y009138D03*
D196*
X021632Y009186D03*
X021632Y009327D03*
X021632Y009343D03*
X021632Y009359D03*
X021647Y009516D03*
X021647Y009532D03*
X021632Y009548D03*
X020860Y009564D03*
X023049Y009264D03*
X023065Y009280D03*
X023080Y009296D03*
X023096Y009312D03*
X023238Y009075D03*
X023348Y008949D03*
X023553Y008745D03*
X023710Y008808D03*
X023726Y008792D03*
X023742Y008776D03*
X023742Y008760D03*
X023695Y008839D03*
X023884Y008414D03*
X023931Y008367D03*
X024073Y008241D03*
X024104Y008209D03*
X024120Y008178D03*
X024120Y007973D03*
X024277Y008020D03*
X024324Y007973D03*
X024466Y007831D03*
X024513Y007784D03*
X024561Y007737D03*
X024608Y007690D03*
X024702Y007611D03*
X024671Y007579D03*
X024655Y007564D03*
X024639Y007548D03*
X024529Y008461D03*
X024120Y008477D03*
X023301Y008430D03*
X023285Y008004D03*
X023285Y007989D03*
X023285Y007973D03*
X023017Y007627D03*
X023033Y007611D03*
X023049Y007595D03*
X023065Y007579D03*
X023080Y007564D03*
X023096Y007548D03*
X023128Y007532D03*
X024671Y009280D03*
X024655Y009296D03*
X024639Y009312D03*
D197*
X021214Y009453D03*
D198*
X021191Y009469D03*
X023868Y007312D03*
D199*
X023876Y009548D03*
X021199Y009501D03*
X021199Y009485D03*
D200*
X021411Y009627D03*
X021616Y009564D03*
X023206Y009390D03*
X023222Y009406D03*
X023647Y008871D03*
X023742Y008587D03*
X023758Y008524D03*
X023647Y008430D03*
X024057Y008272D03*
X024136Y008146D03*
X024482Y008508D03*
X024057Y008934D03*
X024561Y009375D03*
X024513Y009406D03*
X024702Y007627D03*
X024561Y007485D03*
X024529Y007469D03*
X024513Y007453D03*
X023222Y007453D03*
X023206Y007469D03*
X023159Y007501D03*
D201*
X023285Y007910D03*
X023868Y009642D03*
X021317Y009611D03*
D202*
X021002Y009627D03*
X023049Y009186D03*
X023411Y009501D03*
X023695Y008682D03*
X023758Y008477D03*
X024387Y008571D03*
X023285Y007926D03*
X023411Y007359D03*
X024324Y007359D03*
D203*
X021159Y009642D03*
D204*
X021191Y009658D03*
X023521Y007327D03*
X024214Y007327D03*
X024230Y009532D03*
D205*
X023876Y007217D03*
D206*
X023868Y007233D03*
X023458Y008886D03*
D207*
X023876Y009611D03*
X023876Y007249D03*
D208*
X023868Y007264D03*
D209*
X023868Y007280D03*
D210*
X023876Y007296D03*
D211*
X024332Y007894D03*
X023765Y008461D03*
X023356Y008871D03*
X024301Y009516D03*
D212*
X024269Y007941D03*
D213*
X023458Y008398D03*
D214*
X023474Y008414D03*
X023395Y008918D03*
D215*
X023671Y008729D03*
D216*
X023435Y008902D03*
D217*
X023868Y009564D03*
D218*
X023868Y009579D03*
D219*
X023876Y009595D03*
D220*
X021406Y006255D03*
X021264Y005073D03*
X021807Y004979D03*
D221*
X021855Y005003D03*
D222*
X021878Y005026D03*
D223*
X022162Y005381D03*
X022162Y005404D03*
X022445Y005593D03*
X022705Y005593D03*
X022327Y005924D03*
X023673Y005026D03*
X024382Y005097D03*
D224*
X024252Y005026D03*
X023827Y005144D03*
X023827Y005617D03*
X024441Y005688D03*
X022622Y006089D03*
X022150Y005428D03*
X021890Y005428D03*
X021890Y005451D03*
X021890Y005404D03*
D225*
X021453Y005050D03*
D226*
X022303Y005050D03*
D227*
X022941Y005050D03*
X022563Y006160D03*
X021500Y005947D03*
X021217Y005947D03*
X021217Y005333D03*
X021500Y005333D03*
X024760Y005357D03*
D228*
X024441Y005711D03*
X023284Y005050D03*
X022079Y005688D03*
X021890Y005546D03*
D229*
X021760Y005947D03*
X022587Y006136D03*
X023673Y005711D03*
X023673Y005050D03*
X024264Y005050D03*
D230*
X024252Y005073D03*
X024701Y005050D03*
X024134Y005711D03*
X022575Y005428D03*
X022575Y005404D03*
X022575Y005381D03*
X022575Y005357D03*
X022575Y005333D03*
X022575Y005310D03*
X022575Y005286D03*
X022575Y005262D03*
X022575Y005239D03*
X022575Y005215D03*
X022575Y005192D03*
X022575Y005168D03*
X022575Y005144D03*
X022575Y005121D03*
D231*
X022492Y005073D03*
D232*
X022941Y005073D03*
X023154Y005262D03*
X023130Y005310D03*
X024122Y005688D03*
X022020Y005924D03*
X021760Y005924D03*
X021500Y005924D03*
X021217Y005924D03*
D233*
X021772Y005853D03*
X021796Y005782D03*
X021819Y005711D03*
X021843Y005640D03*
X021890Y005522D03*
X021890Y005499D03*
X021890Y005475D03*
X022150Y005522D03*
X022126Y005593D03*
X022079Y005711D03*
X022079Y005735D03*
X022079Y005759D03*
X022055Y005829D03*
X022032Y005900D03*
X022315Y005947D03*
X021512Y005357D03*
X023118Y005333D03*
X023142Y005286D03*
X023166Y005239D03*
X023189Y005215D03*
X023189Y005192D03*
X023213Y005168D03*
X023213Y005144D03*
X023236Y005121D03*
X023260Y005097D03*
X023260Y005073D03*
X023473Y005262D03*
X023473Y005286D03*
X023473Y005310D03*
X023473Y005333D03*
X023473Y005357D03*
X023473Y005381D03*
X023473Y005404D03*
X023473Y005428D03*
X023473Y005451D03*
X023473Y005475D03*
X023473Y005499D03*
X023496Y005570D03*
X023213Y005593D03*
X023213Y005475D03*
X023213Y005451D03*
X023851Y005570D03*
X023874Y005499D03*
X023874Y005475D03*
X023874Y005451D03*
X023874Y005428D03*
X023874Y005404D03*
X023874Y005381D03*
X023874Y005357D03*
X023874Y005333D03*
X023874Y005310D03*
X023874Y005286D03*
X023874Y005262D03*
X023851Y005192D03*
X024701Y005192D03*
X024701Y005215D03*
X024701Y005239D03*
X024701Y005262D03*
X024701Y005286D03*
X024701Y005310D03*
X024701Y005333D03*
X024701Y005404D03*
X024701Y005428D03*
X024701Y005451D03*
X024701Y005475D03*
X024701Y005499D03*
X024701Y005522D03*
X024701Y005546D03*
X024701Y005570D03*
X024701Y005593D03*
X024701Y005617D03*
X024701Y005640D03*
X024701Y005664D03*
X024890Y005664D03*
X024914Y005640D03*
X024937Y005593D03*
X024937Y005570D03*
X024937Y005546D03*
X024937Y005522D03*
X024937Y005499D03*
X024937Y005475D03*
X024914Y005428D03*
X024890Y005404D03*
X024701Y005168D03*
X024701Y005144D03*
X024701Y005121D03*
X024701Y005097D03*
X024701Y005073D03*
D234*
X024925Y005451D03*
X024925Y005617D03*
X024146Y005144D03*
X024146Y005121D03*
X024170Y005097D03*
X024122Y005168D03*
X024122Y005192D03*
X024122Y005215D03*
X024122Y005239D03*
X024122Y005262D03*
X024122Y005286D03*
X024122Y005310D03*
X024122Y005333D03*
X024122Y005357D03*
X024122Y005381D03*
X024122Y005404D03*
X024122Y005428D03*
X024122Y005451D03*
X024122Y005475D03*
X024122Y005499D03*
X024122Y005522D03*
X024122Y005546D03*
X024122Y005570D03*
X024122Y005593D03*
X024122Y005617D03*
X024122Y005640D03*
X024122Y005664D03*
X023862Y005546D03*
X023862Y005522D03*
X023839Y005593D03*
X023815Y005640D03*
X023792Y005664D03*
X023744Y005688D03*
X023603Y005688D03*
X023555Y005664D03*
X023532Y005640D03*
X023508Y005617D03*
X023508Y005593D03*
X023484Y005546D03*
X023484Y005522D03*
X023225Y005522D03*
X023225Y005499D03*
X023225Y005546D03*
X023225Y005570D03*
X023201Y005617D03*
X023201Y005640D03*
X023177Y005664D03*
X022941Y005664D03*
X022941Y005640D03*
X022941Y005617D03*
X022941Y005593D03*
X022941Y005570D03*
X022941Y005546D03*
X022941Y005522D03*
X022941Y005499D03*
X022941Y005475D03*
X022941Y005451D03*
X022941Y005428D03*
X022941Y005404D03*
X022941Y005333D03*
X022941Y005310D03*
X022941Y005286D03*
X022941Y005262D03*
X022941Y005239D03*
X022941Y005215D03*
X022941Y005192D03*
X022941Y005168D03*
X022941Y005144D03*
X022941Y005121D03*
X022941Y005097D03*
X023177Y005404D03*
X023201Y005428D03*
X023484Y005239D03*
X023484Y005215D03*
X023484Y005192D03*
X023508Y005168D03*
X023508Y005144D03*
X023532Y005121D03*
X023555Y005097D03*
X023579Y005073D03*
X023768Y005073D03*
X023792Y005097D03*
X023815Y005121D03*
X023839Y005168D03*
X023862Y005215D03*
X023862Y005239D03*
X022610Y006113D03*
X022067Y005806D03*
X022067Y005782D03*
X022044Y005853D03*
X022044Y005877D03*
X022114Y005664D03*
X022114Y005640D03*
X022114Y005617D03*
X022138Y005570D03*
X022138Y005546D03*
X022162Y005499D03*
X022162Y005475D03*
X022162Y005451D03*
X021855Y005570D03*
X021855Y005593D03*
X021855Y005617D03*
X021831Y005664D03*
X021831Y005688D03*
X021807Y005735D03*
X021807Y005759D03*
X021784Y005806D03*
X021784Y005829D03*
X021760Y005877D03*
X021760Y005900D03*
X021500Y005900D03*
X021500Y005877D03*
X021500Y005853D03*
X021500Y005829D03*
X021500Y005806D03*
X021500Y005782D03*
X021500Y005759D03*
X021500Y005735D03*
X021500Y005711D03*
X021500Y005688D03*
X021500Y005617D03*
X021500Y005593D03*
X021500Y005570D03*
X021500Y005546D03*
X021500Y005522D03*
X021500Y005499D03*
X021500Y005475D03*
X021500Y005451D03*
X021500Y005428D03*
X021500Y005404D03*
X021500Y005381D03*
X021217Y005381D03*
X021217Y005404D03*
X021217Y005428D03*
X021217Y005451D03*
X021217Y005475D03*
X021217Y005499D03*
X021217Y005522D03*
X021217Y005546D03*
X021217Y005570D03*
X021217Y005593D03*
X021217Y005617D03*
X021217Y005688D03*
X021217Y005711D03*
X021217Y005735D03*
X021217Y005759D03*
X021217Y005782D03*
X021217Y005806D03*
X021217Y005829D03*
X021217Y005853D03*
X021217Y005877D03*
X021217Y005900D03*
X021217Y005357D03*
D235*
X021181Y005097D03*
X021276Y006231D03*
X021866Y006325D03*
X022504Y006207D03*
D236*
X022540Y006184D03*
X022988Y005711D03*
X023036Y005688D03*
X022540Y005097D03*
X021122Y006184D03*
X021075Y006160D03*
X020957Y006113D03*
X020673Y005570D03*
X020673Y005546D03*
X020697Y005475D03*
X020697Y005451D03*
X020721Y005428D03*
X020721Y005404D03*
X020744Y005381D03*
X020792Y005310D03*
X020886Y005239D03*
D237*
X021099Y005121D03*
X021359Y005640D03*
X021359Y005664D03*
D238*
X021973Y005593D03*
X021973Y005570D03*
X021996Y005640D03*
X021996Y005664D03*
X022233Y005593D03*
X022233Y005570D03*
X022233Y005546D03*
X022256Y005640D03*
X022256Y005664D03*
X022280Y005735D03*
X022280Y005759D03*
X022303Y005806D03*
X022303Y005829D03*
X022162Y005333D03*
X022162Y005310D03*
X021902Y005310D03*
X024406Y005121D03*
X024429Y005168D03*
D239*
X021205Y006207D03*
X020756Y005357D03*
X020780Y005333D03*
X020827Y005286D03*
X020851Y005262D03*
X020921Y005215D03*
X020945Y005192D03*
X020992Y005168D03*
X021040Y005144D03*
D240*
X021890Y005333D03*
X021890Y005357D03*
X021890Y005381D03*
X021984Y005617D03*
X022244Y005617D03*
X022268Y005688D03*
X022268Y005711D03*
X022292Y005782D03*
X022315Y005853D03*
X022315Y005877D03*
X022315Y005900D03*
X022150Y005357D03*
X024418Y005144D03*
X024441Y005192D03*
X024441Y005215D03*
X024441Y005239D03*
X024441Y005262D03*
X024441Y005286D03*
X024441Y005310D03*
X024441Y005333D03*
X024441Y005357D03*
X024441Y005381D03*
X024441Y005404D03*
X024441Y005428D03*
X024441Y005451D03*
X024441Y005475D03*
X024441Y005499D03*
X024441Y005522D03*
X024441Y005546D03*
X024441Y005570D03*
X024441Y005593D03*
X024441Y005617D03*
X024441Y005640D03*
X024441Y005664D03*
D241*
X024713Y005711D03*
X024784Y005381D03*
X023036Y005357D03*
X022563Y005451D03*
D242*
X022575Y005475D03*
X022575Y005499D03*
X022575Y005522D03*
X022575Y005546D03*
X022575Y005570D03*
X023047Y005381D03*
X024772Y005688D03*
X021016Y006136D03*
X020921Y006089D03*
X020898Y006066D03*
X020874Y006042D03*
X020827Y006018D03*
X020803Y005995D03*
X020780Y005971D03*
X020756Y005947D03*
X020756Y005924D03*
X020733Y005900D03*
X020709Y005877D03*
X020709Y005853D03*
X020685Y005829D03*
X020685Y005806D03*
X020685Y005782D03*
X020685Y005759D03*
X020662Y005735D03*
X020662Y005711D03*
X020662Y005688D03*
X020662Y005664D03*
X020662Y005640D03*
X020662Y005617D03*
X020662Y005593D03*
X020685Y005522D03*
X020685Y005499D03*
D243*
X022032Y005947D03*
D244*
X022457Y006231D03*
D245*
X022315Y006255D03*
D246*
X021878Y006278D03*
D247*
X021878Y006302D03*
D248*
X008850Y010240D03*
X008350Y010240D03*
X007850Y010240D03*
X007350Y010240D03*
X006850Y010240D03*
X006350Y010240D03*
X005850Y010240D03*
X005850Y012090D03*
X006350Y012090D03*
X006850Y012090D03*
X007350Y012090D03*
X007850Y012090D03*
X008350Y012090D03*
X008850Y012090D03*
D249*
X007952Y008202D03*
X006752Y008202D03*
D250*
X006752Y008662D03*
X007952Y008662D03*
D251*
X002355Y005806D02*
X002355Y005648D01*
X001961Y005648D01*
X001961Y005806D02*
X002355Y005806D01*
X001961Y006189D02*
X001961Y006445D01*
X001784Y006445D01*
X001784Y006189D01*
X001430Y005618D02*
X001430Y005461D01*
X001430Y005303D01*
X001430Y005461D02*
X001273Y005461D01*
X001430Y005461D02*
X001587Y005461D01*
X001076Y006209D02*
X001076Y006445D01*
X000899Y006445D01*
X000899Y006209D01*
X001961Y004625D02*
X002355Y004625D01*
X002355Y004467D01*
X001961Y004467D01*
X001587Y004279D02*
X001430Y004279D01*
X001430Y004437D01*
X001430Y004279D02*
X001430Y004122D01*
X001430Y004279D02*
X001273Y004279D01*
X001961Y004034D02*
X002355Y004034D01*
X002355Y003877D01*
X001961Y003877D01*
X001961Y003531D02*
X001961Y003295D01*
X001784Y003295D01*
X001784Y003531D01*
X001076Y003531D02*
X001076Y003295D01*
X000899Y003295D01*
X000899Y003531D01*
D252*
X000899Y004929D02*
X000308Y004929D01*
X000308Y005441D01*
X000899Y005441D01*
D253*
X000899Y004850D02*
X000308Y004850D01*
X000308Y004339D01*
X000899Y004339D01*
D254*
X001066Y005761D02*
X001091Y005761D01*
X001116Y005786D01*
X001116Y005837D01*
X001141Y005862D01*
X001166Y005862D01*
X001191Y005837D01*
X001191Y005786D01*
X001166Y005761D01*
X001066Y005761D02*
X001041Y005786D01*
X001041Y005837D01*
X001066Y005862D01*
X001041Y005909D02*
X001191Y005909D01*
X001141Y005959D01*
X001191Y006009D01*
X001041Y006009D01*
M02*
